M48
; DRILL file {KiCad 9.0.0} date 2025-03-10T12:33:42+0100
; FORMAT={-:-/ absolute / metric / decimal}
; #@! TF.CreationDate,2025-03-10T12:33:42+01:00
; #@! TF.GenerationSoftware,Kicad,Pcbnew,9.0.0
; #@! TF.FileFunction,Plated,1,2,PTH
FMAT,2
METRIC
; #@! TA.AperFunction,Plated,PTH,ComponentDrill
T1C0.700
; #@! TA.AperFunction,Plated,PTH,ComponentDrill
T2C0.800
; #@! TA.AperFunction,Plated,PTH,ComponentDrill
T3C0.900
; #@! TA.AperFunction,Plated,PTH,ComponentDrill
T4C1.000
; #@! TA.AperFunction,Plated,PTH,ComponentDrill
T5C1.200
%
G90
G05
T1
X126.55Y-88.6
X126.55Y-91.1
X131.425Y-98.3
X131.425Y-100.8
X133.6Y-84.2
X136.1Y-84.2
X141.945Y-118.5
X141.945Y-121.5
X144.445Y-118.5
X144.445Y-121.5
X146.3Y-105.75
X146.3Y-108.25
X146.4Y-99.3
X146.4Y-101.8
X147.445Y-113.5
X147.445Y-116.0
X151.445Y-113.5
X151.445Y-116.0
X179.6Y-89.85
X179.6Y-92.35
X179.6Y-95.2
X179.6Y-97.7
X182.5Y-86.0
X185.0Y-86.0
X188.05Y-86.0
X190.55Y-86.0
X194.65Y-89.5
X194.65Y-92.0
X194.65Y-95.15
X194.65Y-97.65
T2
X128.785Y-118.5
X128.785Y-122.0
X129.8Y-84.1
X129.8Y-94.26
X134.285Y-115.0
X135.09Y-98.12
X135.09Y-108.28
X137.63Y-98.12
X137.63Y-108.28
X138.945Y-118.5
X138.945Y-122.0
X140.1Y-84.22
X140.1Y-94.38
X140.17Y-98.12
X140.17Y-108.28
X142.71Y-98.12
X142.71Y-108.28
X144.445Y-115.0
X145.59Y-86.35
X145.6Y-90.8
X151.55Y-93.89
X151.55Y-104.05
X155.75Y-86.35
X155.76Y-90.8
X169.9Y-103.45
X172.4Y-103.45
X177.69Y-108.58
X177.69Y-111.98
X177.69Y-115.33
X177.72Y-105.25
X182.83Y-89.8
X182.83Y-99.96
X185.37Y-89.8
X185.37Y-99.96
X187.85Y-108.58
X187.85Y-111.98
X187.85Y-115.33
X187.88Y-105.25
X187.91Y-89.8
X187.91Y-99.96
X190.45Y-89.8
X190.45Y-99.96
X190.64Y-103.35
X198.5Y-87.34
X198.5Y-97.5
X200.8Y-103.35
T3
X160.0Y-99.49
X160.0Y-107.11
X164.95Y-99.58
X164.95Y-107.2
T4
X152.92Y-121.5
X155.46Y-121.5
X155.5Y-102.01
X155.5Y-104.55
X158.0Y-121.5
X161.445Y-116.0
X166.42Y-115.0
X168.96Y-115.0
X169.95Y-96.3
X169.975Y-90.575
X171.5Y-115.0
X172.49Y-96.3
X172.515Y-90.575
T5
X115.407Y-95.75
X115.407Y-105.75
M30
