%TF.GenerationSoftware,KiCad,Pcbnew,9.0.0*%
%TF.CreationDate,2025-02-27T14:13:56+01:00*%
%TF.ProjectId,Second,5365636f-6e64-42e6-9b69-6361645f7063,rev?*%
%TF.SameCoordinates,Original*%
%TF.FileFunction,Soldermask,Top*%
%TF.FilePolarity,Negative*%
%FSLAX46Y46*%
G04 Gerber Fmt 4.6, Leading zero omitted, Abs format (unit mm)*
G04 Created by KiCad (PCBNEW 9.0.0) date 2025-02-27 14:13:56*
%MOMM*%
%LPD*%
G01*
G04 APERTURE LIST*
%ADD10C,1.600000*%
%ADD11O,1.600000X1.600000*%
%ADD12R,1.700000X1.700000*%
%ADD13O,1.700000X1.700000*%
%ADD14R,1.600000X1.600000*%
%ADD15C,1.400000*%
%ADD16R,2.000000X2.000000*%
%ADD17C,2.000000*%
%ADD18R,1.800000X1.800000*%
%ADD19O,1.800000X1.800000*%
G04 APERTURE END LIST*
D10*
%TO.C,R3*%
X71500000Y-63660000D03*
D11*
X71500000Y-53500000D03*
%TD*%
D12*
%TO.C,J1*%
X67000000Y-71275000D03*
D13*
X67000000Y-68735000D03*
%TD*%
D12*
%TO.C,J7*%
X127500000Y-67500000D03*
D13*
X130040000Y-67500000D03*
%TD*%
D14*
%TO.C,LM567CN1*%
X106200000Y-75600000D03*
D11*
X108740000Y-75600000D03*
X111280000Y-75600000D03*
X113820000Y-75600000D03*
X113820000Y-65440000D03*
X111280000Y-65440000D03*
X108740000Y-65440000D03*
X106200000Y-65440000D03*
%TD*%
D12*
%TO.C,J6*%
X127500000Y-76275000D03*
D13*
X127500000Y-73735000D03*
%TD*%
D12*
%TO.C,J3*%
X80225000Y-53500000D03*
D13*
X82765000Y-53500000D03*
%TD*%
D12*
%TO.C,J2*%
X109500000Y-53225000D03*
D13*
X109500000Y-55765000D03*
%TD*%
D12*
%TO.C,J8*%
X146000000Y-70460000D03*
D13*
X146000000Y-73000000D03*
X146000000Y-75540000D03*
%TD*%
D12*
%TO.C,J4*%
X124675000Y-85650000D03*
D13*
X122135000Y-85650000D03*
%TD*%
D15*
%TO.C,C6*%
X87000000Y-79500000D03*
X87000000Y-82000000D03*
%TD*%
D14*
%TO.C,U1*%
X86800000Y-65400000D03*
D11*
X84260000Y-65400000D03*
X81720000Y-65400000D03*
X79180000Y-65400000D03*
X79180000Y-75560000D03*
X81720000Y-75560000D03*
X84260000Y-75560000D03*
X86800000Y-75560000D03*
%TD*%
D10*
%TO.C,R5*%
X89420000Y-58000000D03*
D11*
X99580000Y-58000000D03*
%TD*%
D16*
%TO.C,MK1*%
X52200000Y-74700000D03*
D17*
X52200000Y-64700000D03*
%TD*%
D10*
%TO.C,R13*%
X128100000Y-51420000D03*
D11*
X128100000Y-61580000D03*
%TD*%
D12*
%TO.C,J10*%
X146000000Y-52380000D03*
D13*
X146000000Y-54920000D03*
X146000000Y-57460000D03*
X146000000Y-60000000D03*
X146000000Y-62540000D03*
X146000000Y-65080000D03*
%TD*%
D10*
%TO.C,R12*%
X132600000Y-51420000D03*
D11*
X132600000Y-61580000D03*
%TD*%
D15*
%TO.C,C1*%
X111500000Y-62000000D03*
X109000000Y-62000000D03*
%TD*%
D10*
%TO.C,R2*%
X99580000Y-53000000D03*
D11*
X89420000Y-53000000D03*
%TD*%
D12*
%TO.C,J9*%
X146000000Y-80960000D03*
D13*
X146000000Y-83500000D03*
X146000000Y-86040000D03*
%TD*%
D10*
%TO.C,R11*%
X137100000Y-51420000D03*
D11*
X137100000Y-61580000D03*
%TD*%
D14*
%TO.C,C9*%
X135000000Y-77205113D03*
D10*
X135000000Y-74705113D03*
%TD*%
D14*
%TO.C,C8*%
X135000000Y-84205113D03*
D10*
X135000000Y-81705113D03*
%TD*%
%TO.C,R14*%
X123500000Y-51420000D03*
D11*
X123500000Y-61580000D03*
%TD*%
D10*
%TO.C,R6*%
X93000000Y-75420000D03*
D11*
X93000000Y-85580000D03*
%TD*%
D15*
%TO.C,C7*%
X79250000Y-61000000D03*
X76750000Y-61000000D03*
%TD*%
%TO.C,C2*%
X109000000Y-81500000D03*
X109000000Y-79000000D03*
%TD*%
%TO.C,C5*%
X58500000Y-58000000D03*
X61000000Y-58000000D03*
%TD*%
D10*
%TO.C,R4*%
X99500000Y-65420000D03*
D11*
X99500000Y-75580000D03*
%TD*%
D15*
%TO.C,C4*%
X114500000Y-81500000D03*
X114500000Y-79000000D03*
%TD*%
D10*
%TO.C,R1*%
X58420000Y-82500000D03*
D11*
X68580000Y-82500000D03*
%TD*%
D12*
%TO.C,J5*%
X91500000Y-66225000D03*
D13*
X91500000Y-68765000D03*
%TD*%
D10*
%TO.C,R7*%
X121500000Y-77080000D03*
D11*
X121500000Y-66920000D03*
%TD*%
D18*
%TO.C,D2*%
X82310000Y-80500000D03*
D19*
X74690000Y-80500000D03*
%TD*%
D18*
%TO.C,D1*%
X74690000Y-85500000D03*
D19*
X82310000Y-85500000D03*
%TD*%
D15*
%TO.C,C3*%
X103500000Y-81500000D03*
X103500000Y-79000000D03*
%TD*%
M02*
