M48
; DRILL file {KiCad 9.0.0} date 2025-02-27T14:13:49+0100
; FORMAT={-:-/ absolute / metric / decimal}
; #@! TF.CreationDate,2025-02-27T14:13:49+01:00
; #@! TF.GenerationSoftware,Kicad,Pcbnew,9.0.0
; #@! TF.FileFunction,Plated,1,2,PTH
FMAT,2
METRIC
; #@! TA.AperFunction,Plated,PTH,ComponentDrill
T1C0.700
; #@! TA.AperFunction,Plated,PTH,ComponentDrill
T2C0.800
; #@! TA.AperFunction,Plated,PTH,ViaDrill
T3C0.900
; #@! TA.AperFunction,Plated,PTH,ComponentDrill
T4C0.900
; #@! TA.AperFunction,Plated,PTH,ComponentDrill
T5C1.000
; #@! TA.AperFunction,Plated,PTH,ComponentDrill
T6C1.300
%
G90
G05
T1
X58.5Y-58.0
X61.0Y-58.0
X76.75Y-61.0
X79.25Y-61.0
X87.0Y-79.5
X87.0Y-82.0
X103.5Y-79.0
X103.5Y-81.5
X109.0Y-62.0
X109.0Y-79.0
X109.0Y-81.5
X111.5Y-62.0
X114.5Y-79.0
X114.5Y-81.5
T2
X58.42Y-82.5
X68.58Y-82.5
X71.5Y-53.5
X71.5Y-63.66
X79.18Y-65.4
X79.18Y-75.56
X81.72Y-65.4
X81.72Y-75.56
X84.26Y-65.4
X84.26Y-75.56
X86.8Y-65.4
X86.8Y-75.56
X89.42Y-53.0
X89.42Y-58.0
X93.0Y-75.42
X93.0Y-85.58
X99.5Y-65.42
X99.5Y-75.58
X99.58Y-53.0
X99.58Y-58.0
X106.2Y-65.44
X106.2Y-75.6
X108.74Y-65.44
X108.74Y-75.6
X111.28Y-65.44
X111.28Y-75.6
X113.82Y-65.44
X113.82Y-75.6
X121.5Y-66.92
X121.5Y-77.08
X123.5Y-51.42
X123.5Y-61.58
X128.1Y-51.42
X128.1Y-61.58
X132.6Y-51.42
X132.6Y-61.58
X135.0Y-74.705
X135.0Y-77.205
X135.0Y-81.705
X135.0Y-84.205
X137.1Y-51.42
X137.1Y-61.58
T3
X68.65Y-88.5
X74.75Y-67.45
X86.8Y-60.9
X87.0Y-86.45
X95.8Y-49.15
X98.35Y-87.85
X100.4Y-85.55
X115.0Y-87.85
X117.45Y-81.5
X118.275Y-69.775
X122.15Y-82.25
X124.75Y-73.75
X141.0Y-78.0
X141.0Y-86.0
X141.15Y-60.1
X142.96Y-62.54
X148.8Y-75.55
X148.825Y-62.825
X149.05Y-60.4
X149.95Y-73.0
T4
X74.69Y-80.5
X74.69Y-85.5
X82.31Y-80.5
X82.31Y-85.5
T5
X67.0Y-68.735
X67.0Y-71.275
X80.225Y-53.5
X82.765Y-53.5
X91.5Y-66.225
X91.5Y-68.765
X109.5Y-53.225
X109.5Y-55.765
X122.135Y-85.65
X124.675Y-85.65
X127.5Y-67.5
X127.5Y-73.735
X127.5Y-76.275
X130.04Y-67.5
X146.0Y-52.38
X146.0Y-54.92
X146.0Y-57.46
X146.0Y-60.0
X146.0Y-62.54
X146.0Y-65.08
X146.0Y-70.46
X146.0Y-73.0
X146.0Y-75.54
X146.0Y-80.96
X146.0Y-83.5
X146.0Y-86.04
T6
X52.2Y-64.7
X52.2Y-74.7
M30
