%TF.GenerationSoftware,KiCad,Pcbnew,9.0.0*%
%TF.CreationDate,2025-02-27T14:13:55+01:00*%
%TF.ProjectId,Second,5365636f-6e64-42e6-9b69-6361645f7063,rev?*%
%TF.SameCoordinates,Original*%
%TF.FileFunction,Legend,Top*%
%TF.FilePolarity,Positive*%
%FSLAX46Y46*%
G04 Gerber Fmt 4.6, Leading zero omitted, Abs format (unit mm)*
G04 Created by KiCad (PCBNEW 9.0.0) date 2025-02-27 14:13:55*
%MOMM*%
%LPD*%
G01*
G04 APERTURE LIST*
%ADD10C,0.150000*%
%ADD11C,0.120000*%
G04 APERTURE END LIST*
D10*
X110058207Y-60124580D02*
X110010588Y-60172200D01*
X110010588Y-60172200D02*
X109867731Y-60219819D01*
X109867731Y-60219819D02*
X109772493Y-60219819D01*
X109772493Y-60219819D02*
X109629636Y-60172200D01*
X109629636Y-60172200D02*
X109534398Y-60076961D01*
X109534398Y-60076961D02*
X109486779Y-59981723D01*
X109486779Y-59981723D02*
X109439160Y-59791247D01*
X109439160Y-59791247D02*
X109439160Y-59648390D01*
X109439160Y-59648390D02*
X109486779Y-59457914D01*
X109486779Y-59457914D02*
X109534398Y-59362676D01*
X109534398Y-59362676D02*
X109629636Y-59267438D01*
X109629636Y-59267438D02*
X109772493Y-59219819D01*
X109772493Y-59219819D02*
X109867731Y-59219819D01*
X109867731Y-59219819D02*
X110010588Y-59267438D01*
X110010588Y-59267438D02*
X110058207Y-59315057D01*
X111010588Y-60219819D02*
X110439160Y-60219819D01*
X110724874Y-60219819D02*
X110724874Y-59219819D01*
X110724874Y-59219819D02*
X110629636Y-59362676D01*
X110629636Y-59362676D02*
X110534398Y-59457914D01*
X110534398Y-59457914D02*
X110439160Y-59505533D01*
X69584819Y-58746666D02*
X69108628Y-59079999D01*
X69584819Y-59318094D02*
X68584819Y-59318094D01*
X68584819Y-59318094D02*
X68584819Y-58937142D01*
X68584819Y-58937142D02*
X68632438Y-58841904D01*
X68632438Y-58841904D02*
X68680057Y-58794285D01*
X68680057Y-58794285D02*
X68775295Y-58746666D01*
X68775295Y-58746666D02*
X68918152Y-58746666D01*
X68918152Y-58746666D02*
X69013390Y-58794285D01*
X69013390Y-58794285D02*
X69061009Y-58841904D01*
X69061009Y-58841904D02*
X69108628Y-58937142D01*
X69108628Y-58937142D02*
X69108628Y-59318094D01*
X68584819Y-58413332D02*
X68584819Y-57794285D01*
X68584819Y-57794285D02*
X68965771Y-58127618D01*
X68965771Y-58127618D02*
X68965771Y-57984761D01*
X68965771Y-57984761D02*
X69013390Y-57889523D01*
X69013390Y-57889523D02*
X69061009Y-57841904D01*
X69061009Y-57841904D02*
X69156247Y-57794285D01*
X69156247Y-57794285D02*
X69394342Y-57794285D01*
X69394342Y-57794285D02*
X69489580Y-57841904D01*
X69489580Y-57841904D02*
X69537200Y-57889523D01*
X69537200Y-57889523D02*
X69584819Y-57984761D01*
X69584819Y-57984761D02*
X69584819Y-58270475D01*
X69584819Y-58270475D02*
X69537200Y-58365713D01*
X69537200Y-58365713D02*
X69489580Y-58413332D01*
X66666666Y-73059819D02*
X66666666Y-73774104D01*
X66666666Y-73774104D02*
X66619047Y-73916961D01*
X66619047Y-73916961D02*
X66523809Y-74012200D01*
X66523809Y-74012200D02*
X66380952Y-74059819D01*
X66380952Y-74059819D02*
X66285714Y-74059819D01*
X67666666Y-74059819D02*
X67095238Y-74059819D01*
X67380952Y-74059819D02*
X67380952Y-73059819D01*
X67380952Y-73059819D02*
X67285714Y-73202676D01*
X67285714Y-73202676D02*
X67190476Y-73297914D01*
X67190476Y-73297914D02*
X67095238Y-73345533D01*
X124624819Y-67833333D02*
X125339104Y-67833333D01*
X125339104Y-67833333D02*
X125481961Y-67880952D01*
X125481961Y-67880952D02*
X125577200Y-67976190D01*
X125577200Y-67976190D02*
X125624819Y-68119047D01*
X125624819Y-68119047D02*
X125624819Y-68214285D01*
X124624819Y-67452380D02*
X124624819Y-66785714D01*
X124624819Y-66785714D02*
X125624819Y-67214285D01*
X116954819Y-73710476D02*
X116954819Y-74186666D01*
X116954819Y-74186666D02*
X115954819Y-74186666D01*
X116954819Y-73377142D02*
X115954819Y-73377142D01*
X115954819Y-73377142D02*
X116669104Y-73043809D01*
X116669104Y-73043809D02*
X115954819Y-72710476D01*
X115954819Y-72710476D02*
X116954819Y-72710476D01*
X115954819Y-71758095D02*
X115954819Y-72234285D01*
X115954819Y-72234285D02*
X116431009Y-72281904D01*
X116431009Y-72281904D02*
X116383390Y-72234285D01*
X116383390Y-72234285D02*
X116335771Y-72139047D01*
X116335771Y-72139047D02*
X116335771Y-71900952D01*
X116335771Y-71900952D02*
X116383390Y-71805714D01*
X116383390Y-71805714D02*
X116431009Y-71758095D01*
X116431009Y-71758095D02*
X116526247Y-71710476D01*
X116526247Y-71710476D02*
X116764342Y-71710476D01*
X116764342Y-71710476D02*
X116859580Y-71758095D01*
X116859580Y-71758095D02*
X116907200Y-71805714D01*
X116907200Y-71805714D02*
X116954819Y-71900952D01*
X116954819Y-71900952D02*
X116954819Y-72139047D01*
X116954819Y-72139047D02*
X116907200Y-72234285D01*
X116907200Y-72234285D02*
X116859580Y-72281904D01*
X115954819Y-70853333D02*
X115954819Y-71043809D01*
X115954819Y-71043809D02*
X116002438Y-71139047D01*
X116002438Y-71139047D02*
X116050057Y-71186666D01*
X116050057Y-71186666D02*
X116192914Y-71281904D01*
X116192914Y-71281904D02*
X116383390Y-71329523D01*
X116383390Y-71329523D02*
X116764342Y-71329523D01*
X116764342Y-71329523D02*
X116859580Y-71281904D01*
X116859580Y-71281904D02*
X116907200Y-71234285D01*
X116907200Y-71234285D02*
X116954819Y-71139047D01*
X116954819Y-71139047D02*
X116954819Y-70948571D01*
X116954819Y-70948571D02*
X116907200Y-70853333D01*
X116907200Y-70853333D02*
X116859580Y-70805714D01*
X116859580Y-70805714D02*
X116764342Y-70758095D01*
X116764342Y-70758095D02*
X116526247Y-70758095D01*
X116526247Y-70758095D02*
X116431009Y-70805714D01*
X116431009Y-70805714D02*
X116383390Y-70853333D01*
X116383390Y-70853333D02*
X116335771Y-70948571D01*
X116335771Y-70948571D02*
X116335771Y-71139047D01*
X116335771Y-71139047D02*
X116383390Y-71234285D01*
X116383390Y-71234285D02*
X116431009Y-71281904D01*
X116431009Y-71281904D02*
X116526247Y-71329523D01*
X115954819Y-70424761D02*
X115954819Y-69758095D01*
X115954819Y-69758095D02*
X116954819Y-70186666D01*
X116859580Y-68805714D02*
X116907200Y-68853333D01*
X116907200Y-68853333D02*
X116954819Y-68996190D01*
X116954819Y-68996190D02*
X116954819Y-69091428D01*
X116954819Y-69091428D02*
X116907200Y-69234285D01*
X116907200Y-69234285D02*
X116811961Y-69329523D01*
X116811961Y-69329523D02*
X116716723Y-69377142D01*
X116716723Y-69377142D02*
X116526247Y-69424761D01*
X116526247Y-69424761D02*
X116383390Y-69424761D01*
X116383390Y-69424761D02*
X116192914Y-69377142D01*
X116192914Y-69377142D02*
X116097676Y-69329523D01*
X116097676Y-69329523D02*
X116002438Y-69234285D01*
X116002438Y-69234285D02*
X115954819Y-69091428D01*
X115954819Y-69091428D02*
X115954819Y-68996190D01*
X115954819Y-68996190D02*
X116002438Y-68853333D01*
X116002438Y-68853333D02*
X116050057Y-68805714D01*
X116954819Y-68377142D02*
X115954819Y-68377142D01*
X115954819Y-68377142D02*
X116954819Y-67805714D01*
X116954819Y-67805714D02*
X115954819Y-67805714D01*
X116954819Y-66805714D02*
X116954819Y-67377142D01*
X116954819Y-67091428D02*
X115954819Y-67091428D01*
X115954819Y-67091428D02*
X116097676Y-67186666D01*
X116097676Y-67186666D02*
X116192914Y-67281904D01*
X116192914Y-67281904D02*
X116240533Y-67377142D01*
X127166666Y-78059819D02*
X127166666Y-78774104D01*
X127166666Y-78774104D02*
X127119047Y-78916961D01*
X127119047Y-78916961D02*
X127023809Y-79012200D01*
X127023809Y-79012200D02*
X126880952Y-79059819D01*
X126880952Y-79059819D02*
X126785714Y-79059819D01*
X128071428Y-78059819D02*
X127880952Y-78059819D01*
X127880952Y-78059819D02*
X127785714Y-78107438D01*
X127785714Y-78107438D02*
X127738095Y-78155057D01*
X127738095Y-78155057D02*
X127642857Y-78297914D01*
X127642857Y-78297914D02*
X127595238Y-78488390D01*
X127595238Y-78488390D02*
X127595238Y-78869342D01*
X127595238Y-78869342D02*
X127642857Y-78964580D01*
X127642857Y-78964580D02*
X127690476Y-79012200D01*
X127690476Y-79012200D02*
X127785714Y-79059819D01*
X127785714Y-79059819D02*
X127976190Y-79059819D01*
X127976190Y-79059819D02*
X128071428Y-79012200D01*
X128071428Y-79012200D02*
X128119047Y-78964580D01*
X128119047Y-78964580D02*
X128166666Y-78869342D01*
X128166666Y-78869342D02*
X128166666Y-78631247D01*
X128166666Y-78631247D02*
X128119047Y-78536009D01*
X128119047Y-78536009D02*
X128071428Y-78488390D01*
X128071428Y-78488390D02*
X127976190Y-78440771D01*
X127976190Y-78440771D02*
X127785714Y-78440771D01*
X127785714Y-78440771D02*
X127690476Y-78488390D01*
X127690476Y-78488390D02*
X127642857Y-78536009D01*
X127642857Y-78536009D02*
X127595238Y-78631247D01*
X77349819Y-53833333D02*
X78064104Y-53833333D01*
X78064104Y-53833333D02*
X78206961Y-53880952D01*
X78206961Y-53880952D02*
X78302200Y-53976190D01*
X78302200Y-53976190D02*
X78349819Y-54119047D01*
X78349819Y-54119047D02*
X78349819Y-54214285D01*
X77349819Y-53452380D02*
X77349819Y-52833333D01*
X77349819Y-52833333D02*
X77730771Y-53166666D01*
X77730771Y-53166666D02*
X77730771Y-53023809D01*
X77730771Y-53023809D02*
X77778390Y-52928571D01*
X77778390Y-52928571D02*
X77826009Y-52880952D01*
X77826009Y-52880952D02*
X77921247Y-52833333D01*
X77921247Y-52833333D02*
X78159342Y-52833333D01*
X78159342Y-52833333D02*
X78254580Y-52880952D01*
X78254580Y-52880952D02*
X78302200Y-52928571D01*
X78302200Y-52928571D02*
X78349819Y-53023809D01*
X78349819Y-53023809D02*
X78349819Y-53309523D01*
X78349819Y-53309523D02*
X78302200Y-53404761D01*
X78302200Y-53404761D02*
X78254580Y-53452380D01*
X109166666Y-50349819D02*
X109166666Y-51064104D01*
X109166666Y-51064104D02*
X109119047Y-51206961D01*
X109119047Y-51206961D02*
X109023809Y-51302200D01*
X109023809Y-51302200D02*
X108880952Y-51349819D01*
X108880952Y-51349819D02*
X108785714Y-51349819D01*
X109595238Y-50445057D02*
X109642857Y-50397438D01*
X109642857Y-50397438D02*
X109738095Y-50349819D01*
X109738095Y-50349819D02*
X109976190Y-50349819D01*
X109976190Y-50349819D02*
X110071428Y-50397438D01*
X110071428Y-50397438D02*
X110119047Y-50445057D01*
X110119047Y-50445057D02*
X110166666Y-50540295D01*
X110166666Y-50540295D02*
X110166666Y-50635533D01*
X110166666Y-50635533D02*
X110119047Y-50778390D01*
X110119047Y-50778390D02*
X109547619Y-51349819D01*
X109547619Y-51349819D02*
X110166666Y-51349819D01*
X145666666Y-67584819D02*
X145666666Y-68299104D01*
X145666666Y-68299104D02*
X145619047Y-68441961D01*
X145619047Y-68441961D02*
X145523809Y-68537200D01*
X145523809Y-68537200D02*
X145380952Y-68584819D01*
X145380952Y-68584819D02*
X145285714Y-68584819D01*
X146285714Y-68013390D02*
X146190476Y-67965771D01*
X146190476Y-67965771D02*
X146142857Y-67918152D01*
X146142857Y-67918152D02*
X146095238Y-67822914D01*
X146095238Y-67822914D02*
X146095238Y-67775295D01*
X146095238Y-67775295D02*
X146142857Y-67680057D01*
X146142857Y-67680057D02*
X146190476Y-67632438D01*
X146190476Y-67632438D02*
X146285714Y-67584819D01*
X146285714Y-67584819D02*
X146476190Y-67584819D01*
X146476190Y-67584819D02*
X146571428Y-67632438D01*
X146571428Y-67632438D02*
X146619047Y-67680057D01*
X146619047Y-67680057D02*
X146666666Y-67775295D01*
X146666666Y-67775295D02*
X146666666Y-67822914D01*
X146666666Y-67822914D02*
X146619047Y-67918152D01*
X146619047Y-67918152D02*
X146571428Y-67965771D01*
X146571428Y-67965771D02*
X146476190Y-68013390D01*
X146476190Y-68013390D02*
X146285714Y-68013390D01*
X146285714Y-68013390D02*
X146190476Y-68061009D01*
X146190476Y-68061009D02*
X146142857Y-68108628D01*
X146142857Y-68108628D02*
X146095238Y-68203866D01*
X146095238Y-68203866D02*
X146095238Y-68394342D01*
X146095238Y-68394342D02*
X146142857Y-68489580D01*
X146142857Y-68489580D02*
X146190476Y-68537200D01*
X146190476Y-68537200D02*
X146285714Y-68584819D01*
X146285714Y-68584819D02*
X146476190Y-68584819D01*
X146476190Y-68584819D02*
X146571428Y-68537200D01*
X146571428Y-68537200D02*
X146619047Y-68489580D01*
X146619047Y-68489580D02*
X146666666Y-68394342D01*
X146666666Y-68394342D02*
X146666666Y-68203866D01*
X146666666Y-68203866D02*
X146619047Y-68108628D01*
X146619047Y-68108628D02*
X146571428Y-68061009D01*
X146571428Y-68061009D02*
X146476190Y-68013390D01*
X126459819Y-85983333D02*
X127174104Y-85983333D01*
X127174104Y-85983333D02*
X127316961Y-86030952D01*
X127316961Y-86030952D02*
X127412200Y-86126190D01*
X127412200Y-86126190D02*
X127459819Y-86269047D01*
X127459819Y-86269047D02*
X127459819Y-86364285D01*
X126793152Y-85078571D02*
X127459819Y-85078571D01*
X126412200Y-85316666D02*
X127126485Y-85554761D01*
X127126485Y-85554761D02*
X127126485Y-84935714D01*
X89609580Y-80916666D02*
X89657200Y-80964285D01*
X89657200Y-80964285D02*
X89704819Y-81107142D01*
X89704819Y-81107142D02*
X89704819Y-81202380D01*
X89704819Y-81202380D02*
X89657200Y-81345237D01*
X89657200Y-81345237D02*
X89561961Y-81440475D01*
X89561961Y-81440475D02*
X89466723Y-81488094D01*
X89466723Y-81488094D02*
X89276247Y-81535713D01*
X89276247Y-81535713D02*
X89133390Y-81535713D01*
X89133390Y-81535713D02*
X88942914Y-81488094D01*
X88942914Y-81488094D02*
X88847676Y-81440475D01*
X88847676Y-81440475D02*
X88752438Y-81345237D01*
X88752438Y-81345237D02*
X88704819Y-81202380D01*
X88704819Y-81202380D02*
X88704819Y-81107142D01*
X88704819Y-81107142D02*
X88752438Y-80964285D01*
X88752438Y-80964285D02*
X88800057Y-80916666D01*
X88704819Y-80059523D02*
X88704819Y-80249999D01*
X88704819Y-80249999D02*
X88752438Y-80345237D01*
X88752438Y-80345237D02*
X88800057Y-80392856D01*
X88800057Y-80392856D02*
X88942914Y-80488094D01*
X88942914Y-80488094D02*
X89133390Y-80535713D01*
X89133390Y-80535713D02*
X89514342Y-80535713D01*
X89514342Y-80535713D02*
X89609580Y-80488094D01*
X89609580Y-80488094D02*
X89657200Y-80440475D01*
X89657200Y-80440475D02*
X89704819Y-80345237D01*
X89704819Y-80345237D02*
X89704819Y-80154761D01*
X89704819Y-80154761D02*
X89657200Y-80059523D01*
X89657200Y-80059523D02*
X89609580Y-80011904D01*
X89609580Y-80011904D02*
X89514342Y-79964285D01*
X89514342Y-79964285D02*
X89276247Y-79964285D01*
X89276247Y-79964285D02*
X89181009Y-80011904D01*
X89181009Y-80011904D02*
X89133390Y-80059523D01*
X89133390Y-80059523D02*
X89085771Y-80154761D01*
X89085771Y-80154761D02*
X89085771Y-80345237D01*
X89085771Y-80345237D02*
X89133390Y-80440475D01*
X89133390Y-80440475D02*
X89181009Y-80488094D01*
X89181009Y-80488094D02*
X89276247Y-80535713D01*
X88584819Y-71241904D02*
X89394342Y-71241904D01*
X89394342Y-71241904D02*
X89489580Y-71194285D01*
X89489580Y-71194285D02*
X89537200Y-71146666D01*
X89537200Y-71146666D02*
X89584819Y-71051428D01*
X89584819Y-71051428D02*
X89584819Y-70860952D01*
X89584819Y-70860952D02*
X89537200Y-70765714D01*
X89537200Y-70765714D02*
X89489580Y-70718095D01*
X89489580Y-70718095D02*
X89394342Y-70670476D01*
X89394342Y-70670476D02*
X88584819Y-70670476D01*
X89584819Y-69670476D02*
X89584819Y-70241904D01*
X89584819Y-69956190D02*
X88584819Y-69956190D01*
X88584819Y-69956190D02*
X88727676Y-70051428D01*
X88727676Y-70051428D02*
X88822914Y-70146666D01*
X88822914Y-70146666D02*
X88870533Y-70241904D01*
X94333333Y-60954819D02*
X94000000Y-60478628D01*
X93761905Y-60954819D02*
X93761905Y-59954819D01*
X93761905Y-59954819D02*
X94142857Y-59954819D01*
X94142857Y-59954819D02*
X94238095Y-60002438D01*
X94238095Y-60002438D02*
X94285714Y-60050057D01*
X94285714Y-60050057D02*
X94333333Y-60145295D01*
X94333333Y-60145295D02*
X94333333Y-60288152D01*
X94333333Y-60288152D02*
X94285714Y-60383390D01*
X94285714Y-60383390D02*
X94238095Y-60431009D01*
X94238095Y-60431009D02*
X94142857Y-60478628D01*
X94142857Y-60478628D02*
X93761905Y-60478628D01*
X95238095Y-59954819D02*
X94761905Y-59954819D01*
X94761905Y-59954819D02*
X94714286Y-60431009D01*
X94714286Y-60431009D02*
X94761905Y-60383390D01*
X94761905Y-60383390D02*
X94857143Y-60335771D01*
X94857143Y-60335771D02*
X95095238Y-60335771D01*
X95095238Y-60335771D02*
X95190476Y-60383390D01*
X95190476Y-60383390D02*
X95238095Y-60431009D01*
X95238095Y-60431009D02*
X95285714Y-60526247D01*
X95285714Y-60526247D02*
X95285714Y-60764342D01*
X95285714Y-60764342D02*
X95238095Y-60859580D01*
X95238095Y-60859580D02*
X95190476Y-60907200D01*
X95190476Y-60907200D02*
X95095238Y-60954819D01*
X95095238Y-60954819D02*
X94857143Y-60954819D01*
X94857143Y-60954819D02*
X94761905Y-60907200D01*
X94761905Y-60907200D02*
X94714286Y-60859580D01*
X42654819Y-70849523D02*
X41654819Y-70849523D01*
X41654819Y-70849523D02*
X42369104Y-70516190D01*
X42369104Y-70516190D02*
X41654819Y-70182857D01*
X41654819Y-70182857D02*
X42654819Y-70182857D01*
X42654819Y-69706666D02*
X41654819Y-69706666D01*
X42654819Y-69135238D02*
X42083390Y-69563809D01*
X41654819Y-69135238D02*
X42226247Y-69706666D01*
X42654819Y-68182857D02*
X42654819Y-68754285D01*
X42654819Y-68468571D02*
X41654819Y-68468571D01*
X41654819Y-68468571D02*
X41797676Y-68563809D01*
X41797676Y-68563809D02*
X41892914Y-68659047D01*
X41892914Y-68659047D02*
X41940533Y-68754285D01*
X130924819Y-57142857D02*
X130448628Y-57476190D01*
X130924819Y-57714285D02*
X129924819Y-57714285D01*
X129924819Y-57714285D02*
X129924819Y-57333333D01*
X129924819Y-57333333D02*
X129972438Y-57238095D01*
X129972438Y-57238095D02*
X130020057Y-57190476D01*
X130020057Y-57190476D02*
X130115295Y-57142857D01*
X130115295Y-57142857D02*
X130258152Y-57142857D01*
X130258152Y-57142857D02*
X130353390Y-57190476D01*
X130353390Y-57190476D02*
X130401009Y-57238095D01*
X130401009Y-57238095D02*
X130448628Y-57333333D01*
X130448628Y-57333333D02*
X130448628Y-57714285D01*
X130924819Y-56190476D02*
X130924819Y-56761904D01*
X130924819Y-56476190D02*
X129924819Y-56476190D01*
X129924819Y-56476190D02*
X130067676Y-56571428D01*
X130067676Y-56571428D02*
X130162914Y-56666666D01*
X130162914Y-56666666D02*
X130210533Y-56761904D01*
X129924819Y-55857142D02*
X129924819Y-55238095D01*
X129924819Y-55238095D02*
X130305771Y-55571428D01*
X130305771Y-55571428D02*
X130305771Y-55428571D01*
X130305771Y-55428571D02*
X130353390Y-55333333D01*
X130353390Y-55333333D02*
X130401009Y-55285714D01*
X130401009Y-55285714D02*
X130496247Y-55238095D01*
X130496247Y-55238095D02*
X130734342Y-55238095D01*
X130734342Y-55238095D02*
X130829580Y-55285714D01*
X130829580Y-55285714D02*
X130877200Y-55333333D01*
X130877200Y-55333333D02*
X130924819Y-55428571D01*
X130924819Y-55428571D02*
X130924819Y-55714285D01*
X130924819Y-55714285D02*
X130877200Y-55809523D01*
X130877200Y-55809523D02*
X130829580Y-55857142D01*
X145190476Y-49504819D02*
X145190476Y-50219104D01*
X145190476Y-50219104D02*
X145142857Y-50361961D01*
X145142857Y-50361961D02*
X145047619Y-50457200D01*
X145047619Y-50457200D02*
X144904762Y-50504819D01*
X144904762Y-50504819D02*
X144809524Y-50504819D01*
X146190476Y-50504819D02*
X145619048Y-50504819D01*
X145904762Y-50504819D02*
X145904762Y-49504819D01*
X145904762Y-49504819D02*
X145809524Y-49647676D01*
X145809524Y-49647676D02*
X145714286Y-49742914D01*
X145714286Y-49742914D02*
X145619048Y-49790533D01*
X146809524Y-49504819D02*
X146904762Y-49504819D01*
X146904762Y-49504819D02*
X147000000Y-49552438D01*
X147000000Y-49552438D02*
X147047619Y-49600057D01*
X147047619Y-49600057D02*
X147095238Y-49695295D01*
X147095238Y-49695295D02*
X147142857Y-49885771D01*
X147142857Y-49885771D02*
X147142857Y-50123866D01*
X147142857Y-50123866D02*
X147095238Y-50314342D01*
X147095238Y-50314342D02*
X147047619Y-50409580D01*
X147047619Y-50409580D02*
X147000000Y-50457200D01*
X147000000Y-50457200D02*
X146904762Y-50504819D01*
X146904762Y-50504819D02*
X146809524Y-50504819D01*
X146809524Y-50504819D02*
X146714286Y-50457200D01*
X146714286Y-50457200D02*
X146666667Y-50409580D01*
X146666667Y-50409580D02*
X146619048Y-50314342D01*
X146619048Y-50314342D02*
X146571429Y-50123866D01*
X146571429Y-50123866D02*
X146571429Y-49885771D01*
X146571429Y-49885771D02*
X146619048Y-49695295D01*
X146619048Y-49695295D02*
X146666667Y-49600057D01*
X146666667Y-49600057D02*
X146714286Y-49552438D01*
X146714286Y-49552438D02*
X146809524Y-49504819D01*
X135424819Y-57142857D02*
X134948628Y-57476190D01*
X135424819Y-57714285D02*
X134424819Y-57714285D01*
X134424819Y-57714285D02*
X134424819Y-57333333D01*
X134424819Y-57333333D02*
X134472438Y-57238095D01*
X134472438Y-57238095D02*
X134520057Y-57190476D01*
X134520057Y-57190476D02*
X134615295Y-57142857D01*
X134615295Y-57142857D02*
X134758152Y-57142857D01*
X134758152Y-57142857D02*
X134853390Y-57190476D01*
X134853390Y-57190476D02*
X134901009Y-57238095D01*
X134901009Y-57238095D02*
X134948628Y-57333333D01*
X134948628Y-57333333D02*
X134948628Y-57714285D01*
X135424819Y-56190476D02*
X135424819Y-56761904D01*
X135424819Y-56476190D02*
X134424819Y-56476190D01*
X134424819Y-56476190D02*
X134567676Y-56571428D01*
X134567676Y-56571428D02*
X134662914Y-56666666D01*
X134662914Y-56666666D02*
X134710533Y-56761904D01*
X134520057Y-55809523D02*
X134472438Y-55761904D01*
X134472438Y-55761904D02*
X134424819Y-55666666D01*
X134424819Y-55666666D02*
X134424819Y-55428571D01*
X134424819Y-55428571D02*
X134472438Y-55333333D01*
X134472438Y-55333333D02*
X134520057Y-55285714D01*
X134520057Y-55285714D02*
X134615295Y-55238095D01*
X134615295Y-55238095D02*
X134710533Y-55238095D01*
X134710533Y-55238095D02*
X134853390Y-55285714D01*
X134853390Y-55285714D02*
X135424819Y-55857142D01*
X135424819Y-55857142D02*
X135424819Y-55238095D01*
X94333333Y-55824819D02*
X94000000Y-55348628D01*
X93761905Y-55824819D02*
X93761905Y-54824819D01*
X93761905Y-54824819D02*
X94142857Y-54824819D01*
X94142857Y-54824819D02*
X94238095Y-54872438D01*
X94238095Y-54872438D02*
X94285714Y-54920057D01*
X94285714Y-54920057D02*
X94333333Y-55015295D01*
X94333333Y-55015295D02*
X94333333Y-55158152D01*
X94333333Y-55158152D02*
X94285714Y-55253390D01*
X94285714Y-55253390D02*
X94238095Y-55301009D01*
X94238095Y-55301009D02*
X94142857Y-55348628D01*
X94142857Y-55348628D02*
X93761905Y-55348628D01*
X94714286Y-54920057D02*
X94761905Y-54872438D01*
X94761905Y-54872438D02*
X94857143Y-54824819D01*
X94857143Y-54824819D02*
X95095238Y-54824819D01*
X95095238Y-54824819D02*
X95190476Y-54872438D01*
X95190476Y-54872438D02*
X95238095Y-54920057D01*
X95238095Y-54920057D02*
X95285714Y-55015295D01*
X95285714Y-55015295D02*
X95285714Y-55110533D01*
X95285714Y-55110533D02*
X95238095Y-55253390D01*
X95238095Y-55253390D02*
X94666667Y-55824819D01*
X94666667Y-55824819D02*
X95285714Y-55824819D01*
X145666666Y-78084819D02*
X145666666Y-78799104D01*
X145666666Y-78799104D02*
X145619047Y-78941961D01*
X145619047Y-78941961D02*
X145523809Y-79037200D01*
X145523809Y-79037200D02*
X145380952Y-79084819D01*
X145380952Y-79084819D02*
X145285714Y-79084819D01*
X146190476Y-79084819D02*
X146380952Y-79084819D01*
X146380952Y-79084819D02*
X146476190Y-79037200D01*
X146476190Y-79037200D02*
X146523809Y-78989580D01*
X146523809Y-78989580D02*
X146619047Y-78846723D01*
X146619047Y-78846723D02*
X146666666Y-78656247D01*
X146666666Y-78656247D02*
X146666666Y-78275295D01*
X146666666Y-78275295D02*
X146619047Y-78180057D01*
X146619047Y-78180057D02*
X146571428Y-78132438D01*
X146571428Y-78132438D02*
X146476190Y-78084819D01*
X146476190Y-78084819D02*
X146285714Y-78084819D01*
X146285714Y-78084819D02*
X146190476Y-78132438D01*
X146190476Y-78132438D02*
X146142857Y-78180057D01*
X146142857Y-78180057D02*
X146095238Y-78275295D01*
X146095238Y-78275295D02*
X146095238Y-78513390D01*
X146095238Y-78513390D02*
X146142857Y-78608628D01*
X146142857Y-78608628D02*
X146190476Y-78656247D01*
X146190476Y-78656247D02*
X146285714Y-78703866D01*
X146285714Y-78703866D02*
X146476190Y-78703866D01*
X146476190Y-78703866D02*
X146571428Y-78656247D01*
X146571428Y-78656247D02*
X146619047Y-78608628D01*
X146619047Y-78608628D02*
X146666666Y-78513390D01*
X139924819Y-57142857D02*
X139448628Y-57476190D01*
X139924819Y-57714285D02*
X138924819Y-57714285D01*
X138924819Y-57714285D02*
X138924819Y-57333333D01*
X138924819Y-57333333D02*
X138972438Y-57238095D01*
X138972438Y-57238095D02*
X139020057Y-57190476D01*
X139020057Y-57190476D02*
X139115295Y-57142857D01*
X139115295Y-57142857D02*
X139258152Y-57142857D01*
X139258152Y-57142857D02*
X139353390Y-57190476D01*
X139353390Y-57190476D02*
X139401009Y-57238095D01*
X139401009Y-57238095D02*
X139448628Y-57333333D01*
X139448628Y-57333333D02*
X139448628Y-57714285D01*
X139924819Y-56190476D02*
X139924819Y-56761904D01*
X139924819Y-56476190D02*
X138924819Y-56476190D01*
X138924819Y-56476190D02*
X139067676Y-56571428D01*
X139067676Y-56571428D02*
X139162914Y-56666666D01*
X139162914Y-56666666D02*
X139210533Y-56761904D01*
X139924819Y-55238095D02*
X139924819Y-55809523D01*
X139924819Y-55523809D02*
X138924819Y-55523809D01*
X138924819Y-55523809D02*
X139067676Y-55619047D01*
X139067676Y-55619047D02*
X139162914Y-55714285D01*
X139162914Y-55714285D02*
X139210533Y-55809523D01*
X131609580Y-76121779D02*
X131657200Y-76169398D01*
X131657200Y-76169398D02*
X131704819Y-76312255D01*
X131704819Y-76312255D02*
X131704819Y-76407493D01*
X131704819Y-76407493D02*
X131657200Y-76550350D01*
X131657200Y-76550350D02*
X131561961Y-76645588D01*
X131561961Y-76645588D02*
X131466723Y-76693207D01*
X131466723Y-76693207D02*
X131276247Y-76740826D01*
X131276247Y-76740826D02*
X131133390Y-76740826D01*
X131133390Y-76740826D02*
X130942914Y-76693207D01*
X130942914Y-76693207D02*
X130847676Y-76645588D01*
X130847676Y-76645588D02*
X130752438Y-76550350D01*
X130752438Y-76550350D02*
X130704819Y-76407493D01*
X130704819Y-76407493D02*
X130704819Y-76312255D01*
X130704819Y-76312255D02*
X130752438Y-76169398D01*
X130752438Y-76169398D02*
X130800057Y-76121779D01*
X131704819Y-75645588D02*
X131704819Y-75455112D01*
X131704819Y-75455112D02*
X131657200Y-75359874D01*
X131657200Y-75359874D02*
X131609580Y-75312255D01*
X131609580Y-75312255D02*
X131466723Y-75217017D01*
X131466723Y-75217017D02*
X131276247Y-75169398D01*
X131276247Y-75169398D02*
X130895295Y-75169398D01*
X130895295Y-75169398D02*
X130800057Y-75217017D01*
X130800057Y-75217017D02*
X130752438Y-75264636D01*
X130752438Y-75264636D02*
X130704819Y-75359874D01*
X130704819Y-75359874D02*
X130704819Y-75550350D01*
X130704819Y-75550350D02*
X130752438Y-75645588D01*
X130752438Y-75645588D02*
X130800057Y-75693207D01*
X130800057Y-75693207D02*
X130895295Y-75740826D01*
X130895295Y-75740826D02*
X131133390Y-75740826D01*
X131133390Y-75740826D02*
X131228628Y-75693207D01*
X131228628Y-75693207D02*
X131276247Y-75645588D01*
X131276247Y-75645588D02*
X131323866Y-75550350D01*
X131323866Y-75550350D02*
X131323866Y-75359874D01*
X131323866Y-75359874D02*
X131276247Y-75264636D01*
X131276247Y-75264636D02*
X131228628Y-75217017D01*
X131228628Y-75217017D02*
X131133390Y-75169398D01*
X131609580Y-83121779D02*
X131657200Y-83169398D01*
X131657200Y-83169398D02*
X131704819Y-83312255D01*
X131704819Y-83312255D02*
X131704819Y-83407493D01*
X131704819Y-83407493D02*
X131657200Y-83550350D01*
X131657200Y-83550350D02*
X131561961Y-83645588D01*
X131561961Y-83645588D02*
X131466723Y-83693207D01*
X131466723Y-83693207D02*
X131276247Y-83740826D01*
X131276247Y-83740826D02*
X131133390Y-83740826D01*
X131133390Y-83740826D02*
X130942914Y-83693207D01*
X130942914Y-83693207D02*
X130847676Y-83645588D01*
X130847676Y-83645588D02*
X130752438Y-83550350D01*
X130752438Y-83550350D02*
X130704819Y-83407493D01*
X130704819Y-83407493D02*
X130704819Y-83312255D01*
X130704819Y-83312255D02*
X130752438Y-83169398D01*
X130752438Y-83169398D02*
X130800057Y-83121779D01*
X131133390Y-82550350D02*
X131085771Y-82645588D01*
X131085771Y-82645588D02*
X131038152Y-82693207D01*
X131038152Y-82693207D02*
X130942914Y-82740826D01*
X130942914Y-82740826D02*
X130895295Y-82740826D01*
X130895295Y-82740826D02*
X130800057Y-82693207D01*
X130800057Y-82693207D02*
X130752438Y-82645588D01*
X130752438Y-82645588D02*
X130704819Y-82550350D01*
X130704819Y-82550350D02*
X130704819Y-82359874D01*
X130704819Y-82359874D02*
X130752438Y-82264636D01*
X130752438Y-82264636D02*
X130800057Y-82217017D01*
X130800057Y-82217017D02*
X130895295Y-82169398D01*
X130895295Y-82169398D02*
X130942914Y-82169398D01*
X130942914Y-82169398D02*
X131038152Y-82217017D01*
X131038152Y-82217017D02*
X131085771Y-82264636D01*
X131085771Y-82264636D02*
X131133390Y-82359874D01*
X131133390Y-82359874D02*
X131133390Y-82550350D01*
X131133390Y-82550350D02*
X131181009Y-82645588D01*
X131181009Y-82645588D02*
X131228628Y-82693207D01*
X131228628Y-82693207D02*
X131323866Y-82740826D01*
X131323866Y-82740826D02*
X131514342Y-82740826D01*
X131514342Y-82740826D02*
X131609580Y-82693207D01*
X131609580Y-82693207D02*
X131657200Y-82645588D01*
X131657200Y-82645588D02*
X131704819Y-82550350D01*
X131704819Y-82550350D02*
X131704819Y-82359874D01*
X131704819Y-82359874D02*
X131657200Y-82264636D01*
X131657200Y-82264636D02*
X131609580Y-82217017D01*
X131609580Y-82217017D02*
X131514342Y-82169398D01*
X131514342Y-82169398D02*
X131323866Y-82169398D01*
X131323866Y-82169398D02*
X131228628Y-82217017D01*
X131228628Y-82217017D02*
X131181009Y-82264636D01*
X131181009Y-82264636D02*
X131133390Y-82359874D01*
X126324819Y-57142857D02*
X125848628Y-57476190D01*
X126324819Y-57714285D02*
X125324819Y-57714285D01*
X125324819Y-57714285D02*
X125324819Y-57333333D01*
X125324819Y-57333333D02*
X125372438Y-57238095D01*
X125372438Y-57238095D02*
X125420057Y-57190476D01*
X125420057Y-57190476D02*
X125515295Y-57142857D01*
X125515295Y-57142857D02*
X125658152Y-57142857D01*
X125658152Y-57142857D02*
X125753390Y-57190476D01*
X125753390Y-57190476D02*
X125801009Y-57238095D01*
X125801009Y-57238095D02*
X125848628Y-57333333D01*
X125848628Y-57333333D02*
X125848628Y-57714285D01*
X126324819Y-56190476D02*
X126324819Y-56761904D01*
X126324819Y-56476190D02*
X125324819Y-56476190D01*
X125324819Y-56476190D02*
X125467676Y-56571428D01*
X125467676Y-56571428D02*
X125562914Y-56666666D01*
X125562914Y-56666666D02*
X125610533Y-56761904D01*
X125658152Y-55333333D02*
X126324819Y-55333333D01*
X125277200Y-55571428D02*
X125991485Y-55809523D01*
X125991485Y-55809523D02*
X125991485Y-55190476D01*
X95824819Y-80666666D02*
X95348628Y-80999999D01*
X95824819Y-81238094D02*
X94824819Y-81238094D01*
X94824819Y-81238094D02*
X94824819Y-80857142D01*
X94824819Y-80857142D02*
X94872438Y-80761904D01*
X94872438Y-80761904D02*
X94920057Y-80714285D01*
X94920057Y-80714285D02*
X95015295Y-80666666D01*
X95015295Y-80666666D02*
X95158152Y-80666666D01*
X95158152Y-80666666D02*
X95253390Y-80714285D01*
X95253390Y-80714285D02*
X95301009Y-80761904D01*
X95301009Y-80761904D02*
X95348628Y-80857142D01*
X95348628Y-80857142D02*
X95348628Y-81238094D01*
X94824819Y-79809523D02*
X94824819Y-79999999D01*
X94824819Y-79999999D02*
X94872438Y-80095237D01*
X94872438Y-80095237D02*
X94920057Y-80142856D01*
X94920057Y-80142856D02*
X95062914Y-80238094D01*
X95062914Y-80238094D02*
X95253390Y-80285713D01*
X95253390Y-80285713D02*
X95634342Y-80285713D01*
X95634342Y-80285713D02*
X95729580Y-80238094D01*
X95729580Y-80238094D02*
X95777200Y-80190475D01*
X95777200Y-80190475D02*
X95824819Y-80095237D01*
X95824819Y-80095237D02*
X95824819Y-79904761D01*
X95824819Y-79904761D02*
X95777200Y-79809523D01*
X95777200Y-79809523D02*
X95729580Y-79761904D01*
X95729580Y-79761904D02*
X95634342Y-79714285D01*
X95634342Y-79714285D02*
X95396247Y-79714285D01*
X95396247Y-79714285D02*
X95301009Y-79761904D01*
X95301009Y-79761904D02*
X95253390Y-79809523D01*
X95253390Y-79809523D02*
X95205771Y-79904761D01*
X95205771Y-79904761D02*
X95205771Y-80095237D01*
X95205771Y-80095237D02*
X95253390Y-80190475D01*
X95253390Y-80190475D02*
X95301009Y-80238094D01*
X95301009Y-80238094D02*
X95396247Y-80285713D01*
X77833333Y-63609580D02*
X77785714Y-63657200D01*
X77785714Y-63657200D02*
X77642857Y-63704819D01*
X77642857Y-63704819D02*
X77547619Y-63704819D01*
X77547619Y-63704819D02*
X77404762Y-63657200D01*
X77404762Y-63657200D02*
X77309524Y-63561961D01*
X77309524Y-63561961D02*
X77261905Y-63466723D01*
X77261905Y-63466723D02*
X77214286Y-63276247D01*
X77214286Y-63276247D02*
X77214286Y-63133390D01*
X77214286Y-63133390D02*
X77261905Y-62942914D01*
X77261905Y-62942914D02*
X77309524Y-62847676D01*
X77309524Y-62847676D02*
X77404762Y-62752438D01*
X77404762Y-62752438D02*
X77547619Y-62704819D01*
X77547619Y-62704819D02*
X77642857Y-62704819D01*
X77642857Y-62704819D02*
X77785714Y-62752438D01*
X77785714Y-62752438D02*
X77833333Y-62800057D01*
X78166667Y-62704819D02*
X78833333Y-62704819D01*
X78833333Y-62704819D02*
X78404762Y-63704819D01*
X107109580Y-80416666D02*
X107157200Y-80464285D01*
X107157200Y-80464285D02*
X107204819Y-80607142D01*
X107204819Y-80607142D02*
X107204819Y-80702380D01*
X107204819Y-80702380D02*
X107157200Y-80845237D01*
X107157200Y-80845237D02*
X107061961Y-80940475D01*
X107061961Y-80940475D02*
X106966723Y-80988094D01*
X106966723Y-80988094D02*
X106776247Y-81035713D01*
X106776247Y-81035713D02*
X106633390Y-81035713D01*
X106633390Y-81035713D02*
X106442914Y-80988094D01*
X106442914Y-80988094D02*
X106347676Y-80940475D01*
X106347676Y-80940475D02*
X106252438Y-80845237D01*
X106252438Y-80845237D02*
X106204819Y-80702380D01*
X106204819Y-80702380D02*
X106204819Y-80607142D01*
X106204819Y-80607142D02*
X106252438Y-80464285D01*
X106252438Y-80464285D02*
X106300057Y-80416666D01*
X106300057Y-80035713D02*
X106252438Y-79988094D01*
X106252438Y-79988094D02*
X106204819Y-79892856D01*
X106204819Y-79892856D02*
X106204819Y-79654761D01*
X106204819Y-79654761D02*
X106252438Y-79559523D01*
X106252438Y-79559523D02*
X106300057Y-79511904D01*
X106300057Y-79511904D02*
X106395295Y-79464285D01*
X106395295Y-79464285D02*
X106490533Y-79464285D01*
X106490533Y-79464285D02*
X106633390Y-79511904D01*
X106633390Y-79511904D02*
X107204819Y-80083332D01*
X107204819Y-80083332D02*
X107204819Y-79464285D01*
X59583333Y-56109580D02*
X59535714Y-56157200D01*
X59535714Y-56157200D02*
X59392857Y-56204819D01*
X59392857Y-56204819D02*
X59297619Y-56204819D01*
X59297619Y-56204819D02*
X59154762Y-56157200D01*
X59154762Y-56157200D02*
X59059524Y-56061961D01*
X59059524Y-56061961D02*
X59011905Y-55966723D01*
X59011905Y-55966723D02*
X58964286Y-55776247D01*
X58964286Y-55776247D02*
X58964286Y-55633390D01*
X58964286Y-55633390D02*
X59011905Y-55442914D01*
X59011905Y-55442914D02*
X59059524Y-55347676D01*
X59059524Y-55347676D02*
X59154762Y-55252438D01*
X59154762Y-55252438D02*
X59297619Y-55204819D01*
X59297619Y-55204819D02*
X59392857Y-55204819D01*
X59392857Y-55204819D02*
X59535714Y-55252438D01*
X59535714Y-55252438D02*
X59583333Y-55300057D01*
X60488095Y-55204819D02*
X60011905Y-55204819D01*
X60011905Y-55204819D02*
X59964286Y-55681009D01*
X59964286Y-55681009D02*
X60011905Y-55633390D01*
X60011905Y-55633390D02*
X60107143Y-55585771D01*
X60107143Y-55585771D02*
X60345238Y-55585771D01*
X60345238Y-55585771D02*
X60440476Y-55633390D01*
X60440476Y-55633390D02*
X60488095Y-55681009D01*
X60488095Y-55681009D02*
X60535714Y-55776247D01*
X60535714Y-55776247D02*
X60535714Y-56014342D01*
X60535714Y-56014342D02*
X60488095Y-56109580D01*
X60488095Y-56109580D02*
X60440476Y-56157200D01*
X60440476Y-56157200D02*
X60345238Y-56204819D01*
X60345238Y-56204819D02*
X60107143Y-56204819D01*
X60107143Y-56204819D02*
X60011905Y-56157200D01*
X60011905Y-56157200D02*
X59964286Y-56109580D01*
X102324819Y-70666666D02*
X101848628Y-70999999D01*
X102324819Y-71238094D02*
X101324819Y-71238094D01*
X101324819Y-71238094D02*
X101324819Y-70857142D01*
X101324819Y-70857142D02*
X101372438Y-70761904D01*
X101372438Y-70761904D02*
X101420057Y-70714285D01*
X101420057Y-70714285D02*
X101515295Y-70666666D01*
X101515295Y-70666666D02*
X101658152Y-70666666D01*
X101658152Y-70666666D02*
X101753390Y-70714285D01*
X101753390Y-70714285D02*
X101801009Y-70761904D01*
X101801009Y-70761904D02*
X101848628Y-70857142D01*
X101848628Y-70857142D02*
X101848628Y-71238094D01*
X101658152Y-69809523D02*
X102324819Y-69809523D01*
X101277200Y-70047618D02*
X101991485Y-70285713D01*
X101991485Y-70285713D02*
X101991485Y-69666666D01*
X112609580Y-80416666D02*
X112657200Y-80464285D01*
X112657200Y-80464285D02*
X112704819Y-80607142D01*
X112704819Y-80607142D02*
X112704819Y-80702380D01*
X112704819Y-80702380D02*
X112657200Y-80845237D01*
X112657200Y-80845237D02*
X112561961Y-80940475D01*
X112561961Y-80940475D02*
X112466723Y-80988094D01*
X112466723Y-80988094D02*
X112276247Y-81035713D01*
X112276247Y-81035713D02*
X112133390Y-81035713D01*
X112133390Y-81035713D02*
X111942914Y-80988094D01*
X111942914Y-80988094D02*
X111847676Y-80940475D01*
X111847676Y-80940475D02*
X111752438Y-80845237D01*
X111752438Y-80845237D02*
X111704819Y-80702380D01*
X111704819Y-80702380D02*
X111704819Y-80607142D01*
X111704819Y-80607142D02*
X111752438Y-80464285D01*
X111752438Y-80464285D02*
X111800057Y-80416666D01*
X112038152Y-79559523D02*
X112704819Y-79559523D01*
X111657200Y-79797618D02*
X112371485Y-80035713D01*
X112371485Y-80035713D02*
X112371485Y-79416666D01*
X63333333Y-80584819D02*
X63000000Y-80108628D01*
X62761905Y-80584819D02*
X62761905Y-79584819D01*
X62761905Y-79584819D02*
X63142857Y-79584819D01*
X63142857Y-79584819D02*
X63238095Y-79632438D01*
X63238095Y-79632438D02*
X63285714Y-79680057D01*
X63285714Y-79680057D02*
X63333333Y-79775295D01*
X63333333Y-79775295D02*
X63333333Y-79918152D01*
X63333333Y-79918152D02*
X63285714Y-80013390D01*
X63285714Y-80013390D02*
X63238095Y-80061009D01*
X63238095Y-80061009D02*
X63142857Y-80108628D01*
X63142857Y-80108628D02*
X62761905Y-80108628D01*
X64285714Y-80584819D02*
X63714286Y-80584819D01*
X64000000Y-80584819D02*
X64000000Y-79584819D01*
X64000000Y-79584819D02*
X63904762Y-79727676D01*
X63904762Y-79727676D02*
X63809524Y-79822914D01*
X63809524Y-79822914D02*
X63714286Y-79870533D01*
X91166666Y-63349819D02*
X91166666Y-64064104D01*
X91166666Y-64064104D02*
X91119047Y-64206961D01*
X91119047Y-64206961D02*
X91023809Y-64302200D01*
X91023809Y-64302200D02*
X90880952Y-64349819D01*
X90880952Y-64349819D02*
X90785714Y-64349819D01*
X92119047Y-63349819D02*
X91642857Y-63349819D01*
X91642857Y-63349819D02*
X91595238Y-63826009D01*
X91595238Y-63826009D02*
X91642857Y-63778390D01*
X91642857Y-63778390D02*
X91738095Y-63730771D01*
X91738095Y-63730771D02*
X91976190Y-63730771D01*
X91976190Y-63730771D02*
X92071428Y-63778390D01*
X92071428Y-63778390D02*
X92119047Y-63826009D01*
X92119047Y-63826009D02*
X92166666Y-63921247D01*
X92166666Y-63921247D02*
X92166666Y-64159342D01*
X92166666Y-64159342D02*
X92119047Y-64254580D01*
X92119047Y-64254580D02*
X92071428Y-64302200D01*
X92071428Y-64302200D02*
X91976190Y-64349819D01*
X91976190Y-64349819D02*
X91738095Y-64349819D01*
X91738095Y-64349819D02*
X91642857Y-64302200D01*
X91642857Y-64302200D02*
X91595238Y-64254580D01*
X119584819Y-72166666D02*
X119108628Y-72499999D01*
X119584819Y-72738094D02*
X118584819Y-72738094D01*
X118584819Y-72738094D02*
X118584819Y-72357142D01*
X118584819Y-72357142D02*
X118632438Y-72261904D01*
X118632438Y-72261904D02*
X118680057Y-72214285D01*
X118680057Y-72214285D02*
X118775295Y-72166666D01*
X118775295Y-72166666D02*
X118918152Y-72166666D01*
X118918152Y-72166666D02*
X119013390Y-72214285D01*
X119013390Y-72214285D02*
X119061009Y-72261904D01*
X119061009Y-72261904D02*
X119108628Y-72357142D01*
X119108628Y-72357142D02*
X119108628Y-72738094D01*
X118584819Y-71833332D02*
X118584819Y-71166666D01*
X118584819Y-71166666D02*
X119584819Y-71595237D01*
X77761905Y-83424819D02*
X77761905Y-82424819D01*
X77761905Y-82424819D02*
X78000000Y-82424819D01*
X78000000Y-82424819D02*
X78142857Y-82472438D01*
X78142857Y-82472438D02*
X78238095Y-82567676D01*
X78238095Y-82567676D02*
X78285714Y-82662914D01*
X78285714Y-82662914D02*
X78333333Y-82853390D01*
X78333333Y-82853390D02*
X78333333Y-82996247D01*
X78333333Y-82996247D02*
X78285714Y-83186723D01*
X78285714Y-83186723D02*
X78238095Y-83281961D01*
X78238095Y-83281961D02*
X78142857Y-83377200D01*
X78142857Y-83377200D02*
X78000000Y-83424819D01*
X78000000Y-83424819D02*
X77761905Y-83424819D01*
X78714286Y-82520057D02*
X78761905Y-82472438D01*
X78761905Y-82472438D02*
X78857143Y-82424819D01*
X78857143Y-82424819D02*
X79095238Y-82424819D01*
X79095238Y-82424819D02*
X79190476Y-82472438D01*
X79190476Y-82472438D02*
X79238095Y-82520057D01*
X79238095Y-82520057D02*
X79285714Y-82615295D01*
X79285714Y-82615295D02*
X79285714Y-82710533D01*
X79285714Y-82710533D02*
X79238095Y-82853390D01*
X79238095Y-82853390D02*
X78666667Y-83424819D01*
X78666667Y-83424819D02*
X79285714Y-83424819D01*
X82048095Y-82854819D02*
X82048095Y-81854819D01*
X82619523Y-82854819D02*
X82190952Y-82283390D01*
X82619523Y-81854819D02*
X82048095Y-82426247D01*
X77761905Y-88454819D02*
X77761905Y-87454819D01*
X77761905Y-87454819D02*
X78000000Y-87454819D01*
X78000000Y-87454819D02*
X78142857Y-87502438D01*
X78142857Y-87502438D02*
X78238095Y-87597676D01*
X78238095Y-87597676D02*
X78285714Y-87692914D01*
X78285714Y-87692914D02*
X78333333Y-87883390D01*
X78333333Y-87883390D02*
X78333333Y-88026247D01*
X78333333Y-88026247D02*
X78285714Y-88216723D01*
X78285714Y-88216723D02*
X78238095Y-88311961D01*
X78238095Y-88311961D02*
X78142857Y-88407200D01*
X78142857Y-88407200D02*
X78000000Y-88454819D01*
X78000000Y-88454819D02*
X77761905Y-88454819D01*
X79285714Y-88454819D02*
X78714286Y-88454819D01*
X79000000Y-88454819D02*
X79000000Y-87454819D01*
X79000000Y-87454819D02*
X78904762Y-87597676D01*
X78904762Y-87597676D02*
X78809524Y-87692914D01*
X78809524Y-87692914D02*
X78714286Y-87740533D01*
X74428095Y-84054819D02*
X74428095Y-83054819D01*
X74999523Y-84054819D02*
X74570952Y-83483390D01*
X74999523Y-83054819D02*
X74428095Y-83626247D01*
X101609580Y-80416666D02*
X101657200Y-80464285D01*
X101657200Y-80464285D02*
X101704819Y-80607142D01*
X101704819Y-80607142D02*
X101704819Y-80702380D01*
X101704819Y-80702380D02*
X101657200Y-80845237D01*
X101657200Y-80845237D02*
X101561961Y-80940475D01*
X101561961Y-80940475D02*
X101466723Y-80988094D01*
X101466723Y-80988094D02*
X101276247Y-81035713D01*
X101276247Y-81035713D02*
X101133390Y-81035713D01*
X101133390Y-81035713D02*
X100942914Y-80988094D01*
X100942914Y-80988094D02*
X100847676Y-80940475D01*
X100847676Y-80940475D02*
X100752438Y-80845237D01*
X100752438Y-80845237D02*
X100704819Y-80702380D01*
X100704819Y-80702380D02*
X100704819Y-80607142D01*
X100704819Y-80607142D02*
X100752438Y-80464285D01*
X100752438Y-80464285D02*
X100800057Y-80416666D01*
X100704819Y-80083332D02*
X100704819Y-79464285D01*
X100704819Y-79464285D02*
X101085771Y-79797618D01*
X101085771Y-79797618D02*
X101085771Y-79654761D01*
X101085771Y-79654761D02*
X101133390Y-79559523D01*
X101133390Y-79559523D02*
X101181009Y-79511904D01*
X101181009Y-79511904D02*
X101276247Y-79464285D01*
X101276247Y-79464285D02*
X101514342Y-79464285D01*
X101514342Y-79464285D02*
X101609580Y-79511904D01*
X101609580Y-79511904D02*
X101657200Y-79559523D01*
X101657200Y-79559523D02*
X101704819Y-79654761D01*
X101704819Y-79654761D02*
X101704819Y-79940475D01*
X101704819Y-79940475D02*
X101657200Y-80035713D01*
X101657200Y-80035713D02*
X101609580Y-80083332D01*
D11*
%TO.C,R3*%
X70130000Y-55310000D02*
X70130000Y-61850000D01*
X70130000Y-61850000D02*
X72870000Y-61850000D01*
X71500000Y-54540000D02*
X71500000Y-55310000D01*
X71500000Y-62620000D02*
X71500000Y-61850000D01*
X72870000Y-55310000D02*
X70130000Y-55310000D01*
X72870000Y-61850000D02*
X72870000Y-55310000D01*
%TO.C,J1*%
X65670000Y-70005000D02*
X65670000Y-67405000D01*
X68330000Y-67405000D02*
X65670000Y-67405000D01*
X68330000Y-70005000D02*
X65670000Y-70005000D01*
X68330000Y-70005000D02*
X68330000Y-67405000D01*
X68330000Y-71275000D02*
X68330000Y-72605000D01*
X68330000Y-72605000D02*
X67000000Y-72605000D01*
%TO.C,J7*%
X126170000Y-68830000D02*
X126170000Y-67500000D01*
X127500000Y-68830000D02*
X126170000Y-68830000D01*
X128770000Y-66170000D02*
X131370000Y-66170000D01*
X128770000Y-68830000D02*
X128770000Y-66170000D01*
X128770000Y-68830000D02*
X131370000Y-68830000D01*
X131370000Y-68830000D02*
X131370000Y-66170000D01*
%TO.C,LM567CN1*%
X104870000Y-67285000D02*
X104870000Y-69520000D01*
X104870000Y-71520000D02*
X104870000Y-73755000D01*
X104870000Y-73755000D02*
X115150000Y-73755000D01*
X115150000Y-67285000D02*
X104870000Y-67285000D01*
X115150000Y-73755000D02*
X115150000Y-67285000D01*
X104870000Y-69520000D02*
G75*
G02*
X104870000Y-71520000I0J-1000000D01*
G01*
%TO.C,J6*%
X126170000Y-75005000D02*
X126170000Y-72405000D01*
X128830000Y-72405000D02*
X126170000Y-72405000D01*
X128830000Y-75005000D02*
X126170000Y-75005000D01*
X128830000Y-75005000D02*
X128830000Y-72405000D01*
X128830000Y-76275000D02*
X128830000Y-77605000D01*
X128830000Y-77605000D02*
X127500000Y-77605000D01*
%TO.C,J3*%
X78895000Y-54830000D02*
X78895000Y-53500000D01*
X80225000Y-54830000D02*
X78895000Y-54830000D01*
X81495000Y-52170000D02*
X84095000Y-52170000D01*
X81495000Y-54830000D02*
X81495000Y-52170000D01*
X81495000Y-54830000D02*
X84095000Y-54830000D01*
X84095000Y-54830000D02*
X84095000Y-52170000D01*
%TO.C,J2*%
X108170000Y-51895000D02*
X109500000Y-51895000D01*
X108170000Y-53225000D02*
X108170000Y-51895000D01*
X108170000Y-54495000D02*
X108170000Y-57095000D01*
X108170000Y-54495000D02*
X110830000Y-54495000D01*
X108170000Y-57095000D02*
X110830000Y-57095000D01*
X110830000Y-54495000D02*
X110830000Y-57095000D01*
%TO.C,J8*%
X144670000Y-69130000D02*
X146000000Y-69130000D01*
X144670000Y-70460000D02*
X144670000Y-69130000D01*
X144670000Y-71730000D02*
X144670000Y-76870000D01*
X144670000Y-71730000D02*
X147330000Y-71730000D01*
X144670000Y-76870000D02*
X147330000Y-76870000D01*
X147330000Y-71730000D02*
X147330000Y-76870000D01*
%TO.C,J4*%
X120805000Y-84320000D02*
X120805000Y-86980000D01*
X123405000Y-84320000D02*
X120805000Y-84320000D01*
X123405000Y-84320000D02*
X123405000Y-86980000D01*
X123405000Y-86980000D02*
X120805000Y-86980000D01*
X124675000Y-84320000D02*
X126005000Y-84320000D01*
X126005000Y-84320000D02*
X126005000Y-85650000D01*
%TO.C,C6*%
X85880000Y-78330000D02*
X85880000Y-83170000D01*
X88120000Y-78330000D02*
X85880000Y-78330000D01*
X88120000Y-78330000D02*
X88120000Y-83170000D01*
X88120000Y-83170000D02*
X85880000Y-83170000D01*
%TO.C,U1*%
X77850000Y-67245000D02*
X77850000Y-73715000D01*
X77850000Y-73715000D02*
X88130000Y-73715000D01*
X88130000Y-67245000D02*
X77850000Y-67245000D01*
X88130000Y-69480000D02*
X88130000Y-67245000D01*
X88130000Y-73715000D02*
X88130000Y-71480000D01*
X88130000Y-71480000D02*
G75*
G02*
X88130000Y-69480000I0J1000000D01*
G01*
%TO.C,R5*%
X90460000Y-58000000D02*
X91230000Y-58000000D01*
X91230000Y-56630000D02*
X91230000Y-59370000D01*
X91230000Y-59370000D02*
X97770000Y-59370000D01*
X97770000Y-56630000D02*
X91230000Y-56630000D01*
X97770000Y-59370000D02*
X97770000Y-56630000D01*
X98540000Y-58000000D02*
X97770000Y-58000000D01*
%TO.C,MK1*%
X60700000Y-69700000D02*
G75*
G02*
X43700000Y-69700000I-8500000J0D01*
G01*
X43700000Y-69700000D02*
G75*
G02*
X60700000Y-69700000I8500000J0D01*
G01*
%TO.C,R13*%
X126730000Y-53230000D02*
X126730000Y-59770000D01*
X126730000Y-59770000D02*
X129470000Y-59770000D01*
X128100000Y-52460000D02*
X128100000Y-53230000D01*
X128100000Y-60540000D02*
X128100000Y-59770000D01*
X129470000Y-53230000D02*
X126730000Y-53230000D01*
X129470000Y-59770000D02*
X129470000Y-53230000D01*
%TO.C,J10*%
X144670000Y-51050000D02*
X146000000Y-51050000D01*
X144670000Y-52380000D02*
X144670000Y-51050000D01*
X144670000Y-53650000D02*
X144670000Y-66410000D01*
X144670000Y-53650000D02*
X147330000Y-53650000D01*
X144670000Y-66410000D02*
X147330000Y-66410000D01*
X147330000Y-53650000D02*
X147330000Y-66410000D01*
%TO.C,R12*%
X131230000Y-53230000D02*
X131230000Y-59770000D01*
X131230000Y-59770000D02*
X133970000Y-59770000D01*
X132600000Y-52460000D02*
X132600000Y-53230000D01*
X132600000Y-60540000D02*
X132600000Y-59770000D01*
X133970000Y-53230000D02*
X131230000Y-53230000D01*
X133970000Y-59770000D02*
X133970000Y-53230000D01*
%TO.C,C1*%
X107830000Y-63120000D02*
X107830000Y-60880000D01*
X112670000Y-60880000D02*
X107830000Y-60880000D01*
X112670000Y-63120000D02*
X107830000Y-63120000D01*
X112670000Y-63120000D02*
X112670000Y-60880000D01*
%TO.C,R2*%
X90460000Y-53000000D02*
X91230000Y-53000000D01*
X91230000Y-51630000D02*
X91230000Y-54370000D01*
X91230000Y-54370000D02*
X97770000Y-54370000D01*
X97770000Y-51630000D02*
X91230000Y-51630000D01*
X97770000Y-54370000D02*
X97770000Y-51630000D01*
X98540000Y-53000000D02*
X97770000Y-53000000D01*
%TO.C,J9*%
X144670000Y-79630000D02*
X146000000Y-79630000D01*
X144670000Y-80960000D02*
X144670000Y-79630000D01*
X144670000Y-82230000D02*
X144670000Y-87370000D01*
X144670000Y-82230000D02*
X147330000Y-82230000D01*
X144670000Y-87370000D02*
X147330000Y-87370000D01*
X147330000Y-82230000D02*
X147330000Y-87370000D01*
%TO.C,R11*%
X135730000Y-53230000D02*
X135730000Y-59770000D01*
X135730000Y-59770000D02*
X138470000Y-59770000D01*
X137100000Y-52460000D02*
X137100000Y-53230000D01*
X137100000Y-60540000D02*
X137100000Y-59770000D01*
X138470000Y-53230000D02*
X135730000Y-53230000D01*
X138470000Y-59770000D02*
X138470000Y-53230000D01*
%TO.C,C9*%
X132420000Y-75915113D02*
X137580000Y-75915113D01*
X132420000Y-75955113D02*
X137580000Y-75955113D01*
X132421000Y-75875113D02*
X137579000Y-75875113D01*
X132422000Y-75835113D02*
X137578000Y-75835113D01*
X132424000Y-75795113D02*
X137576000Y-75795113D01*
X132427000Y-75755113D02*
X137573000Y-75755113D01*
X132431000Y-75715113D02*
X133960000Y-75715113D01*
X132435000Y-75675113D02*
X133960000Y-75675113D01*
X132439000Y-75635113D02*
X133960000Y-75635113D01*
X132444000Y-75595113D02*
X133960000Y-75595113D01*
X132450000Y-75555113D02*
X133960000Y-75555113D01*
X132457000Y-75515113D02*
X133960000Y-75515113D01*
X132464000Y-75475113D02*
X133960000Y-75475113D01*
X132472000Y-75435113D02*
X133960000Y-75435113D01*
X132480000Y-75395113D02*
X133960000Y-75395113D01*
X132489000Y-75355113D02*
X133960000Y-75355113D01*
X132499000Y-75315113D02*
X133960000Y-75315113D01*
X132509000Y-75275113D02*
X133960000Y-75275113D01*
X132520000Y-75234113D02*
X133960000Y-75234113D01*
X132532000Y-75194113D02*
X133960000Y-75194113D01*
X132545000Y-75154113D02*
X133960000Y-75154113D01*
X132558000Y-75114113D02*
X133960000Y-75114113D01*
X132572000Y-75074113D02*
X133960000Y-75074113D01*
X132586000Y-75034113D02*
X133960000Y-75034113D01*
X132602000Y-74994113D02*
X133960000Y-74994113D01*
X132618000Y-74954113D02*
X133960000Y-74954113D01*
X132635000Y-74914113D02*
X133960000Y-74914113D01*
X132652000Y-74874113D02*
X133960000Y-74874113D01*
X132671000Y-74834113D02*
X133960000Y-74834113D01*
X132690000Y-74794113D02*
X133960000Y-74794113D01*
X132710000Y-74754113D02*
X133960000Y-74754113D01*
X132732000Y-74714113D02*
X133960000Y-74714113D01*
X132753000Y-74674113D02*
X133960000Y-74674113D01*
X132776000Y-74634113D02*
X133960000Y-74634113D01*
X132800000Y-74594113D02*
X133960000Y-74594113D01*
X132825000Y-74554113D02*
X133960000Y-74554113D01*
X132851000Y-74514113D02*
X133960000Y-74514113D01*
X132878000Y-74474113D02*
X133960000Y-74474113D01*
X132905000Y-74434113D02*
X133960000Y-74434113D01*
X132935000Y-74394113D02*
X133960000Y-74394113D01*
X132965000Y-74354113D02*
X133960000Y-74354113D01*
X132996000Y-74314113D02*
X133960000Y-74314113D01*
X133029000Y-74274113D02*
X133960000Y-74274113D01*
X133063000Y-74234113D02*
X133960000Y-74234113D01*
X133099000Y-74194113D02*
X133960000Y-74194113D01*
X133136000Y-74154113D02*
X133960000Y-74154113D01*
X133174000Y-74114113D02*
X133960000Y-74114113D01*
X133215000Y-74074113D02*
X133960000Y-74074113D01*
X133257000Y-74034113D02*
X133960000Y-74034113D01*
X133275000Y-78509888D02*
X133775000Y-78509888D01*
X133301000Y-73994113D02*
X133960000Y-73994113D01*
X133347000Y-73954113D02*
X133960000Y-73954113D01*
X133395000Y-73914113D02*
X133960000Y-73914113D01*
X133446000Y-73874113D02*
X133960000Y-73874113D01*
X133500000Y-73834113D02*
X133960000Y-73834113D01*
X133525000Y-78759888D02*
X133525000Y-78259888D01*
X133557000Y-73794113D02*
X133960000Y-73794113D01*
X133617000Y-73754113D02*
X133960000Y-73754113D01*
X133681000Y-73714113D02*
X133960000Y-73714113D01*
X133749000Y-73674113D02*
X133960000Y-73674113D01*
X133822000Y-73634113D02*
X136178000Y-73634113D01*
X133902000Y-73594113D02*
X136098000Y-73594113D01*
X133989000Y-73554113D02*
X136011000Y-73554113D01*
X134085000Y-73514113D02*
X135915000Y-73514113D01*
X134195000Y-73474113D02*
X135805000Y-73474113D01*
X134323000Y-73434113D02*
X135677000Y-73434113D01*
X134482000Y-73394113D02*
X135518000Y-73394113D01*
X134716000Y-73354113D02*
X135284000Y-73354113D01*
X136040000Y-73674113D02*
X136251000Y-73674113D01*
X136040000Y-73714113D02*
X136319000Y-73714113D01*
X136040000Y-73754113D02*
X136383000Y-73754113D01*
X136040000Y-73794113D02*
X136443000Y-73794113D01*
X136040000Y-73834113D02*
X136500000Y-73834113D01*
X136040000Y-73874113D02*
X136554000Y-73874113D01*
X136040000Y-73914113D02*
X136605000Y-73914113D01*
X136040000Y-73954113D02*
X136653000Y-73954113D01*
X136040000Y-73994113D02*
X136699000Y-73994113D01*
X136040000Y-74034113D02*
X136743000Y-74034113D01*
X136040000Y-74074113D02*
X136785000Y-74074113D01*
X136040000Y-74114113D02*
X136826000Y-74114113D01*
X136040000Y-74154113D02*
X136864000Y-74154113D01*
X136040000Y-74194113D02*
X136901000Y-74194113D01*
X136040000Y-74234113D02*
X136937000Y-74234113D01*
X136040000Y-74274113D02*
X136971000Y-74274113D01*
X136040000Y-74314113D02*
X137004000Y-74314113D01*
X136040000Y-74354113D02*
X137035000Y-74354113D01*
X136040000Y-74394113D02*
X137065000Y-74394113D01*
X136040000Y-74434113D02*
X137095000Y-74434113D01*
X136040000Y-74474113D02*
X137122000Y-74474113D01*
X136040000Y-74514113D02*
X137149000Y-74514113D01*
X136040000Y-74554113D02*
X137175000Y-74554113D01*
X136040000Y-74594113D02*
X137200000Y-74594113D01*
X136040000Y-74634113D02*
X137224000Y-74634113D01*
X136040000Y-74674113D02*
X137247000Y-74674113D01*
X136040000Y-74714113D02*
X137268000Y-74714113D01*
X136040000Y-74754113D02*
X137290000Y-74754113D01*
X136040000Y-74794113D02*
X137310000Y-74794113D01*
X136040000Y-74834113D02*
X137329000Y-74834113D01*
X136040000Y-74874113D02*
X137348000Y-74874113D01*
X136040000Y-74914113D02*
X137365000Y-74914113D01*
X136040000Y-74954113D02*
X137382000Y-74954113D01*
X136040000Y-74994113D02*
X137398000Y-74994113D01*
X136040000Y-75034113D02*
X137414000Y-75034113D01*
X136040000Y-75074113D02*
X137428000Y-75074113D01*
X136040000Y-75114113D02*
X137442000Y-75114113D01*
X136040000Y-75154113D02*
X137455000Y-75154113D01*
X136040000Y-75194113D02*
X137468000Y-75194113D01*
X136040000Y-75234113D02*
X137480000Y-75234113D01*
X136040000Y-75275113D02*
X137491000Y-75275113D01*
X136040000Y-75315113D02*
X137501000Y-75315113D01*
X136040000Y-75355113D02*
X137511000Y-75355113D01*
X136040000Y-75395113D02*
X137520000Y-75395113D01*
X136040000Y-75435113D02*
X137528000Y-75435113D01*
X136040000Y-75475113D02*
X137536000Y-75475113D01*
X136040000Y-75515113D02*
X137543000Y-75515113D01*
X136040000Y-75555113D02*
X137550000Y-75555113D01*
X136040000Y-75595113D02*
X137556000Y-75595113D01*
X136040000Y-75635113D02*
X137561000Y-75635113D01*
X136040000Y-75675113D02*
X137565000Y-75675113D01*
X136040000Y-75715113D02*
X137569000Y-75715113D01*
X137620000Y-75955113D02*
G75*
G02*
X132380000Y-75955113I-2620000J0D01*
G01*
X132380000Y-75955113D02*
G75*
G02*
X137620000Y-75955113I2620000J0D01*
G01*
%TO.C,C8*%
X132420000Y-82915113D02*
X137580000Y-82915113D01*
X132420000Y-82955113D02*
X137580000Y-82955113D01*
X132421000Y-82875113D02*
X137579000Y-82875113D01*
X132422000Y-82835113D02*
X137578000Y-82835113D01*
X132424000Y-82795113D02*
X137576000Y-82795113D01*
X132427000Y-82755113D02*
X137573000Y-82755113D01*
X132431000Y-82715113D02*
X133960000Y-82715113D01*
X132435000Y-82675113D02*
X133960000Y-82675113D01*
X132439000Y-82635113D02*
X133960000Y-82635113D01*
X132444000Y-82595113D02*
X133960000Y-82595113D01*
X132450000Y-82555113D02*
X133960000Y-82555113D01*
X132457000Y-82515113D02*
X133960000Y-82515113D01*
X132464000Y-82475113D02*
X133960000Y-82475113D01*
X132472000Y-82435113D02*
X133960000Y-82435113D01*
X132480000Y-82395113D02*
X133960000Y-82395113D01*
X132489000Y-82355113D02*
X133960000Y-82355113D01*
X132499000Y-82315113D02*
X133960000Y-82315113D01*
X132509000Y-82275113D02*
X133960000Y-82275113D01*
X132520000Y-82234113D02*
X133960000Y-82234113D01*
X132532000Y-82194113D02*
X133960000Y-82194113D01*
X132545000Y-82154113D02*
X133960000Y-82154113D01*
X132558000Y-82114113D02*
X133960000Y-82114113D01*
X132572000Y-82074113D02*
X133960000Y-82074113D01*
X132586000Y-82034113D02*
X133960000Y-82034113D01*
X132602000Y-81994113D02*
X133960000Y-81994113D01*
X132618000Y-81954113D02*
X133960000Y-81954113D01*
X132635000Y-81914113D02*
X133960000Y-81914113D01*
X132652000Y-81874113D02*
X133960000Y-81874113D01*
X132671000Y-81834113D02*
X133960000Y-81834113D01*
X132690000Y-81794113D02*
X133960000Y-81794113D01*
X132710000Y-81754113D02*
X133960000Y-81754113D01*
X132732000Y-81714113D02*
X133960000Y-81714113D01*
X132753000Y-81674113D02*
X133960000Y-81674113D01*
X132776000Y-81634113D02*
X133960000Y-81634113D01*
X132800000Y-81594113D02*
X133960000Y-81594113D01*
X132825000Y-81554113D02*
X133960000Y-81554113D01*
X132851000Y-81514113D02*
X133960000Y-81514113D01*
X132878000Y-81474113D02*
X133960000Y-81474113D01*
X132905000Y-81434113D02*
X133960000Y-81434113D01*
X132935000Y-81394113D02*
X133960000Y-81394113D01*
X132965000Y-81354113D02*
X133960000Y-81354113D01*
X132996000Y-81314113D02*
X133960000Y-81314113D01*
X133029000Y-81274113D02*
X133960000Y-81274113D01*
X133063000Y-81234113D02*
X133960000Y-81234113D01*
X133099000Y-81194113D02*
X133960000Y-81194113D01*
X133136000Y-81154113D02*
X133960000Y-81154113D01*
X133174000Y-81114113D02*
X133960000Y-81114113D01*
X133215000Y-81074113D02*
X133960000Y-81074113D01*
X133257000Y-81034113D02*
X133960000Y-81034113D01*
X133275000Y-85509888D02*
X133775000Y-85509888D01*
X133301000Y-80994113D02*
X133960000Y-80994113D01*
X133347000Y-80954113D02*
X133960000Y-80954113D01*
X133395000Y-80914113D02*
X133960000Y-80914113D01*
X133446000Y-80874113D02*
X133960000Y-80874113D01*
X133500000Y-80834113D02*
X133960000Y-80834113D01*
X133525000Y-85759888D02*
X133525000Y-85259888D01*
X133557000Y-80794113D02*
X133960000Y-80794113D01*
X133617000Y-80754113D02*
X133960000Y-80754113D01*
X133681000Y-80714113D02*
X133960000Y-80714113D01*
X133749000Y-80674113D02*
X133960000Y-80674113D01*
X133822000Y-80634113D02*
X136178000Y-80634113D01*
X133902000Y-80594113D02*
X136098000Y-80594113D01*
X133989000Y-80554113D02*
X136011000Y-80554113D01*
X134085000Y-80514113D02*
X135915000Y-80514113D01*
X134195000Y-80474113D02*
X135805000Y-80474113D01*
X134323000Y-80434113D02*
X135677000Y-80434113D01*
X134482000Y-80394113D02*
X135518000Y-80394113D01*
X134716000Y-80354113D02*
X135284000Y-80354113D01*
X136040000Y-80674113D02*
X136251000Y-80674113D01*
X136040000Y-80714113D02*
X136319000Y-80714113D01*
X136040000Y-80754113D02*
X136383000Y-80754113D01*
X136040000Y-80794113D02*
X136443000Y-80794113D01*
X136040000Y-80834113D02*
X136500000Y-80834113D01*
X136040000Y-80874113D02*
X136554000Y-80874113D01*
X136040000Y-80914113D02*
X136605000Y-80914113D01*
X136040000Y-80954113D02*
X136653000Y-80954113D01*
X136040000Y-80994113D02*
X136699000Y-80994113D01*
X136040000Y-81034113D02*
X136743000Y-81034113D01*
X136040000Y-81074113D02*
X136785000Y-81074113D01*
X136040000Y-81114113D02*
X136826000Y-81114113D01*
X136040000Y-81154113D02*
X136864000Y-81154113D01*
X136040000Y-81194113D02*
X136901000Y-81194113D01*
X136040000Y-81234113D02*
X136937000Y-81234113D01*
X136040000Y-81274113D02*
X136971000Y-81274113D01*
X136040000Y-81314113D02*
X137004000Y-81314113D01*
X136040000Y-81354113D02*
X137035000Y-81354113D01*
X136040000Y-81394113D02*
X137065000Y-81394113D01*
X136040000Y-81434113D02*
X137095000Y-81434113D01*
X136040000Y-81474113D02*
X137122000Y-81474113D01*
X136040000Y-81514113D02*
X137149000Y-81514113D01*
X136040000Y-81554113D02*
X137175000Y-81554113D01*
X136040000Y-81594113D02*
X137200000Y-81594113D01*
X136040000Y-81634113D02*
X137224000Y-81634113D01*
X136040000Y-81674113D02*
X137247000Y-81674113D01*
X136040000Y-81714113D02*
X137268000Y-81714113D01*
X136040000Y-81754113D02*
X137290000Y-81754113D01*
X136040000Y-81794113D02*
X137310000Y-81794113D01*
X136040000Y-81834113D02*
X137329000Y-81834113D01*
X136040000Y-81874113D02*
X137348000Y-81874113D01*
X136040000Y-81914113D02*
X137365000Y-81914113D01*
X136040000Y-81954113D02*
X137382000Y-81954113D01*
X136040000Y-81994113D02*
X137398000Y-81994113D01*
X136040000Y-82034113D02*
X137414000Y-82034113D01*
X136040000Y-82074113D02*
X137428000Y-82074113D01*
X136040000Y-82114113D02*
X137442000Y-82114113D01*
X136040000Y-82154113D02*
X137455000Y-82154113D01*
X136040000Y-82194113D02*
X137468000Y-82194113D01*
X136040000Y-82234113D02*
X137480000Y-82234113D01*
X136040000Y-82275113D02*
X137491000Y-82275113D01*
X136040000Y-82315113D02*
X137501000Y-82315113D01*
X136040000Y-82355113D02*
X137511000Y-82355113D01*
X136040000Y-82395113D02*
X137520000Y-82395113D01*
X136040000Y-82435113D02*
X137528000Y-82435113D01*
X136040000Y-82475113D02*
X137536000Y-82475113D01*
X136040000Y-82515113D02*
X137543000Y-82515113D01*
X136040000Y-82555113D02*
X137550000Y-82555113D01*
X136040000Y-82595113D02*
X137556000Y-82595113D01*
X136040000Y-82635113D02*
X137561000Y-82635113D01*
X136040000Y-82675113D02*
X137565000Y-82675113D01*
X136040000Y-82715113D02*
X137569000Y-82715113D01*
X137620000Y-82955113D02*
G75*
G02*
X132380000Y-82955113I-2620000J0D01*
G01*
X132380000Y-82955113D02*
G75*
G02*
X137620000Y-82955113I2620000J0D01*
G01*
%TO.C,R14*%
X122130000Y-53230000D02*
X122130000Y-59770000D01*
X122130000Y-59770000D02*
X124870000Y-59770000D01*
X123500000Y-52460000D02*
X123500000Y-53230000D01*
X123500000Y-60540000D02*
X123500000Y-59770000D01*
X124870000Y-53230000D02*
X122130000Y-53230000D01*
X124870000Y-59770000D02*
X124870000Y-53230000D01*
%TO.C,R6*%
X91630000Y-77230000D02*
X91630000Y-83770000D01*
X91630000Y-83770000D02*
X94370000Y-83770000D01*
X93000000Y-76460000D02*
X93000000Y-77230000D01*
X93000000Y-84540000D02*
X93000000Y-83770000D01*
X94370000Y-77230000D02*
X91630000Y-77230000D01*
X94370000Y-83770000D02*
X94370000Y-77230000D01*
%TO.C,C7*%
X75580000Y-62120000D02*
X75580000Y-59880000D01*
X80420000Y-59880000D02*
X75580000Y-59880000D01*
X80420000Y-62120000D02*
X75580000Y-62120000D01*
X80420000Y-62120000D02*
X80420000Y-59880000D01*
%TO.C,C2*%
X107880000Y-77830000D02*
X110120000Y-77830000D01*
X107880000Y-82670000D02*
X107880000Y-77830000D01*
X107880000Y-82670000D02*
X110120000Y-82670000D01*
X110120000Y-82670000D02*
X110120000Y-77830000D01*
%TO.C,C5*%
X57330000Y-56880000D02*
X57330000Y-59120000D01*
X57330000Y-56880000D02*
X62170000Y-56880000D01*
X57330000Y-59120000D02*
X62170000Y-59120000D01*
X62170000Y-56880000D02*
X62170000Y-59120000D01*
%TO.C,R4*%
X98130000Y-67230000D02*
X98130000Y-73770000D01*
X98130000Y-73770000D02*
X100870000Y-73770000D01*
X99500000Y-66460000D02*
X99500000Y-67230000D01*
X99500000Y-74540000D02*
X99500000Y-73770000D01*
X100870000Y-67230000D02*
X98130000Y-67230000D01*
X100870000Y-73770000D02*
X100870000Y-67230000D01*
%TO.C,C4*%
X113380000Y-77830000D02*
X115620000Y-77830000D01*
X113380000Y-82670000D02*
X113380000Y-77830000D01*
X113380000Y-82670000D02*
X115620000Y-82670000D01*
X115620000Y-82670000D02*
X115620000Y-77830000D01*
%TO.C,R1*%
X59460000Y-82500000D02*
X60230000Y-82500000D01*
X60230000Y-81130000D02*
X60230000Y-83870000D01*
X60230000Y-83870000D02*
X66770000Y-83870000D01*
X66770000Y-81130000D02*
X60230000Y-81130000D01*
X66770000Y-83870000D02*
X66770000Y-81130000D01*
X67540000Y-82500000D02*
X66770000Y-82500000D01*
%TO.C,J5*%
X90170000Y-64895000D02*
X91500000Y-64895000D01*
X90170000Y-66225000D02*
X90170000Y-64895000D01*
X90170000Y-67495000D02*
X90170000Y-70095000D01*
X90170000Y-67495000D02*
X92830000Y-67495000D01*
X90170000Y-70095000D02*
X92830000Y-70095000D01*
X92830000Y-67495000D02*
X92830000Y-70095000D01*
%TO.C,R7*%
X120130000Y-68730000D02*
X120130000Y-75270000D01*
X120130000Y-75270000D02*
X122870000Y-75270000D01*
X121500000Y-67960000D02*
X121500000Y-68730000D01*
X121500000Y-76040000D02*
X121500000Y-75270000D01*
X122870000Y-68730000D02*
X120130000Y-68730000D01*
X122870000Y-75270000D02*
X122870000Y-68730000D01*
%TO.C,D2*%
X75780000Y-79030000D02*
X75780000Y-79360000D01*
X75780000Y-81970000D02*
X75780000Y-81640000D01*
X80200000Y-81970000D02*
X80200000Y-79030000D01*
X80320000Y-81970000D02*
X80320000Y-79030000D01*
X80440000Y-81970000D02*
X80440000Y-79030000D01*
X81220000Y-79030000D02*
X75780000Y-79030000D01*
X81220000Y-79360000D02*
X81220000Y-79030000D01*
X81220000Y-81640000D02*
X81220000Y-81970000D01*
X81220000Y-81970000D02*
X75780000Y-81970000D01*
%TO.C,D1*%
X75780000Y-84030000D02*
X81220000Y-84030000D01*
X75780000Y-84360000D02*
X75780000Y-84030000D01*
X75780000Y-86640000D02*
X75780000Y-86970000D01*
X75780000Y-86970000D02*
X81220000Y-86970000D01*
X76560000Y-84030000D02*
X76560000Y-86970000D01*
X76680000Y-84030000D02*
X76680000Y-86970000D01*
X76800000Y-84030000D02*
X76800000Y-86970000D01*
X81220000Y-84030000D02*
X81220000Y-84360000D01*
X81220000Y-86970000D02*
X81220000Y-86640000D01*
%TO.C,C3*%
X102380000Y-77830000D02*
X104620000Y-77830000D01*
X102380000Y-82670000D02*
X102380000Y-77830000D01*
X102380000Y-82670000D02*
X104620000Y-82670000D01*
X104620000Y-82670000D02*
X104620000Y-77830000D01*
%TD*%
M02*
