%TF.GenerationSoftware,KiCad,Pcbnew,9.0.0*%
%TF.CreationDate,2025-02-27T14:13:55+01:00*%
%TF.ProjectId,Second,5365636f-6e64-42e6-9b69-6361645f7063,rev?*%
%TF.SameCoordinates,Original*%
%TF.FileFunction,Copper,L1,Top*%
%TF.FilePolarity,Positive*%
%FSLAX46Y46*%
G04 Gerber Fmt 4.6, Leading zero omitted, Abs format (unit mm)*
G04 Created by KiCad (PCBNEW 9.0.0) date 2025-02-27 14:13:55*
%MOMM*%
%LPD*%
G01*
G04 APERTURE LIST*
%TA.AperFunction,ComponentPad*%
%ADD10C,1.600000*%
%TD*%
%TA.AperFunction,ComponentPad*%
%ADD11O,1.600000X1.600000*%
%TD*%
%TA.AperFunction,ComponentPad*%
%ADD12R,1.700000X1.700000*%
%TD*%
%TA.AperFunction,ComponentPad*%
%ADD13O,1.700000X1.700000*%
%TD*%
%TA.AperFunction,ComponentPad*%
%ADD14R,1.600000X1.600000*%
%TD*%
%TA.AperFunction,ComponentPad*%
%ADD15C,1.400000*%
%TD*%
%TA.AperFunction,ComponentPad*%
%ADD16R,2.000000X2.000000*%
%TD*%
%TA.AperFunction,ComponentPad*%
%ADD17C,2.000000*%
%TD*%
%TA.AperFunction,ComponentPad*%
%ADD18R,1.800000X1.800000*%
%TD*%
%TA.AperFunction,ComponentPad*%
%ADD19O,1.800000X1.800000*%
%TD*%
%TA.AperFunction,ViaPad*%
%ADD20C,1.400000*%
%TD*%
%TA.AperFunction,Conductor*%
%ADD21C,0.400000*%
%TD*%
G04 APERTURE END LIST*
D10*
%TO.P,R3,1*%
%TO.N,GND*%
X71500000Y-63660000D03*
D11*
%TO.P,R3,2*%
%TO.N,Net-(J3-Pin_1)*%
X71500000Y-53500000D03*
%TD*%
D12*
%TO.P,J1,1,Pin_1*%
%TO.N,Net-(J1-Pin_1)*%
X67000000Y-71275000D03*
D13*
%TO.P,J1,2,Pin_2*%
%TO.N,Net-(J1-Pin_2)*%
X67000000Y-68735000D03*
%TD*%
D12*
%TO.P,J7,1,Pin_1*%
%TO.N,Net-(J7-Pin_1)*%
X127500000Y-67500000D03*
D13*
%TO.P,J7,2,Pin_2*%
%TO.N,State*%
X130040000Y-67500000D03*
%TD*%
D14*
%TO.P,LM567CN1,1,Output_Filter*%
%TO.N,Net-(LM567CN1-Output_Filter)*%
X106200000Y-75600000D03*
D11*
%TO.P,LM567CN1,2,Loop_Filter*%
%TO.N,Net-(LM567CN1-Loop_Filter)*%
X108740000Y-75600000D03*
%TO.P,LM567CN1,3,Signal*%
%TO.N,Signal*%
X111280000Y-75600000D03*
%TO.P,LM567CN1,4,V+*%
%TO.N,+5V*%
X113820000Y-75600000D03*
%TO.P,LM567CN1,5,Timing_Resistor*%
%TO.N,Net-(LM567CN1-Timing_Resistor)*%
X113820000Y-65440000D03*
%TO.P,LM567CN1,6,Timing_Capacitor*%
%TO.N,Net-(LM567CN1-Timing_Capacitor)*%
X111280000Y-65440000D03*
%TO.P,LM567CN1,7,GND*%
%TO.N,GND*%
X108740000Y-65440000D03*
%TO.P,LM567CN1,8,Output*%
%TO.N,Net-(J5-Pin_2)*%
X106200000Y-65440000D03*
%TD*%
D12*
%TO.P,J6,1,Pin_1*%
%TO.N,Net-(J6-Pin_1)*%
X127500000Y-76275000D03*
D13*
%TO.P,J6,2,Pin_2*%
%TO.N,State*%
X127500000Y-73735000D03*
%TD*%
D12*
%TO.P,J3,1,Pin_1*%
%TO.N,Net-(J3-Pin_1)*%
X80225000Y-53500000D03*
D13*
%TO.P,J3,2,Pin_2*%
%TO.N,Net-(J2-Pin_2)*%
X82765000Y-53500000D03*
%TD*%
D12*
%TO.P,J2,1,Pin_1*%
%TO.N,Net-(D1-A)*%
X109500000Y-53225000D03*
D13*
%TO.P,J2,2,Pin_2*%
%TO.N,Net-(J2-Pin_2)*%
X109500000Y-55765000D03*
%TD*%
D12*
%TO.P,J8,1,Pin_1*%
%TO.N,GND*%
X146000000Y-70460000D03*
D13*
%TO.P,J8,2,Pin_2*%
%TO.N,+5V*%
X146000000Y-73000000D03*
%TO.P,J8,3,Pin_3*%
%TO.N,-5V*%
X146000000Y-75540000D03*
%TD*%
D12*
%TO.P,J4,1,Pin_1*%
%TO.N,Net-(D1-A)*%
X124675000Y-85650000D03*
D13*
%TO.P,J4,2,Pin_2*%
%TO.N,Signal*%
X122135000Y-85650000D03*
%TD*%
D15*
%TO.P,C6,1*%
%TO.N,+5V*%
X87000000Y-79500000D03*
%TO.P,C6,2*%
%TO.N,GND*%
X87000000Y-82000000D03*
%TD*%
D14*
%TO.P,U1,1*%
%TO.N,Net-(D1-A)*%
X86800000Y-65400000D03*
D11*
%TO.P,U1,2,-*%
%TO.N,Net-(J2-Pin_2)*%
X84260000Y-65400000D03*
%TO.P,U1,3,+*%
%TO.N,Net-(U1A-+)*%
X81720000Y-65400000D03*
%TO.P,U1,4,V-*%
%TO.N,-5V*%
X79180000Y-65400000D03*
%TO.P,U1,5,+*%
%TO.N,Net-(J5-Pin_2)*%
X79180000Y-75560000D03*
%TO.P,U1,6,-*%
%TO.N,Net-(J6-Pin_1)*%
X81720000Y-75560000D03*
%TO.P,U1,7*%
X84260000Y-75560000D03*
%TO.P,U1,8,V+*%
%TO.N,+5V*%
X86800000Y-75560000D03*
%TD*%
D10*
%TO.P,R5,1*%
%TO.N,Net-(J5-Pin_1)*%
X89420000Y-58000000D03*
D11*
%TO.P,R5,2*%
%TO.N,GND*%
X99580000Y-58000000D03*
%TD*%
D16*
%TO.P,MK1,1,-*%
%TO.N,Net-(J1-Pin_1)*%
X52200000Y-74700000D03*
D17*
%TO.P,MK1,2,+*%
%TO.N,Net-(J1-Pin_2)*%
X52200000Y-64700000D03*
%TD*%
D10*
%TO.P,R13,1*%
%TO.N,Net-(LM567CN1-Timing_Capacitor)*%
X128100000Y-51420000D03*
D11*
%TO.P,R13,2*%
%TO.N,Net-(LM567CN1-Timing_Resistor)*%
X128100000Y-61580000D03*
%TD*%
D12*
%TO.P,J10,1,Pin_1*%
%TO.N,GND*%
X146000000Y-52380000D03*
D13*
%TO.P,J10,2,Pin_2*%
X146000000Y-54920000D03*
%TO.P,J10,3,Pin_3*%
%TO.N,+5V*%
X146000000Y-57460000D03*
%TO.P,J10,4,Pin_4*%
%TO.N,-5V*%
X146000000Y-60000000D03*
%TO.P,J10,5,Pin_5*%
%TO.N,Signal*%
X146000000Y-62540000D03*
%TO.P,J10,6,Pin_6*%
%TO.N,State*%
X146000000Y-65080000D03*
%TD*%
D10*
%TO.P,R12,1*%
%TO.N,Net-(LM567CN1-Timing_Capacitor)*%
X132600000Y-51420000D03*
D11*
%TO.P,R12,2*%
%TO.N,Net-(LM567CN1-Timing_Resistor)*%
X132600000Y-61580000D03*
%TD*%
D15*
%TO.P,C1,1*%
%TO.N,Net-(LM567CN1-Timing_Capacitor)*%
X111500000Y-62000000D03*
%TO.P,C1,2*%
%TO.N,GND*%
X109000000Y-62000000D03*
%TD*%
D10*
%TO.P,R2,1*%
%TO.N,Net-(D1-A)*%
X99580000Y-53000000D03*
D11*
%TO.P,R2,2*%
%TO.N,Net-(J2-Pin_2)*%
X89420000Y-53000000D03*
%TD*%
D12*
%TO.P,J9,1,Pin_1*%
%TO.N,GND*%
X146000000Y-80960000D03*
D13*
%TO.P,J9,2,Pin_2*%
%TO.N,+5V*%
X146000000Y-83500000D03*
%TO.P,J9,3,Pin_3*%
%TO.N,-5V*%
X146000000Y-86040000D03*
%TD*%
D10*
%TO.P,R11,1*%
%TO.N,Net-(LM567CN1-Timing_Capacitor)*%
X137100000Y-51420000D03*
D11*
%TO.P,R11,2*%
%TO.N,Net-(LM567CN1-Timing_Resistor)*%
X137100000Y-61580000D03*
%TD*%
D14*
%TO.P,C9,1*%
%TO.N,GND*%
X135000000Y-77205113D03*
D10*
%TO.P,C9,2*%
%TO.N,-5V*%
X135000000Y-74705113D03*
%TD*%
D14*
%TO.P,C8,1*%
%TO.N,+5V*%
X135000000Y-84205113D03*
D10*
%TO.P,C8,2*%
%TO.N,GND*%
X135000000Y-81705113D03*
%TD*%
%TO.P,R14,1*%
%TO.N,Net-(LM567CN1-Timing_Capacitor)*%
X123500000Y-51420000D03*
D11*
%TO.P,R14,2*%
%TO.N,Net-(LM567CN1-Timing_Resistor)*%
X123500000Y-61580000D03*
%TD*%
D10*
%TO.P,R6,1*%
%TO.N,Net-(J6-Pin_1)*%
X93000000Y-75420000D03*
D11*
%TO.P,R6,2*%
%TO.N,State*%
X93000000Y-85580000D03*
%TD*%
D15*
%TO.P,C7,1*%
%TO.N,-5V*%
X79250000Y-61000000D03*
%TO.P,C7,2*%
%TO.N,GND*%
X76750000Y-61000000D03*
%TD*%
%TO.P,C2,1*%
%TO.N,GND*%
X109000000Y-81500000D03*
%TO.P,C2,2*%
%TO.N,Net-(LM567CN1-Loop_Filter)*%
X109000000Y-79000000D03*
%TD*%
%TO.P,C5,1*%
%TO.N,Net-(J1-Pin_2)*%
X58500000Y-58000000D03*
%TO.P,C5,2*%
%TO.N,Net-(U1A-+)*%
X61000000Y-58000000D03*
%TD*%
D10*
%TO.P,R4,1*%
%TO.N,Net-(J5-Pin_2)*%
X99500000Y-65420000D03*
D11*
%TO.P,R4,2*%
%TO.N,+5V*%
X99500000Y-75580000D03*
%TD*%
D15*
%TO.P,C4,1*%
%TO.N,GND*%
X114500000Y-81500000D03*
%TO.P,C4,2*%
%TO.N,+5V*%
X114500000Y-79000000D03*
%TD*%
D10*
%TO.P,R1,1*%
%TO.N,Net-(J1-Pin_1)*%
X58420000Y-82500000D03*
D11*
%TO.P,R1,2*%
%TO.N,GND*%
X68580000Y-82500000D03*
%TD*%
D12*
%TO.P,J5,1,Pin_1*%
%TO.N,Net-(J5-Pin_1)*%
X91500000Y-66225000D03*
D13*
%TO.P,J5,2,Pin_2*%
%TO.N,Net-(J5-Pin_2)*%
X91500000Y-68765000D03*
%TD*%
D10*
%TO.P,R7,1*%
%TO.N,GND*%
X121500000Y-77080000D03*
D11*
%TO.P,R7,2*%
%TO.N,Net-(J7-Pin_1)*%
X121500000Y-66920000D03*
%TD*%
D18*
%TO.P,D2,1,K*%
%TO.N,Net-(D1-A)*%
X82310000Y-80500000D03*
D19*
%TO.P,D2,2,A*%
%TO.N,Signal*%
X74690000Y-80500000D03*
%TD*%
D18*
%TO.P,D1,1,K*%
%TO.N,Signal*%
X74690000Y-85500000D03*
D19*
%TO.P,D1,2,A*%
%TO.N,Net-(D1-A)*%
X82310000Y-85500000D03*
%TD*%
D15*
%TO.P,C3,1*%
%TO.N,GND*%
X103500000Y-81500000D03*
%TO.P,C3,2*%
%TO.N,Net-(LM567CN1-Output_Filter)*%
X103500000Y-79000000D03*
%TD*%
D20*
%TO.N,GND*%
X117450000Y-81500000D03*
X68650000Y-88500000D03*
X87000000Y-86450000D03*
%TO.N,+5V*%
X149950000Y-73000000D03*
X149050000Y-60400000D03*
%TO.N,-5V*%
X148800000Y-75550000D03*
X141150000Y-60100000D03*
X74750000Y-67450000D03*
X141000000Y-86000000D03*
X148825000Y-62825000D03*
X141000000Y-78000000D03*
%TO.N,Net-(D1-A)*%
X95800000Y-49150000D03*
X115000000Y-87850000D03*
X86800000Y-60900000D03*
X98350000Y-87850000D03*
%TO.N,Signal*%
X142960000Y-62540000D03*
X122150000Y-82250000D03*
%TO.N,State*%
X124750000Y-73750000D03*
X100400000Y-85550000D03*
%TO.N,Net-(J6-Pin_1)*%
X118275000Y-69775000D03*
%TD*%
D21*
%TO.N,GND*%
X89450000Y-84000000D02*
X87000000Y-86450000D01*
X117450000Y-81500000D02*
X117450000Y-83250000D01*
X116700000Y-84000000D02*
X89450000Y-84000000D01*
X117450000Y-83250000D02*
X116700000Y-84000000D01*
X84950000Y-88500000D02*
X87000000Y-86450000D01*
X68650000Y-88500000D02*
X84950000Y-88500000D01*
%TO.N,+5V*%
X149050000Y-60400000D02*
X149950000Y-61300000D01*
X149950000Y-61300000D02*
X149950000Y-73000000D01*
%TO.N,-5V*%
X74750000Y-67450000D02*
X79250000Y-71950000D01*
X79250000Y-71950000D02*
X81900000Y-71950000D01*
X148825000Y-62825000D02*
X148800000Y-62850000D01*
X141000000Y-86000000D02*
X141000000Y-78000000D01*
X111550000Y-71950000D02*
X119500000Y-64000000D01*
X119500000Y-64000000D02*
X137250000Y-64000000D01*
X148800000Y-62850000D02*
X148800000Y-75550000D01*
X81900000Y-71950000D02*
X111550000Y-71950000D01*
X137250000Y-64000000D02*
X141150000Y-60100000D01*
%TO.N,Net-(D1-A)*%
X86800000Y-60900000D02*
X86800000Y-58150000D01*
X98350000Y-87850000D02*
X115000000Y-87850000D01*
X86800000Y-58150000D02*
X95800000Y-49150000D01*
%TO.N,Signal*%
X130750000Y-74750000D02*
X130750000Y-78700000D01*
X122200000Y-82200000D02*
X122150000Y-82250000D01*
X127350000Y-82200000D02*
X122200000Y-82200000D01*
X127350000Y-82100000D02*
X127350000Y-82200000D01*
X142960000Y-62540000D02*
X130750000Y-74750000D01*
X130750000Y-78700000D02*
X127350000Y-82100000D01*
%TO.N,State*%
X124750000Y-73750000D02*
X124750000Y-77350000D01*
X124750000Y-77350000D02*
X116550000Y-85550000D01*
X116550000Y-85550000D02*
X100400000Y-85550000D01*
%TO.N,Net-(J6-Pin_1)*%
X114550000Y-73500000D02*
X97050000Y-73500000D01*
X95130000Y-75420000D02*
X93000000Y-75420000D01*
X97050000Y-73500000D02*
X95130000Y-75420000D01*
X118275000Y-69775000D02*
X114550000Y-73500000D01*
%TD*%
M02*
