%TF.GenerationSoftware,KiCad,Pcbnew,9.0.0*%
%TF.CreationDate,2025-03-10T10:12:29+01:00*%
%TF.ProjectId,project git rev,70726f6a-6563-4742-9067-697420726576,rev?*%
%TF.SameCoordinates,Original*%
%TF.FileFunction,Soldermask,Top*%
%TF.FilePolarity,Negative*%
%FSLAX46Y46*%
G04 Gerber Fmt 4.6, Leading zero omitted, Abs format (unit mm)*
G04 Created by KiCad (PCBNEW 9.0.0) date 2025-03-10 10:12:29*
%MOMM*%
%LPD*%
G01*
G04 APERTURE LIST*
%ADD10O,1.700000X3.000000*%
%ADD11R,1.700000X3.000000*%
%ADD12C,2.000000*%
%ADD13C,1.750000*%
%ADD14R,2.500000X1.750000*%
%ADD15O,2.500000X1.750000*%
%ADD16R,1.700000X2.500000*%
%ADD17O,1.700000X2.500000*%
%ADD18R,2.500000X1.700000*%
%ADD19O,2.500000X1.700000*%
%ADD20C,3.000000*%
%ADD21R,1.500000X2.500000*%
%ADD22O,1.500000X2.500000*%
%ADD23R,1.600000X2.500000*%
%ADD24O,1.600000X2.500000*%
G04 APERTURE END LIST*
D10*
%TO.C,J1*%
X154810000Y-115200000D03*
X157350000Y-115200000D03*
D11*
X159890000Y-115200000D03*
%TD*%
D12*
%TO.C,R5*%
X200800000Y-103350000D03*
X190640000Y-103350000D03*
%TD*%
D13*
%TO.C,C11*%
X146400000Y-99300000D03*
X146400000Y-101800000D03*
%TD*%
%TO.C,C9*%
X194650000Y-95150000D03*
X194650000Y-97650000D03*
%TD*%
%TO.C,C3*%
X194650000Y-92000000D03*
X194650000Y-89500000D03*
%TD*%
%TO.C,C2*%
X190550000Y-86000000D03*
X188050000Y-86000000D03*
%TD*%
D12*
%TO.C,R13*%
X187850000Y-108580000D03*
X177690000Y-108580000D03*
%TD*%
%TO.C,R1*%
X129800000Y-84100000D03*
X129800000Y-94260000D03*
%TD*%
%TO.C,R2*%
X151550000Y-104050000D03*
X151550000Y-93890000D03*
%TD*%
D14*
%TO.C,D2*%
X164950000Y-107200000D03*
D15*
X164950000Y-99580000D03*
%TD*%
D13*
%TO.C,C10*%
X126550000Y-91100000D03*
X126550000Y-88600000D03*
%TD*%
D16*
%TO.C,J7*%
X169975000Y-90575000D03*
D17*
X172515000Y-90575000D03*
%TD*%
D12*
%TO.C,R3*%
X140100000Y-84220000D03*
X140100000Y-94380000D03*
%TD*%
%TO.C,R14*%
X187880000Y-105250000D03*
X177720000Y-105250000D03*
%TD*%
D13*
%TO.C,C4*%
X179600000Y-92350000D03*
X179600000Y-89850000D03*
%TD*%
D16*
%TO.C,J11*%
X169950000Y-96300000D03*
D17*
X172490000Y-96300000D03*
%TD*%
D13*
%TO.C,C6*%
X131425000Y-100800000D03*
X131425000Y-98300000D03*
%TD*%
%TO.C,C5*%
X133600000Y-84200000D03*
X136100000Y-84200000D03*
%TD*%
D18*
%TO.C,J4*%
X155500000Y-104550000D03*
D19*
X155500000Y-102010000D03*
%TD*%
D13*
%TO.C,C1*%
X179600000Y-97700000D03*
X179600000Y-95200000D03*
%TD*%
D12*
%TO.C,R8*%
X145600000Y-90800000D03*
X155760000Y-90800000D03*
%TD*%
D20*
%TO.C,MK1*%
X115407163Y-103500000D03*
X115407163Y-93500000D03*
%TD*%
D21*
%TO.C,LM567CN1*%
X190450000Y-89800000D03*
D22*
X187910000Y-89800000D03*
X185370000Y-89800000D03*
X182830000Y-89800000D03*
X182830000Y-99960000D03*
X185370000Y-99960000D03*
X187910000Y-99960000D03*
X190450000Y-99960000D03*
%TD*%
D14*
%TO.C,D1*%
X160000000Y-99490000D03*
D15*
X160000000Y-107110000D03*
%TD*%
D21*
%TO.C,U1*%
X142710000Y-98120000D03*
D22*
X140170000Y-98120000D03*
X137630000Y-98120000D03*
X135090000Y-98120000D03*
X135090000Y-108280000D03*
X137630000Y-108280000D03*
X140170000Y-108280000D03*
X142710000Y-108280000D03*
%TD*%
D12*
%TO.C,R4*%
X198500000Y-97500000D03*
X198500000Y-87340000D03*
%TD*%
%TO.C,R12*%
X187850000Y-111980000D03*
X177690000Y-111980000D03*
%TD*%
%TO.C,R11*%
X187850000Y-115330000D03*
X177690000Y-115330000D03*
%TD*%
D13*
%TO.C,C7*%
X146300000Y-105750000D03*
X146300000Y-108250000D03*
%TD*%
D23*
%TO.C,C8*%
X169900000Y-103450000D03*
D24*
X172400000Y-103450000D03*
%TD*%
D12*
%TO.C,R9*%
X155750000Y-86350000D03*
X145590000Y-86350000D03*
%TD*%
M02*
