%TF.GenerationSoftware,KiCad,Pcbnew,9.0.0*%
%TF.CreationDate,2025-03-10T10:12:29+01:00*%
%TF.ProjectId,project git rev,70726f6a-6563-4742-9067-697420726576,rev?*%
%TF.SameCoordinates,Original*%
%TF.FileFunction,Legend,Top*%
%TF.FilePolarity,Positive*%
%FSLAX46Y46*%
G04 Gerber Fmt 4.6, Leading zero omitted, Abs format (unit mm)*
G04 Created by KiCad (PCBNEW 9.0.0) date 2025-03-10 10:12:29*
%MOMM*%
%LPD*%
G01*
G04 APERTURE LIST*
%ADD10C,0.100000*%
%ADD11C,0.150000*%
%ADD12C,0.120000*%
%ADD13O,1.700000X3.000000*%
%ADD14R,1.700000X3.000000*%
%ADD15C,2.000000*%
%ADD16C,1.750000*%
%ADD17R,2.500000X1.750000*%
%ADD18O,2.500000X1.750000*%
%ADD19R,1.700000X2.500000*%
%ADD20O,1.700000X2.500000*%
%ADD21R,2.500000X1.700000*%
%ADD22O,2.500000X1.700000*%
%ADD23C,3.000000*%
%ADD24R,1.500000X2.500000*%
%ADD25O,1.500000X2.500000*%
%ADD26R,1.600000X2.500000*%
%ADD27O,1.600000X2.500000*%
G04 APERTURE END LIST*
D10*
X152708646Y-118367300D02*
X152815789Y-118403014D01*
X152815789Y-118403014D02*
X152994360Y-118403014D01*
X152994360Y-118403014D02*
X153065789Y-118367300D01*
X153065789Y-118367300D02*
X153101503Y-118331585D01*
X153101503Y-118331585D02*
X153137217Y-118260157D01*
X153137217Y-118260157D02*
X153137217Y-118188728D01*
X153137217Y-118188728D02*
X153101503Y-118117300D01*
X153101503Y-118117300D02*
X153065789Y-118081585D01*
X153065789Y-118081585D02*
X152994360Y-118045871D01*
X152994360Y-118045871D02*
X152851503Y-118010157D01*
X152851503Y-118010157D02*
X152780074Y-117974442D01*
X152780074Y-117974442D02*
X152744360Y-117938728D01*
X152744360Y-117938728D02*
X152708646Y-117867300D01*
X152708646Y-117867300D02*
X152708646Y-117795871D01*
X152708646Y-117795871D02*
X152744360Y-117724442D01*
X152744360Y-117724442D02*
X152780074Y-117688728D01*
X152780074Y-117688728D02*
X152851503Y-117653014D01*
X152851503Y-117653014D02*
X153030074Y-117653014D01*
X153030074Y-117653014D02*
X153137217Y-117688728D01*
X153351503Y-117653014D02*
X153780075Y-117653014D01*
X153565789Y-118403014D02*
X153565789Y-117653014D01*
X153994361Y-118188728D02*
X154351504Y-118188728D01*
X153922932Y-118403014D02*
X154172932Y-117653014D01*
X154172932Y-117653014D02*
X154422932Y-118403014D01*
X154565789Y-117653014D02*
X154994361Y-117653014D01*
X154780075Y-118403014D02*
X154780075Y-117653014D01*
X155244361Y-118010157D02*
X155494361Y-118010157D01*
X155601504Y-118403014D02*
X155244361Y-118403014D01*
X155244361Y-118403014D02*
X155244361Y-117653014D01*
X155244361Y-117653014D02*
X155601504Y-117653014D01*
X156494361Y-118117300D02*
X157065790Y-118117300D01*
X156780075Y-118403014D02*
X156780075Y-117831585D01*
X157780075Y-117653014D02*
X157422932Y-117653014D01*
X157422932Y-117653014D02*
X157387218Y-118010157D01*
X157387218Y-118010157D02*
X157422932Y-117974442D01*
X157422932Y-117974442D02*
X157494361Y-117938728D01*
X157494361Y-117938728D02*
X157672932Y-117938728D01*
X157672932Y-117938728D02*
X157744361Y-117974442D01*
X157744361Y-117974442D02*
X157780075Y-118010157D01*
X157780075Y-118010157D02*
X157815789Y-118081585D01*
X157815789Y-118081585D02*
X157815789Y-118260157D01*
X157815789Y-118260157D02*
X157780075Y-118331585D01*
X157780075Y-118331585D02*
X157744361Y-118367300D01*
X157744361Y-118367300D02*
X157672932Y-118403014D01*
X157672932Y-118403014D02*
X157494361Y-118403014D01*
X157494361Y-118403014D02*
X157422932Y-118367300D01*
X157422932Y-118367300D02*
X157387218Y-118331585D01*
X158030075Y-117653014D02*
X158280075Y-118403014D01*
X158280075Y-118403014D02*
X158530075Y-117653014D01*
X159744361Y-117688728D02*
X159672933Y-117653014D01*
X159672933Y-117653014D02*
X159565790Y-117653014D01*
X159565790Y-117653014D02*
X159458647Y-117688728D01*
X159458647Y-117688728D02*
X159387218Y-117760157D01*
X159387218Y-117760157D02*
X159351504Y-117831585D01*
X159351504Y-117831585D02*
X159315790Y-117974442D01*
X159315790Y-117974442D02*
X159315790Y-118081585D01*
X159315790Y-118081585D02*
X159351504Y-118224442D01*
X159351504Y-118224442D02*
X159387218Y-118295871D01*
X159387218Y-118295871D02*
X159458647Y-118367300D01*
X159458647Y-118367300D02*
X159565790Y-118403014D01*
X159565790Y-118403014D02*
X159637218Y-118403014D01*
X159637218Y-118403014D02*
X159744361Y-118367300D01*
X159744361Y-118367300D02*
X159780075Y-118331585D01*
X159780075Y-118331585D02*
X159780075Y-118081585D01*
X159780075Y-118081585D02*
X159637218Y-118081585D01*
X160101504Y-118403014D02*
X160101504Y-117653014D01*
X160101504Y-117653014D02*
X160530075Y-118403014D01*
X160530075Y-118403014D02*
X160530075Y-117653014D01*
X160887218Y-118403014D02*
X160887218Y-117653014D01*
X160887218Y-117653014D02*
X161065789Y-117653014D01*
X161065789Y-117653014D02*
X161172932Y-117688728D01*
X161172932Y-117688728D02*
X161244361Y-117760157D01*
X161244361Y-117760157D02*
X161280075Y-117831585D01*
X161280075Y-117831585D02*
X161315789Y-117974442D01*
X161315789Y-117974442D02*
X161315789Y-118081585D01*
X161315789Y-118081585D02*
X161280075Y-118224442D01*
X161280075Y-118224442D02*
X161244361Y-118295871D01*
X161244361Y-118295871D02*
X161172932Y-118367300D01*
X161172932Y-118367300D02*
X161065789Y-118403014D01*
X161065789Y-118403014D02*
X160887218Y-118403014D01*
G36*
X171417124Y-79848988D02*
G01*
X171524694Y-79956558D01*
X171634836Y-80176841D01*
X171634836Y-80510376D01*
X171524694Y-80730659D01*
X171417124Y-80838229D01*
X171196843Y-80948371D01*
X170306265Y-80948371D01*
X170306265Y-79738847D01*
X171196843Y-79738847D01*
X171417124Y-79848988D01*
G37*
G36*
X176536172Y-79848988D02*
G01*
X176643742Y-79956558D01*
X176753884Y-80176841D01*
X176753884Y-80510376D01*
X176643742Y-80730659D01*
X176536172Y-80838229D01*
X176315891Y-80948371D01*
X175425313Y-80948371D01*
X175425313Y-79738847D01*
X176315891Y-79738847D01*
X176536172Y-79848988D01*
G37*
G36*
X179036172Y-79848988D02*
G01*
X179143742Y-79956558D01*
X179253884Y-80176841D01*
X179253884Y-80510376D01*
X179143742Y-80730659D01*
X179036172Y-80838229D01*
X178815891Y-80948371D01*
X177925313Y-80948371D01*
X177925313Y-79738847D01*
X178815891Y-79738847D01*
X179036172Y-79848988D01*
G37*
G36*
X186179281Y-82516625D02*
G01*
X154333249Y-82516625D01*
X154333249Y-79688847D01*
X154611027Y-79688847D01*
X154611027Y-82188847D01*
X154614833Y-82207981D01*
X154641893Y-82235041D01*
X154661027Y-82238847D01*
X155851503Y-82238847D01*
X155870637Y-82235041D01*
X155897697Y-82207981D01*
X155897697Y-82169713D01*
X155870637Y-82142653D01*
X155851503Y-82138847D01*
X154711027Y-82138847D01*
X154711027Y-80929323D01*
X155494360Y-80929323D01*
X155513494Y-80925517D01*
X155540554Y-80898457D01*
X155540554Y-80860189D01*
X155513494Y-80833129D01*
X155494360Y-80829323D01*
X154711027Y-80829323D01*
X154711027Y-79738847D01*
X155851503Y-79738847D01*
X155870637Y-79735041D01*
X155897697Y-79707981D01*
X155897697Y-79688847D01*
X156872932Y-79688847D01*
X156872932Y-82188847D01*
X156876738Y-82207981D01*
X156903798Y-82235041D01*
X156922932Y-82238847D01*
X158113408Y-82238847D01*
X158132542Y-82235041D01*
X158159602Y-82207981D01*
X158159602Y-82169713D01*
X158132542Y-82142653D01*
X158113408Y-82138847D01*
X156972932Y-82138847D01*
X156972932Y-80165038D01*
X158777694Y-80165038D01*
X158777694Y-80403133D01*
X158778182Y-80405589D01*
X158777820Y-80406678D01*
X158779936Y-80414405D01*
X158781500Y-80422267D01*
X158782311Y-80423078D01*
X158782973Y-80425494D01*
X158902021Y-80663589D01*
X158906936Y-80669923D01*
X158911387Y-80676583D01*
X159030434Y-80795631D01*
X159037096Y-80800083D01*
X159043428Y-80804997D01*
X159281523Y-80924044D01*
X159286804Y-80925490D01*
X159291757Y-80927830D01*
X159762622Y-81045546D01*
X159988553Y-81158512D01*
X160096125Y-81266084D01*
X160206265Y-81486363D01*
X160206265Y-81700854D01*
X160096125Y-81921133D01*
X159988552Y-82028707D01*
X159768272Y-82138847D01*
X159192951Y-82138847D01*
X158843505Y-82022366D01*
X158824150Y-82019926D01*
X158789921Y-82037040D01*
X158777820Y-82073344D01*
X158794934Y-82107573D01*
X158811883Y-82117234D01*
X159169026Y-82236281D01*
X159176973Y-82237282D01*
X159184837Y-82238847D01*
X159780075Y-82238847D01*
X159782531Y-82238358D01*
X159783620Y-82238721D01*
X159791347Y-82236604D01*
X159799209Y-82235041D01*
X159800020Y-82234229D01*
X159802436Y-82233568D01*
X160040531Y-82114521D01*
X160046862Y-82109607D01*
X160053525Y-82105155D01*
X160172573Y-81986108D01*
X160177029Y-81979438D01*
X160181939Y-81973113D01*
X160300986Y-81735018D01*
X160301647Y-81732602D01*
X160302459Y-81731791D01*
X160304022Y-81723929D01*
X160306139Y-81716202D01*
X160305776Y-81715113D01*
X160306265Y-81712657D01*
X160306265Y-81474561D01*
X160305776Y-81472104D01*
X160306139Y-81471016D01*
X160304022Y-81463288D01*
X160302459Y-81455427D01*
X160301647Y-81454615D01*
X160300986Y-81452200D01*
X160181939Y-81214105D01*
X160177025Y-81207773D01*
X160172573Y-81201111D01*
X160053525Y-81082064D01*
X160046865Y-81077613D01*
X160040531Y-81072698D01*
X159802436Y-80953650D01*
X159797154Y-80952203D01*
X159792202Y-80949864D01*
X159321334Y-80832146D01*
X159095407Y-80719183D01*
X158987835Y-80611611D01*
X158877694Y-80391329D01*
X158877694Y-80176841D01*
X158987835Y-79956559D01*
X159095406Y-79848987D01*
X159315687Y-79738847D01*
X159891010Y-79738847D01*
X160240454Y-79855329D01*
X160259809Y-79857769D01*
X160294038Y-79840655D01*
X160306139Y-79804351D01*
X160289025Y-79770122D01*
X160272077Y-79760461D01*
X160083210Y-79697505D01*
X160921306Y-79697505D01*
X160928368Y-79715691D01*
X161753884Y-81012931D01*
X161753884Y-82188847D01*
X161757690Y-82207981D01*
X161784750Y-82235041D01*
X161823018Y-82235041D01*
X161850078Y-82207981D01*
X161853884Y-82188847D01*
X161853884Y-81012931D01*
X162393452Y-80165038D01*
X163301503Y-80165038D01*
X163301503Y-80403133D01*
X163301991Y-80405589D01*
X163301629Y-80406678D01*
X163303745Y-80414405D01*
X163305309Y-80422267D01*
X163306120Y-80423078D01*
X163306782Y-80425494D01*
X163425830Y-80663589D01*
X163430745Y-80669923D01*
X163435196Y-80676583D01*
X163554243Y-80795631D01*
X163560905Y-80800083D01*
X163567237Y-80804997D01*
X163805332Y-80924044D01*
X163810613Y-80925490D01*
X163815566Y-80927830D01*
X164286431Y-81045546D01*
X164512362Y-81158512D01*
X164619934Y-81266084D01*
X164730074Y-81486363D01*
X164730074Y-81700854D01*
X164619934Y-81921133D01*
X164512361Y-82028707D01*
X164292081Y-82138847D01*
X163716760Y-82138847D01*
X163367314Y-82022366D01*
X163347959Y-82019926D01*
X163313730Y-82037040D01*
X163301629Y-82073344D01*
X163318743Y-82107573D01*
X163335692Y-82117234D01*
X163692835Y-82236281D01*
X163700782Y-82237282D01*
X163708646Y-82238847D01*
X164303884Y-82238847D01*
X164306340Y-82238358D01*
X164307429Y-82238721D01*
X164315156Y-82236604D01*
X164323018Y-82235041D01*
X164323829Y-82234229D01*
X164326245Y-82233568D01*
X164564340Y-82114521D01*
X164570671Y-82109607D01*
X164577334Y-82105155D01*
X164696382Y-81986108D01*
X164700838Y-81979438D01*
X164705748Y-81973113D01*
X164824795Y-81735018D01*
X164825456Y-81732602D01*
X164826268Y-81731791D01*
X164827831Y-81723929D01*
X164829948Y-81716202D01*
X164829585Y-81715113D01*
X164830074Y-81712657D01*
X164830074Y-81474561D01*
X164829585Y-81472104D01*
X164829948Y-81471016D01*
X164827831Y-81463288D01*
X164826268Y-81455427D01*
X164825456Y-81454615D01*
X164824795Y-81452200D01*
X164705748Y-81214105D01*
X164700834Y-81207773D01*
X164696382Y-81201111D01*
X164577334Y-81082064D01*
X164570674Y-81077613D01*
X164564340Y-81072698D01*
X164326245Y-80953650D01*
X164320963Y-80952203D01*
X164316011Y-80949864D01*
X163845143Y-80832146D01*
X163701402Y-80760276D01*
X167587217Y-80760276D01*
X167587217Y-81117419D01*
X167588412Y-81123428D01*
X167588710Y-81129546D01*
X167707758Y-81605736D01*
X167710097Y-81610688D01*
X167711544Y-81615970D01*
X167830591Y-81854065D01*
X167835504Y-81860396D01*
X167839957Y-81867059D01*
X168078052Y-82105155D01*
X168080133Y-82106545D01*
X168080647Y-82107573D01*
X168087612Y-82111543D01*
X168094273Y-82115994D01*
X168095421Y-82115994D01*
X168097596Y-82117234D01*
X168454739Y-82236281D01*
X168462686Y-82237282D01*
X168470550Y-82238847D01*
X168708646Y-82238847D01*
X168716508Y-82237283D01*
X168724457Y-82236281D01*
X169081600Y-82117234D01*
X169083775Y-82115994D01*
X169084922Y-82115994D01*
X169091580Y-82111544D01*
X169098548Y-82107573D01*
X169099061Y-82106545D01*
X169101143Y-82105155D01*
X169220191Y-81986108D01*
X169231030Y-81969887D01*
X169231030Y-81969886D01*
X169234836Y-81950752D01*
X169234836Y-81117419D01*
X169231030Y-81098285D01*
X169203970Y-81071225D01*
X169184836Y-81067419D01*
X168708646Y-81067419D01*
X168689512Y-81071225D01*
X168662452Y-81098285D01*
X168662452Y-81136553D01*
X168689512Y-81163613D01*
X168708646Y-81167419D01*
X169134836Y-81167419D01*
X169134836Y-81930041D01*
X169038779Y-82026098D01*
X168700533Y-82138847D01*
X168478664Y-82138847D01*
X168140415Y-82026098D01*
X167916405Y-81802087D01*
X167803440Y-81576157D01*
X167687217Y-81111263D01*
X167687217Y-80766431D01*
X167803440Y-80301536D01*
X167916405Y-80075606D01*
X168140415Y-79851596D01*
X168478664Y-79738847D01*
X168815890Y-79738847D01*
X169043428Y-79852617D01*
X169062244Y-79857769D01*
X169098549Y-79845668D01*
X169115663Y-79811440D01*
X169103561Y-79775135D01*
X169088149Y-79763174D01*
X168939496Y-79688847D01*
X170206265Y-79688847D01*
X170206265Y-82188847D01*
X170210071Y-82207981D01*
X170237131Y-82235041D01*
X170275399Y-82235041D01*
X170302459Y-82207981D01*
X170306265Y-82188847D01*
X170306265Y-81048371D01*
X170825470Y-81048371D01*
X171643874Y-82217520D01*
X171657965Y-82231013D01*
X171695651Y-82237663D01*
X171727002Y-82215718D01*
X171733652Y-82178032D01*
X171725798Y-82160174D01*
X170947536Y-81048371D01*
X171208646Y-81048371D01*
X171211102Y-81047882D01*
X171212191Y-81048245D01*
X171219918Y-81046128D01*
X171227780Y-81044565D01*
X171228591Y-81043753D01*
X171231007Y-81043092D01*
X171469102Y-80924044D01*
X171475436Y-80919128D01*
X171482096Y-80914678D01*
X171601143Y-80795631D01*
X171605593Y-80788971D01*
X171610509Y-80782637D01*
X171729557Y-80544541D01*
X171730218Y-80542125D01*
X171731030Y-80541314D01*
X171732593Y-80533452D01*
X171734710Y-80525725D01*
X171734347Y-80524636D01*
X171734836Y-80522180D01*
X171734836Y-80165038D01*
X171734347Y-80162581D01*
X171734710Y-80161493D01*
X171732593Y-80153765D01*
X171731030Y-80145904D01*
X171730218Y-80145092D01*
X171729557Y-80142677D01*
X171610509Y-79904581D01*
X171605593Y-79898246D01*
X171601143Y-79891587D01*
X171482096Y-79772540D01*
X171475436Y-79768089D01*
X171469102Y-79763174D01*
X171320449Y-79688847D01*
X172706265Y-79688847D01*
X172706265Y-81712657D01*
X172706753Y-81715113D01*
X172706391Y-81716202D01*
X172708507Y-81723929D01*
X172710071Y-81731791D01*
X172710882Y-81732602D01*
X172711544Y-81735018D01*
X172830591Y-81973113D01*
X172835504Y-81979444D01*
X172839957Y-81986107D01*
X172959004Y-82105155D01*
X172965673Y-82109611D01*
X172971999Y-82114521D01*
X173210094Y-82233568D01*
X173212509Y-82234229D01*
X173213321Y-82235041D01*
X173221182Y-82236604D01*
X173228910Y-82238721D01*
X173229998Y-82238358D01*
X173232455Y-82238847D01*
X173708646Y-82238847D01*
X173711102Y-82238358D01*
X173712191Y-82238721D01*
X173719918Y-82236604D01*
X173727780Y-82235041D01*
X173728591Y-82234229D01*
X173731007Y-82233568D01*
X173969102Y-82114521D01*
X173975430Y-82109609D01*
X173982096Y-82105155D01*
X174101144Y-81986107D01*
X174105597Y-81979441D01*
X174110509Y-81973113D01*
X174229558Y-81735017D01*
X174230219Y-81732601D01*
X174231030Y-81731791D01*
X174232593Y-81723930D01*
X174234710Y-81716201D01*
X174234347Y-81715113D01*
X174234836Y-81712657D01*
X174234836Y-79688847D01*
X175325313Y-79688847D01*
X175325313Y-82188847D01*
X175329119Y-82207981D01*
X175356179Y-82235041D01*
X175394447Y-82235041D01*
X175421507Y-82207981D01*
X175425313Y-82188847D01*
X175425313Y-81048371D01*
X176327694Y-81048371D01*
X176330150Y-81047882D01*
X176331239Y-81048245D01*
X176338966Y-81046128D01*
X176346828Y-81044565D01*
X176347639Y-81043753D01*
X176350055Y-81043092D01*
X176588150Y-80924044D01*
X176594484Y-80919128D01*
X176601144Y-80914678D01*
X176720191Y-80795631D01*
X176724641Y-80788971D01*
X176729557Y-80782637D01*
X176848605Y-80544541D01*
X176849266Y-80542125D01*
X176850078Y-80541314D01*
X176851641Y-80533452D01*
X176853758Y-80525725D01*
X176853395Y-80524636D01*
X176853884Y-80522180D01*
X176853884Y-80165038D01*
X176853395Y-80162581D01*
X176853758Y-80161493D01*
X176851641Y-80153765D01*
X176850078Y-80145904D01*
X176849266Y-80145092D01*
X176848605Y-80142677D01*
X176729557Y-79904581D01*
X176724641Y-79898246D01*
X176720191Y-79891587D01*
X176601144Y-79772540D01*
X176594484Y-79768089D01*
X176588150Y-79763174D01*
X176439497Y-79688847D01*
X177825313Y-79688847D01*
X177825313Y-82188847D01*
X177829119Y-82207981D01*
X177856179Y-82235041D01*
X177894447Y-82235041D01*
X177921507Y-82207981D01*
X177925313Y-82188847D01*
X177925313Y-81048371D01*
X178827694Y-81048371D01*
X178830150Y-81047882D01*
X178831239Y-81048245D01*
X178838966Y-81046128D01*
X178846828Y-81044565D01*
X178847639Y-81043753D01*
X178850055Y-81043092D01*
X179088150Y-80924044D01*
X179094484Y-80919128D01*
X179101144Y-80914678D01*
X179220191Y-80795631D01*
X179224641Y-80788971D01*
X179229557Y-80782637D01*
X179348605Y-80544541D01*
X179349266Y-80542125D01*
X179350078Y-80541314D01*
X179351641Y-80533452D01*
X179353758Y-80525725D01*
X179353395Y-80524636D01*
X179353884Y-80522180D01*
X179353884Y-80165038D01*
X179353395Y-80162581D01*
X179353758Y-80161493D01*
X179351641Y-80153765D01*
X179350078Y-80145904D01*
X179349266Y-80145092D01*
X179348605Y-80142677D01*
X179229557Y-79904581D01*
X179224641Y-79898246D01*
X179220191Y-79891587D01*
X179101144Y-79772540D01*
X179094484Y-79768089D01*
X179088150Y-79763174D01*
X178939497Y-79688847D01*
X180325313Y-79688847D01*
X180325313Y-82188847D01*
X180329119Y-82207981D01*
X180356179Y-82235041D01*
X180375313Y-82238847D01*
X181565789Y-82238847D01*
X181584923Y-82235041D01*
X181611983Y-82207981D01*
X181611983Y-82169713D01*
X184257690Y-82169713D01*
X184257690Y-82207981D01*
X184284750Y-82235041D01*
X184303884Y-82238847D01*
X185851503Y-82238847D01*
X185870637Y-82235041D01*
X185897697Y-82207981D01*
X185897697Y-82169713D01*
X185870637Y-82142653D01*
X185851503Y-82138847D01*
X184424594Y-82138847D01*
X185767811Y-80795631D01*
X185769201Y-80793549D01*
X185770229Y-80793036D01*
X185774199Y-80786070D01*
X185778650Y-80779410D01*
X185778650Y-80778262D01*
X185779890Y-80776087D01*
X185898937Y-80418944D01*
X185899938Y-80410996D01*
X185901503Y-80403133D01*
X185901503Y-80165038D01*
X185901014Y-80162581D01*
X185901377Y-80161494D01*
X185899261Y-80153768D01*
X185897697Y-80145904D01*
X185896885Y-80145092D01*
X185896224Y-80142677D01*
X185777177Y-79904581D01*
X185772263Y-79898249D01*
X185767811Y-79891587D01*
X185648763Y-79772540D01*
X185642103Y-79768089D01*
X185635769Y-79763174D01*
X185397674Y-79644126D01*
X185395258Y-79643464D01*
X185394447Y-79642653D01*
X185386585Y-79641089D01*
X185378858Y-79638973D01*
X185377769Y-79639335D01*
X185375313Y-79638847D01*
X184780075Y-79638847D01*
X184777618Y-79639335D01*
X184776531Y-79638973D01*
X184768801Y-79641089D01*
X184760941Y-79642653D01*
X184760130Y-79643463D01*
X184757715Y-79644125D01*
X184519619Y-79763174D01*
X184513290Y-79768085D01*
X184506625Y-79772539D01*
X184387577Y-79891587D01*
X184376738Y-79907807D01*
X184376738Y-79946076D01*
X184403797Y-79973136D01*
X184442066Y-79973136D01*
X184458287Y-79962297D01*
X184571596Y-79848988D01*
X184791878Y-79738847D01*
X185363510Y-79738847D01*
X185583791Y-79848988D01*
X185691363Y-79956560D01*
X185801503Y-80176840D01*
X185801503Y-80395019D01*
X185688754Y-80733267D01*
X184268529Y-82153492D01*
X184257690Y-82169713D01*
X181611983Y-82169713D01*
X181584923Y-82142653D01*
X181565789Y-82138847D01*
X180425313Y-82138847D01*
X180425313Y-80929323D01*
X181208646Y-80929323D01*
X181227780Y-80925517D01*
X181254840Y-80898457D01*
X181254840Y-80860189D01*
X181227780Y-80833129D01*
X181208646Y-80829323D01*
X180425313Y-80829323D01*
X180425313Y-79738847D01*
X181565789Y-79738847D01*
X181584923Y-79735041D01*
X181611983Y-79707981D01*
X181611983Y-79669713D01*
X181584923Y-79642653D01*
X181565789Y-79638847D01*
X180375313Y-79638847D01*
X180356179Y-79642653D01*
X180329119Y-79669713D01*
X180325313Y-79688847D01*
X178939497Y-79688847D01*
X178850055Y-79644126D01*
X178847639Y-79643464D01*
X178846828Y-79642653D01*
X178838966Y-79641089D01*
X178831239Y-79638973D01*
X178830150Y-79639335D01*
X178827694Y-79638847D01*
X177875313Y-79638847D01*
X177856179Y-79642653D01*
X177829119Y-79669713D01*
X177825313Y-79688847D01*
X176439497Y-79688847D01*
X176350055Y-79644126D01*
X176347639Y-79643464D01*
X176346828Y-79642653D01*
X176338966Y-79641089D01*
X176331239Y-79638973D01*
X176330150Y-79639335D01*
X176327694Y-79638847D01*
X175375313Y-79638847D01*
X175356179Y-79642653D01*
X175329119Y-79669713D01*
X175325313Y-79688847D01*
X174234836Y-79688847D01*
X174231030Y-79669713D01*
X174203970Y-79642653D01*
X174165702Y-79642653D01*
X174138642Y-79669713D01*
X174134836Y-79688847D01*
X174134836Y-81700853D01*
X174024694Y-81921135D01*
X173917123Y-82028707D01*
X173696843Y-82138847D01*
X173244258Y-82138847D01*
X173023978Y-82028707D01*
X172916404Y-81921134D01*
X172806265Y-81700854D01*
X172806265Y-79688847D01*
X172802459Y-79669713D01*
X172775399Y-79642653D01*
X172737131Y-79642653D01*
X172710071Y-79669713D01*
X172706265Y-79688847D01*
X171320449Y-79688847D01*
X171231007Y-79644126D01*
X171228591Y-79643464D01*
X171227780Y-79642653D01*
X171219918Y-79641089D01*
X171212191Y-79638973D01*
X171211102Y-79639335D01*
X171208646Y-79638847D01*
X170256265Y-79638847D01*
X170237131Y-79642653D01*
X170210071Y-79669713D01*
X170206265Y-79688847D01*
X168939496Y-79688847D01*
X168850054Y-79644126D01*
X168847638Y-79643464D01*
X168846827Y-79642653D01*
X168838965Y-79641089D01*
X168831238Y-79638973D01*
X168830149Y-79639335D01*
X168827693Y-79638847D01*
X168470550Y-79638847D01*
X168462687Y-79640410D01*
X168454739Y-79641413D01*
X168097596Y-79760461D01*
X168095421Y-79761701D01*
X168094273Y-79761701D01*
X168087612Y-79766151D01*
X168080647Y-79770122D01*
X168080133Y-79771149D01*
X168078052Y-79772540D01*
X167839957Y-80010635D01*
X167835504Y-80017297D01*
X167830591Y-80023629D01*
X167711544Y-80261724D01*
X167710097Y-80267005D01*
X167707758Y-80271958D01*
X167588710Y-80748149D01*
X167588412Y-80754266D01*
X167587217Y-80760276D01*
X163701402Y-80760276D01*
X163619216Y-80719183D01*
X163511644Y-80611611D01*
X163401503Y-80391329D01*
X163401503Y-80176841D01*
X163511644Y-79956559D01*
X163619215Y-79848987D01*
X163839496Y-79738847D01*
X164414819Y-79738847D01*
X164764263Y-79855329D01*
X164783618Y-79857769D01*
X164817847Y-79840655D01*
X164829948Y-79804351D01*
X164812834Y-79770122D01*
X164795886Y-79760461D01*
X164438743Y-79641413D01*
X164430794Y-79640410D01*
X164422932Y-79638847D01*
X163827693Y-79638847D01*
X163825236Y-79639335D01*
X163824149Y-79638973D01*
X163816419Y-79641089D01*
X163808559Y-79642653D01*
X163807748Y-79643463D01*
X163805333Y-79644125D01*
X163567237Y-79763174D01*
X163560902Y-79768089D01*
X163554243Y-79772540D01*
X163435196Y-79891587D01*
X163430744Y-79898248D01*
X163425829Y-79904582D01*
X163306782Y-80142677D01*
X163306120Y-80145092D01*
X163305309Y-80145904D01*
X163303745Y-80153765D01*
X163301629Y-80161493D01*
X163301991Y-80162581D01*
X163301503Y-80165038D01*
X162393452Y-80165038D01*
X162679400Y-79715691D01*
X162686462Y-79697505D01*
X162678160Y-79660147D01*
X162645875Y-79639602D01*
X162608517Y-79647904D01*
X162595034Y-79662003D01*
X161803884Y-80905239D01*
X161012734Y-79662003D01*
X160999251Y-79647904D01*
X160961893Y-79639602D01*
X160929608Y-79660147D01*
X160921306Y-79697505D01*
X160083210Y-79697505D01*
X159914934Y-79641413D01*
X159906985Y-79640410D01*
X159899123Y-79638847D01*
X159303884Y-79638847D01*
X159301427Y-79639335D01*
X159300340Y-79638973D01*
X159292610Y-79641089D01*
X159284750Y-79642653D01*
X159283939Y-79643463D01*
X159281524Y-79644125D01*
X159043428Y-79763174D01*
X159037093Y-79768089D01*
X159030434Y-79772540D01*
X158911387Y-79891587D01*
X158906935Y-79898248D01*
X158902020Y-79904582D01*
X158782973Y-80142677D01*
X158782311Y-80145092D01*
X158781500Y-80145904D01*
X158779936Y-80153765D01*
X158777820Y-80161493D01*
X158778182Y-80162581D01*
X158777694Y-80165038D01*
X156972932Y-80165038D01*
X156972932Y-79688847D01*
X156969126Y-79669713D01*
X156942066Y-79642653D01*
X156903798Y-79642653D01*
X156876738Y-79669713D01*
X156872932Y-79688847D01*
X155897697Y-79688847D01*
X155897697Y-79669713D01*
X155870637Y-79642653D01*
X155851503Y-79638847D01*
X154661027Y-79638847D01*
X154641893Y-79642653D01*
X154614833Y-79669713D01*
X154611027Y-79688847D01*
X154333249Y-79688847D01*
X154333249Y-79361069D01*
X186179281Y-79361069D01*
X186179281Y-82516625D01*
G37*
D11*
X161674819Y-115533333D02*
X162389104Y-115533333D01*
X162389104Y-115533333D02*
X162531961Y-115580952D01*
X162531961Y-115580952D02*
X162627200Y-115676190D01*
X162627200Y-115676190D02*
X162674819Y-115819047D01*
X162674819Y-115819047D02*
X162674819Y-115914285D01*
X162674819Y-114533333D02*
X162674819Y-115104761D01*
X162674819Y-114819047D02*
X161674819Y-114819047D01*
X161674819Y-114819047D02*
X161817676Y-114914285D01*
X161817676Y-114914285D02*
X161912914Y-115009523D01*
X161912914Y-115009523D02*
X161960533Y-115104761D01*
X195553333Y-106174819D02*
X195220000Y-105698628D01*
X194981905Y-106174819D02*
X194981905Y-105174819D01*
X194981905Y-105174819D02*
X195362857Y-105174819D01*
X195362857Y-105174819D02*
X195458095Y-105222438D01*
X195458095Y-105222438D02*
X195505714Y-105270057D01*
X195505714Y-105270057D02*
X195553333Y-105365295D01*
X195553333Y-105365295D02*
X195553333Y-105508152D01*
X195553333Y-105508152D02*
X195505714Y-105603390D01*
X195505714Y-105603390D02*
X195458095Y-105651009D01*
X195458095Y-105651009D02*
X195362857Y-105698628D01*
X195362857Y-105698628D02*
X194981905Y-105698628D01*
X196458095Y-105174819D02*
X195981905Y-105174819D01*
X195981905Y-105174819D02*
X195934286Y-105651009D01*
X195934286Y-105651009D02*
X195981905Y-105603390D01*
X195981905Y-105603390D02*
X196077143Y-105555771D01*
X196077143Y-105555771D02*
X196315238Y-105555771D01*
X196315238Y-105555771D02*
X196410476Y-105603390D01*
X196410476Y-105603390D02*
X196458095Y-105651009D01*
X196458095Y-105651009D02*
X196505714Y-105746247D01*
X196505714Y-105746247D02*
X196505714Y-105984342D01*
X196505714Y-105984342D02*
X196458095Y-106079580D01*
X196458095Y-106079580D02*
X196410476Y-106127200D01*
X196410476Y-106127200D02*
X196315238Y-106174819D01*
X196315238Y-106174819D02*
X196077143Y-106174819D01*
X196077143Y-106174819D02*
X195981905Y-106127200D01*
X195981905Y-106127200D02*
X195934286Y-106079580D01*
X149009580Y-102942857D02*
X149057200Y-102990476D01*
X149057200Y-102990476D02*
X149104819Y-103133333D01*
X149104819Y-103133333D02*
X149104819Y-103228571D01*
X149104819Y-103228571D02*
X149057200Y-103371428D01*
X149057200Y-103371428D02*
X148961961Y-103466666D01*
X148961961Y-103466666D02*
X148866723Y-103514285D01*
X148866723Y-103514285D02*
X148676247Y-103561904D01*
X148676247Y-103561904D02*
X148533390Y-103561904D01*
X148533390Y-103561904D02*
X148342914Y-103514285D01*
X148342914Y-103514285D02*
X148247676Y-103466666D01*
X148247676Y-103466666D02*
X148152438Y-103371428D01*
X148152438Y-103371428D02*
X148104819Y-103228571D01*
X148104819Y-103228571D02*
X148104819Y-103133333D01*
X148104819Y-103133333D02*
X148152438Y-102990476D01*
X148152438Y-102990476D02*
X148200057Y-102942857D01*
X149104819Y-101990476D02*
X149104819Y-102561904D01*
X149104819Y-102276190D02*
X148104819Y-102276190D01*
X148104819Y-102276190D02*
X148247676Y-102371428D01*
X148247676Y-102371428D02*
X148342914Y-102466666D01*
X148342914Y-102466666D02*
X148390533Y-102561904D01*
X149104819Y-101038095D02*
X149104819Y-101609523D01*
X149104819Y-101323809D02*
X148104819Y-101323809D01*
X148104819Y-101323809D02*
X148247676Y-101419047D01*
X148247676Y-101419047D02*
X148342914Y-101514285D01*
X148342914Y-101514285D02*
X148390533Y-101609523D01*
X194483333Y-101009580D02*
X194435714Y-101057200D01*
X194435714Y-101057200D02*
X194292857Y-101104819D01*
X194292857Y-101104819D02*
X194197619Y-101104819D01*
X194197619Y-101104819D02*
X194054762Y-101057200D01*
X194054762Y-101057200D02*
X193959524Y-100961961D01*
X193959524Y-100961961D02*
X193911905Y-100866723D01*
X193911905Y-100866723D02*
X193864286Y-100676247D01*
X193864286Y-100676247D02*
X193864286Y-100533390D01*
X193864286Y-100533390D02*
X193911905Y-100342914D01*
X193911905Y-100342914D02*
X193959524Y-100247676D01*
X193959524Y-100247676D02*
X194054762Y-100152438D01*
X194054762Y-100152438D02*
X194197619Y-100104819D01*
X194197619Y-100104819D02*
X194292857Y-100104819D01*
X194292857Y-100104819D02*
X194435714Y-100152438D01*
X194435714Y-100152438D02*
X194483333Y-100200057D01*
X194959524Y-101104819D02*
X195150000Y-101104819D01*
X195150000Y-101104819D02*
X195245238Y-101057200D01*
X195245238Y-101057200D02*
X195292857Y-101009580D01*
X195292857Y-101009580D02*
X195388095Y-100866723D01*
X195388095Y-100866723D02*
X195435714Y-100676247D01*
X195435714Y-100676247D02*
X195435714Y-100295295D01*
X195435714Y-100295295D02*
X195388095Y-100200057D01*
X195388095Y-100200057D02*
X195340476Y-100152438D01*
X195340476Y-100152438D02*
X195245238Y-100104819D01*
X195245238Y-100104819D02*
X195054762Y-100104819D01*
X195054762Y-100104819D02*
X194959524Y-100152438D01*
X194959524Y-100152438D02*
X194911905Y-100200057D01*
X194911905Y-100200057D02*
X194864286Y-100295295D01*
X194864286Y-100295295D02*
X194864286Y-100533390D01*
X194864286Y-100533390D02*
X194911905Y-100628628D01*
X194911905Y-100628628D02*
X194959524Y-100676247D01*
X194959524Y-100676247D02*
X195054762Y-100723866D01*
X195054762Y-100723866D02*
X195245238Y-100723866D01*
X195245238Y-100723866D02*
X195340476Y-100676247D01*
X195340476Y-100676247D02*
X195388095Y-100628628D01*
X195388095Y-100628628D02*
X195435714Y-100533390D01*
X195009580Y-86666666D02*
X195057200Y-86714285D01*
X195057200Y-86714285D02*
X195104819Y-86857142D01*
X195104819Y-86857142D02*
X195104819Y-86952380D01*
X195104819Y-86952380D02*
X195057200Y-87095237D01*
X195057200Y-87095237D02*
X194961961Y-87190475D01*
X194961961Y-87190475D02*
X194866723Y-87238094D01*
X194866723Y-87238094D02*
X194676247Y-87285713D01*
X194676247Y-87285713D02*
X194533390Y-87285713D01*
X194533390Y-87285713D02*
X194342914Y-87238094D01*
X194342914Y-87238094D02*
X194247676Y-87190475D01*
X194247676Y-87190475D02*
X194152438Y-87095237D01*
X194152438Y-87095237D02*
X194104819Y-86952380D01*
X194104819Y-86952380D02*
X194104819Y-86857142D01*
X194104819Y-86857142D02*
X194152438Y-86714285D01*
X194152438Y-86714285D02*
X194200057Y-86666666D01*
X194104819Y-86333332D02*
X194104819Y-85714285D01*
X194104819Y-85714285D02*
X194485771Y-86047618D01*
X194485771Y-86047618D02*
X194485771Y-85904761D01*
X194485771Y-85904761D02*
X194533390Y-85809523D01*
X194533390Y-85809523D02*
X194581009Y-85761904D01*
X194581009Y-85761904D02*
X194676247Y-85714285D01*
X194676247Y-85714285D02*
X194914342Y-85714285D01*
X194914342Y-85714285D02*
X195009580Y-85761904D01*
X195009580Y-85761904D02*
X195057200Y-85809523D01*
X195057200Y-85809523D02*
X195104819Y-85904761D01*
X195104819Y-85904761D02*
X195104819Y-86190475D01*
X195104819Y-86190475D02*
X195057200Y-86285713D01*
X195057200Y-86285713D02*
X195009580Y-86333332D01*
X189133333Y-83859580D02*
X189085714Y-83907200D01*
X189085714Y-83907200D02*
X188942857Y-83954819D01*
X188942857Y-83954819D02*
X188847619Y-83954819D01*
X188847619Y-83954819D02*
X188704762Y-83907200D01*
X188704762Y-83907200D02*
X188609524Y-83811961D01*
X188609524Y-83811961D02*
X188561905Y-83716723D01*
X188561905Y-83716723D02*
X188514286Y-83526247D01*
X188514286Y-83526247D02*
X188514286Y-83383390D01*
X188514286Y-83383390D02*
X188561905Y-83192914D01*
X188561905Y-83192914D02*
X188609524Y-83097676D01*
X188609524Y-83097676D02*
X188704762Y-83002438D01*
X188704762Y-83002438D02*
X188847619Y-82954819D01*
X188847619Y-82954819D02*
X188942857Y-82954819D01*
X188942857Y-82954819D02*
X189085714Y-83002438D01*
X189085714Y-83002438D02*
X189133333Y-83050057D01*
X189514286Y-83050057D02*
X189561905Y-83002438D01*
X189561905Y-83002438D02*
X189657143Y-82954819D01*
X189657143Y-82954819D02*
X189895238Y-82954819D01*
X189895238Y-82954819D02*
X189990476Y-83002438D01*
X189990476Y-83002438D02*
X190038095Y-83050057D01*
X190038095Y-83050057D02*
X190085714Y-83145295D01*
X190085714Y-83145295D02*
X190085714Y-83240533D01*
X190085714Y-83240533D02*
X190038095Y-83383390D01*
X190038095Y-83383390D02*
X189466667Y-83954819D01*
X189466667Y-83954819D02*
X190085714Y-83954819D01*
X174207142Y-109034819D02*
X173873809Y-108558628D01*
X173635714Y-109034819D02*
X173635714Y-108034819D01*
X173635714Y-108034819D02*
X174016666Y-108034819D01*
X174016666Y-108034819D02*
X174111904Y-108082438D01*
X174111904Y-108082438D02*
X174159523Y-108130057D01*
X174159523Y-108130057D02*
X174207142Y-108225295D01*
X174207142Y-108225295D02*
X174207142Y-108368152D01*
X174207142Y-108368152D02*
X174159523Y-108463390D01*
X174159523Y-108463390D02*
X174111904Y-108511009D01*
X174111904Y-108511009D02*
X174016666Y-108558628D01*
X174016666Y-108558628D02*
X173635714Y-108558628D01*
X175159523Y-109034819D02*
X174588095Y-109034819D01*
X174873809Y-109034819D02*
X174873809Y-108034819D01*
X174873809Y-108034819D02*
X174778571Y-108177676D01*
X174778571Y-108177676D02*
X174683333Y-108272914D01*
X174683333Y-108272914D02*
X174588095Y-108320533D01*
X175492857Y-108034819D02*
X176111904Y-108034819D01*
X176111904Y-108034819D02*
X175778571Y-108415771D01*
X175778571Y-108415771D02*
X175921428Y-108415771D01*
X175921428Y-108415771D02*
X176016666Y-108463390D01*
X176016666Y-108463390D02*
X176064285Y-108511009D01*
X176064285Y-108511009D02*
X176111904Y-108606247D01*
X176111904Y-108606247D02*
X176111904Y-108844342D01*
X176111904Y-108844342D02*
X176064285Y-108939580D01*
X176064285Y-108939580D02*
X176016666Y-108987200D01*
X176016666Y-108987200D02*
X175921428Y-109034819D01*
X175921428Y-109034819D02*
X175635714Y-109034819D01*
X175635714Y-109034819D02*
X175540476Y-108987200D01*
X175540476Y-108987200D02*
X175492857Y-108939580D01*
X132624819Y-89346666D02*
X132148628Y-89679999D01*
X132624819Y-89918094D02*
X131624819Y-89918094D01*
X131624819Y-89918094D02*
X131624819Y-89537142D01*
X131624819Y-89537142D02*
X131672438Y-89441904D01*
X131672438Y-89441904D02*
X131720057Y-89394285D01*
X131720057Y-89394285D02*
X131815295Y-89346666D01*
X131815295Y-89346666D02*
X131958152Y-89346666D01*
X131958152Y-89346666D02*
X132053390Y-89394285D01*
X132053390Y-89394285D02*
X132101009Y-89441904D01*
X132101009Y-89441904D02*
X132148628Y-89537142D01*
X132148628Y-89537142D02*
X132148628Y-89918094D01*
X132624819Y-88394285D02*
X132624819Y-88965713D01*
X132624819Y-88679999D02*
X131624819Y-88679999D01*
X131624819Y-88679999D02*
X131767676Y-88775237D01*
X131767676Y-88775237D02*
X131862914Y-88870475D01*
X131862914Y-88870475D02*
X131910533Y-88965713D01*
X149634819Y-99136666D02*
X149158628Y-99469999D01*
X149634819Y-99708094D02*
X148634819Y-99708094D01*
X148634819Y-99708094D02*
X148634819Y-99327142D01*
X148634819Y-99327142D02*
X148682438Y-99231904D01*
X148682438Y-99231904D02*
X148730057Y-99184285D01*
X148730057Y-99184285D02*
X148825295Y-99136666D01*
X148825295Y-99136666D02*
X148968152Y-99136666D01*
X148968152Y-99136666D02*
X149063390Y-99184285D01*
X149063390Y-99184285D02*
X149111009Y-99231904D01*
X149111009Y-99231904D02*
X149158628Y-99327142D01*
X149158628Y-99327142D02*
X149158628Y-99708094D01*
X148730057Y-98755713D02*
X148682438Y-98708094D01*
X148682438Y-98708094D02*
X148634819Y-98612856D01*
X148634819Y-98612856D02*
X148634819Y-98374761D01*
X148634819Y-98374761D02*
X148682438Y-98279523D01*
X148682438Y-98279523D02*
X148730057Y-98231904D01*
X148730057Y-98231904D02*
X148825295Y-98184285D01*
X148825295Y-98184285D02*
X148920533Y-98184285D01*
X148920533Y-98184285D02*
X149063390Y-98231904D01*
X149063390Y-98231904D02*
X149634819Y-98803332D01*
X149634819Y-98803332D02*
X149634819Y-98184285D01*
X167904819Y-100938094D02*
X166904819Y-100938094D01*
X166904819Y-100938094D02*
X166904819Y-100699999D01*
X166904819Y-100699999D02*
X166952438Y-100557142D01*
X166952438Y-100557142D02*
X167047676Y-100461904D01*
X167047676Y-100461904D02*
X167142914Y-100414285D01*
X167142914Y-100414285D02*
X167333390Y-100366666D01*
X167333390Y-100366666D02*
X167476247Y-100366666D01*
X167476247Y-100366666D02*
X167666723Y-100414285D01*
X167666723Y-100414285D02*
X167761961Y-100461904D01*
X167761961Y-100461904D02*
X167857200Y-100557142D01*
X167857200Y-100557142D02*
X167904819Y-100699999D01*
X167904819Y-100699999D02*
X167904819Y-100938094D01*
X167000057Y-99985713D02*
X166952438Y-99938094D01*
X166952438Y-99938094D02*
X166904819Y-99842856D01*
X166904819Y-99842856D02*
X166904819Y-99604761D01*
X166904819Y-99604761D02*
X166952438Y-99509523D01*
X166952438Y-99509523D02*
X167000057Y-99461904D01*
X167000057Y-99461904D02*
X167095295Y-99414285D01*
X167095295Y-99414285D02*
X167190533Y-99414285D01*
X167190533Y-99414285D02*
X167333390Y-99461904D01*
X167333390Y-99461904D02*
X167904819Y-100033332D01*
X167904819Y-100033332D02*
X167904819Y-99414285D01*
X167904819Y-107461904D02*
X166904819Y-107461904D01*
X167904819Y-106890476D02*
X167333390Y-107319047D01*
X166904819Y-106890476D02*
X167476247Y-107461904D01*
X126909580Y-86242857D02*
X126957200Y-86290476D01*
X126957200Y-86290476D02*
X127004819Y-86433333D01*
X127004819Y-86433333D02*
X127004819Y-86528571D01*
X127004819Y-86528571D02*
X126957200Y-86671428D01*
X126957200Y-86671428D02*
X126861961Y-86766666D01*
X126861961Y-86766666D02*
X126766723Y-86814285D01*
X126766723Y-86814285D02*
X126576247Y-86861904D01*
X126576247Y-86861904D02*
X126433390Y-86861904D01*
X126433390Y-86861904D02*
X126242914Y-86814285D01*
X126242914Y-86814285D02*
X126147676Y-86766666D01*
X126147676Y-86766666D02*
X126052438Y-86671428D01*
X126052438Y-86671428D02*
X126004819Y-86528571D01*
X126004819Y-86528571D02*
X126004819Y-86433333D01*
X126004819Y-86433333D02*
X126052438Y-86290476D01*
X126052438Y-86290476D02*
X126100057Y-86242857D01*
X127004819Y-85290476D02*
X127004819Y-85861904D01*
X127004819Y-85576190D02*
X126004819Y-85576190D01*
X126004819Y-85576190D02*
X126147676Y-85671428D01*
X126147676Y-85671428D02*
X126242914Y-85766666D01*
X126242914Y-85766666D02*
X126290533Y-85861904D01*
X126004819Y-84671428D02*
X126004819Y-84576190D01*
X126004819Y-84576190D02*
X126052438Y-84480952D01*
X126052438Y-84480952D02*
X126100057Y-84433333D01*
X126100057Y-84433333D02*
X126195295Y-84385714D01*
X126195295Y-84385714D02*
X126385771Y-84338095D01*
X126385771Y-84338095D02*
X126623866Y-84338095D01*
X126623866Y-84338095D02*
X126814342Y-84385714D01*
X126814342Y-84385714D02*
X126909580Y-84433333D01*
X126909580Y-84433333D02*
X126957200Y-84480952D01*
X126957200Y-84480952D02*
X127004819Y-84576190D01*
X127004819Y-84576190D02*
X127004819Y-84671428D01*
X127004819Y-84671428D02*
X126957200Y-84766666D01*
X126957200Y-84766666D02*
X126909580Y-84814285D01*
X126909580Y-84814285D02*
X126814342Y-84861904D01*
X126814342Y-84861904D02*
X126623866Y-84909523D01*
X126623866Y-84909523D02*
X126385771Y-84909523D01*
X126385771Y-84909523D02*
X126195295Y-84861904D01*
X126195295Y-84861904D02*
X126100057Y-84814285D01*
X126100057Y-84814285D02*
X126052438Y-84766666D01*
X126052438Y-84766666D02*
X126004819Y-84671428D01*
X167099819Y-90908333D02*
X167814104Y-90908333D01*
X167814104Y-90908333D02*
X167956961Y-90955952D01*
X167956961Y-90955952D02*
X168052200Y-91051190D01*
X168052200Y-91051190D02*
X168099819Y-91194047D01*
X168099819Y-91194047D02*
X168099819Y-91289285D01*
X167099819Y-90527380D02*
X167099819Y-89860714D01*
X167099819Y-89860714D02*
X168099819Y-90289285D01*
X142924819Y-89466666D02*
X142448628Y-89799999D01*
X142924819Y-90038094D02*
X141924819Y-90038094D01*
X141924819Y-90038094D02*
X141924819Y-89657142D01*
X141924819Y-89657142D02*
X141972438Y-89561904D01*
X141972438Y-89561904D02*
X142020057Y-89514285D01*
X142020057Y-89514285D02*
X142115295Y-89466666D01*
X142115295Y-89466666D02*
X142258152Y-89466666D01*
X142258152Y-89466666D02*
X142353390Y-89514285D01*
X142353390Y-89514285D02*
X142401009Y-89561904D01*
X142401009Y-89561904D02*
X142448628Y-89657142D01*
X142448628Y-89657142D02*
X142448628Y-90038094D01*
X141924819Y-89133332D02*
X141924819Y-88514285D01*
X141924819Y-88514285D02*
X142305771Y-88847618D01*
X142305771Y-88847618D02*
X142305771Y-88704761D01*
X142305771Y-88704761D02*
X142353390Y-88609523D01*
X142353390Y-88609523D02*
X142401009Y-88561904D01*
X142401009Y-88561904D02*
X142496247Y-88514285D01*
X142496247Y-88514285D02*
X142734342Y-88514285D01*
X142734342Y-88514285D02*
X142829580Y-88561904D01*
X142829580Y-88561904D02*
X142877200Y-88609523D01*
X142877200Y-88609523D02*
X142924819Y-88704761D01*
X142924819Y-88704761D02*
X142924819Y-88990475D01*
X142924819Y-88990475D02*
X142877200Y-89085713D01*
X142877200Y-89085713D02*
X142829580Y-89133332D01*
X174237142Y-105704819D02*
X173903809Y-105228628D01*
X173665714Y-105704819D02*
X173665714Y-104704819D01*
X173665714Y-104704819D02*
X174046666Y-104704819D01*
X174046666Y-104704819D02*
X174141904Y-104752438D01*
X174141904Y-104752438D02*
X174189523Y-104800057D01*
X174189523Y-104800057D02*
X174237142Y-104895295D01*
X174237142Y-104895295D02*
X174237142Y-105038152D01*
X174237142Y-105038152D02*
X174189523Y-105133390D01*
X174189523Y-105133390D02*
X174141904Y-105181009D01*
X174141904Y-105181009D02*
X174046666Y-105228628D01*
X174046666Y-105228628D02*
X173665714Y-105228628D01*
X175189523Y-105704819D02*
X174618095Y-105704819D01*
X174903809Y-105704819D02*
X174903809Y-104704819D01*
X174903809Y-104704819D02*
X174808571Y-104847676D01*
X174808571Y-104847676D02*
X174713333Y-104942914D01*
X174713333Y-104942914D02*
X174618095Y-104990533D01*
X176046666Y-105038152D02*
X176046666Y-105704819D01*
X175808571Y-104657200D02*
X175570476Y-105371485D01*
X175570476Y-105371485D02*
X176189523Y-105371485D01*
X177709580Y-91266666D02*
X177757200Y-91314285D01*
X177757200Y-91314285D02*
X177804819Y-91457142D01*
X177804819Y-91457142D02*
X177804819Y-91552380D01*
X177804819Y-91552380D02*
X177757200Y-91695237D01*
X177757200Y-91695237D02*
X177661961Y-91790475D01*
X177661961Y-91790475D02*
X177566723Y-91838094D01*
X177566723Y-91838094D02*
X177376247Y-91885713D01*
X177376247Y-91885713D02*
X177233390Y-91885713D01*
X177233390Y-91885713D02*
X177042914Y-91838094D01*
X177042914Y-91838094D02*
X176947676Y-91790475D01*
X176947676Y-91790475D02*
X176852438Y-91695237D01*
X176852438Y-91695237D02*
X176804819Y-91552380D01*
X176804819Y-91552380D02*
X176804819Y-91457142D01*
X176804819Y-91457142D02*
X176852438Y-91314285D01*
X176852438Y-91314285D02*
X176900057Y-91266666D01*
X177138152Y-90409523D02*
X177804819Y-90409523D01*
X176757200Y-90647618D02*
X177471485Y-90885713D01*
X177471485Y-90885713D02*
X177471485Y-90266666D01*
X167074819Y-97109523D02*
X167789104Y-97109523D01*
X167789104Y-97109523D02*
X167931961Y-97157142D01*
X167931961Y-97157142D02*
X168027200Y-97252380D01*
X168027200Y-97252380D02*
X168074819Y-97395237D01*
X168074819Y-97395237D02*
X168074819Y-97490475D01*
X168074819Y-96109523D02*
X168074819Y-96680951D01*
X168074819Y-96395237D02*
X167074819Y-96395237D01*
X167074819Y-96395237D02*
X167217676Y-96490475D01*
X167217676Y-96490475D02*
X167312914Y-96585713D01*
X167312914Y-96585713D02*
X167360533Y-96680951D01*
X168074819Y-95157142D02*
X168074819Y-95728570D01*
X168074819Y-95442856D02*
X167074819Y-95442856D01*
X167074819Y-95442856D02*
X167217676Y-95538094D01*
X167217676Y-95538094D02*
X167312914Y-95633332D01*
X167312914Y-95633332D02*
X167360533Y-95728570D01*
X129534580Y-99716666D02*
X129582200Y-99764285D01*
X129582200Y-99764285D02*
X129629819Y-99907142D01*
X129629819Y-99907142D02*
X129629819Y-100002380D01*
X129629819Y-100002380D02*
X129582200Y-100145237D01*
X129582200Y-100145237D02*
X129486961Y-100240475D01*
X129486961Y-100240475D02*
X129391723Y-100288094D01*
X129391723Y-100288094D02*
X129201247Y-100335713D01*
X129201247Y-100335713D02*
X129058390Y-100335713D01*
X129058390Y-100335713D02*
X128867914Y-100288094D01*
X128867914Y-100288094D02*
X128772676Y-100240475D01*
X128772676Y-100240475D02*
X128677438Y-100145237D01*
X128677438Y-100145237D02*
X128629819Y-100002380D01*
X128629819Y-100002380D02*
X128629819Y-99907142D01*
X128629819Y-99907142D02*
X128677438Y-99764285D01*
X128677438Y-99764285D02*
X128725057Y-99716666D01*
X128629819Y-98859523D02*
X128629819Y-99049999D01*
X128629819Y-99049999D02*
X128677438Y-99145237D01*
X128677438Y-99145237D02*
X128725057Y-99192856D01*
X128725057Y-99192856D02*
X128867914Y-99288094D01*
X128867914Y-99288094D02*
X129058390Y-99335713D01*
X129058390Y-99335713D02*
X129439342Y-99335713D01*
X129439342Y-99335713D02*
X129534580Y-99288094D01*
X129534580Y-99288094D02*
X129582200Y-99240475D01*
X129582200Y-99240475D02*
X129629819Y-99145237D01*
X129629819Y-99145237D02*
X129629819Y-98954761D01*
X129629819Y-98954761D02*
X129582200Y-98859523D01*
X129582200Y-98859523D02*
X129534580Y-98811904D01*
X129534580Y-98811904D02*
X129439342Y-98764285D01*
X129439342Y-98764285D02*
X129201247Y-98764285D01*
X129201247Y-98764285D02*
X129106009Y-98811904D01*
X129106009Y-98811904D02*
X129058390Y-98859523D01*
X129058390Y-98859523D02*
X129010771Y-98954761D01*
X129010771Y-98954761D02*
X129010771Y-99145237D01*
X129010771Y-99145237D02*
X129058390Y-99240475D01*
X129058390Y-99240475D02*
X129106009Y-99288094D01*
X129106009Y-99288094D02*
X129201247Y-99335713D01*
X134683333Y-82309580D02*
X134635714Y-82357200D01*
X134635714Y-82357200D02*
X134492857Y-82404819D01*
X134492857Y-82404819D02*
X134397619Y-82404819D01*
X134397619Y-82404819D02*
X134254762Y-82357200D01*
X134254762Y-82357200D02*
X134159524Y-82261961D01*
X134159524Y-82261961D02*
X134111905Y-82166723D01*
X134111905Y-82166723D02*
X134064286Y-81976247D01*
X134064286Y-81976247D02*
X134064286Y-81833390D01*
X134064286Y-81833390D02*
X134111905Y-81642914D01*
X134111905Y-81642914D02*
X134159524Y-81547676D01*
X134159524Y-81547676D02*
X134254762Y-81452438D01*
X134254762Y-81452438D02*
X134397619Y-81404819D01*
X134397619Y-81404819D02*
X134492857Y-81404819D01*
X134492857Y-81404819D02*
X134635714Y-81452438D01*
X134635714Y-81452438D02*
X134683333Y-81500057D01*
X135588095Y-81404819D02*
X135111905Y-81404819D01*
X135111905Y-81404819D02*
X135064286Y-81881009D01*
X135064286Y-81881009D02*
X135111905Y-81833390D01*
X135111905Y-81833390D02*
X135207143Y-81785771D01*
X135207143Y-81785771D02*
X135445238Y-81785771D01*
X135445238Y-81785771D02*
X135540476Y-81833390D01*
X135540476Y-81833390D02*
X135588095Y-81881009D01*
X135588095Y-81881009D02*
X135635714Y-81976247D01*
X135635714Y-81976247D02*
X135635714Y-82214342D01*
X135635714Y-82214342D02*
X135588095Y-82309580D01*
X135588095Y-82309580D02*
X135540476Y-82357200D01*
X135540476Y-82357200D02*
X135445238Y-82404819D01*
X135445238Y-82404819D02*
X135207143Y-82404819D01*
X135207143Y-82404819D02*
X135111905Y-82357200D01*
X135111905Y-82357200D02*
X135064286Y-82309580D01*
X155166666Y-106334819D02*
X155166666Y-107049104D01*
X155166666Y-107049104D02*
X155119047Y-107191961D01*
X155119047Y-107191961D02*
X155023809Y-107287200D01*
X155023809Y-107287200D02*
X154880952Y-107334819D01*
X154880952Y-107334819D02*
X154785714Y-107334819D01*
X156071428Y-106668152D02*
X156071428Y-107334819D01*
X155833333Y-106287200D02*
X155595238Y-107001485D01*
X155595238Y-107001485D02*
X156214285Y-107001485D01*
X177709580Y-96616666D02*
X177757200Y-96664285D01*
X177757200Y-96664285D02*
X177804819Y-96807142D01*
X177804819Y-96807142D02*
X177804819Y-96902380D01*
X177804819Y-96902380D02*
X177757200Y-97045237D01*
X177757200Y-97045237D02*
X177661961Y-97140475D01*
X177661961Y-97140475D02*
X177566723Y-97188094D01*
X177566723Y-97188094D02*
X177376247Y-97235713D01*
X177376247Y-97235713D02*
X177233390Y-97235713D01*
X177233390Y-97235713D02*
X177042914Y-97188094D01*
X177042914Y-97188094D02*
X176947676Y-97140475D01*
X176947676Y-97140475D02*
X176852438Y-97045237D01*
X176852438Y-97045237D02*
X176804819Y-96902380D01*
X176804819Y-96902380D02*
X176804819Y-96807142D01*
X176804819Y-96807142D02*
X176852438Y-96664285D01*
X176852438Y-96664285D02*
X176900057Y-96616666D01*
X177804819Y-95664285D02*
X177804819Y-96235713D01*
X177804819Y-95949999D02*
X176804819Y-95949999D01*
X176804819Y-95949999D02*
X176947676Y-96045237D01*
X176947676Y-96045237D02*
X177042914Y-96140475D01*
X177042914Y-96140475D02*
X177090533Y-96235713D01*
X147933333Y-93754819D02*
X147600000Y-93278628D01*
X147361905Y-93754819D02*
X147361905Y-92754819D01*
X147361905Y-92754819D02*
X147742857Y-92754819D01*
X147742857Y-92754819D02*
X147838095Y-92802438D01*
X147838095Y-92802438D02*
X147885714Y-92850057D01*
X147885714Y-92850057D02*
X147933333Y-92945295D01*
X147933333Y-92945295D02*
X147933333Y-93088152D01*
X147933333Y-93088152D02*
X147885714Y-93183390D01*
X147885714Y-93183390D02*
X147838095Y-93231009D01*
X147838095Y-93231009D02*
X147742857Y-93278628D01*
X147742857Y-93278628D02*
X147361905Y-93278628D01*
X148504762Y-93183390D02*
X148409524Y-93135771D01*
X148409524Y-93135771D02*
X148361905Y-93088152D01*
X148361905Y-93088152D02*
X148314286Y-92992914D01*
X148314286Y-92992914D02*
X148314286Y-92945295D01*
X148314286Y-92945295D02*
X148361905Y-92850057D01*
X148361905Y-92850057D02*
X148409524Y-92802438D01*
X148409524Y-92802438D02*
X148504762Y-92754819D01*
X148504762Y-92754819D02*
X148695238Y-92754819D01*
X148695238Y-92754819D02*
X148790476Y-92802438D01*
X148790476Y-92802438D02*
X148838095Y-92850057D01*
X148838095Y-92850057D02*
X148885714Y-92945295D01*
X148885714Y-92945295D02*
X148885714Y-92992914D01*
X148885714Y-92992914D02*
X148838095Y-93088152D01*
X148838095Y-93088152D02*
X148790476Y-93135771D01*
X148790476Y-93135771D02*
X148695238Y-93183390D01*
X148695238Y-93183390D02*
X148504762Y-93183390D01*
X148504762Y-93183390D02*
X148409524Y-93231009D01*
X148409524Y-93231009D02*
X148361905Y-93278628D01*
X148361905Y-93278628D02*
X148314286Y-93373866D01*
X148314286Y-93373866D02*
X148314286Y-93564342D01*
X148314286Y-93564342D02*
X148361905Y-93659580D01*
X148361905Y-93659580D02*
X148409524Y-93707200D01*
X148409524Y-93707200D02*
X148504762Y-93754819D01*
X148504762Y-93754819D02*
X148695238Y-93754819D01*
X148695238Y-93754819D02*
X148790476Y-93707200D01*
X148790476Y-93707200D02*
X148838095Y-93659580D01*
X148838095Y-93659580D02*
X148885714Y-93564342D01*
X148885714Y-93564342D02*
X148885714Y-93373866D01*
X148885714Y-93373866D02*
X148838095Y-93278628D01*
X148838095Y-93278628D02*
X148790476Y-93231009D01*
X148790476Y-93231009D02*
X148695238Y-93183390D01*
X124776982Y-107591792D02*
X124300791Y-107925125D01*
X124776982Y-108163220D02*
X123776982Y-108163220D01*
X123776982Y-108163220D02*
X123776982Y-107782268D01*
X123776982Y-107782268D02*
X123824601Y-107687030D01*
X123824601Y-107687030D02*
X123872220Y-107639411D01*
X123872220Y-107639411D02*
X123967458Y-107591792D01*
X123967458Y-107591792D02*
X124110315Y-107591792D01*
X124110315Y-107591792D02*
X124205553Y-107639411D01*
X124205553Y-107639411D02*
X124253172Y-107687030D01*
X124253172Y-107687030D02*
X124300791Y-107782268D01*
X124300791Y-107782268D02*
X124300791Y-108163220D01*
X124729363Y-106782268D02*
X124776982Y-106877506D01*
X124776982Y-106877506D02*
X124776982Y-107067982D01*
X124776982Y-107067982D02*
X124729363Y-107163220D01*
X124729363Y-107163220D02*
X124634124Y-107210839D01*
X124634124Y-107210839D02*
X124253172Y-107210839D01*
X124253172Y-107210839D02*
X124157934Y-107163220D01*
X124157934Y-107163220D02*
X124110315Y-107067982D01*
X124110315Y-107067982D02*
X124110315Y-106877506D01*
X124110315Y-106877506D02*
X124157934Y-106782268D01*
X124157934Y-106782268D02*
X124253172Y-106734649D01*
X124253172Y-106734649D02*
X124348410Y-106734649D01*
X124348410Y-106734649D02*
X124443648Y-107210839D01*
X124729363Y-105877506D02*
X124776982Y-105972744D01*
X124776982Y-105972744D02*
X124776982Y-106163220D01*
X124776982Y-106163220D02*
X124729363Y-106258458D01*
X124729363Y-106258458D02*
X124681743Y-106306077D01*
X124681743Y-106306077D02*
X124586505Y-106353696D01*
X124586505Y-106353696D02*
X124300791Y-106353696D01*
X124300791Y-106353696D02*
X124205553Y-106306077D01*
X124205553Y-106306077D02*
X124157934Y-106258458D01*
X124157934Y-106258458D02*
X124110315Y-106163220D01*
X124110315Y-106163220D02*
X124110315Y-105972744D01*
X124110315Y-105972744D02*
X124157934Y-105877506D01*
X124776982Y-105448934D02*
X124110315Y-105448934D01*
X123776982Y-105448934D02*
X123824601Y-105496553D01*
X123824601Y-105496553D02*
X123872220Y-105448934D01*
X123872220Y-105448934D02*
X123824601Y-105401315D01*
X123824601Y-105401315D02*
X123776982Y-105448934D01*
X123776982Y-105448934D02*
X123872220Y-105448934D01*
X124729363Y-104591792D02*
X124776982Y-104687030D01*
X124776982Y-104687030D02*
X124776982Y-104877506D01*
X124776982Y-104877506D02*
X124729363Y-104972744D01*
X124729363Y-104972744D02*
X124634124Y-105020363D01*
X124634124Y-105020363D02*
X124253172Y-105020363D01*
X124253172Y-105020363D02*
X124157934Y-104972744D01*
X124157934Y-104972744D02*
X124110315Y-104877506D01*
X124110315Y-104877506D02*
X124110315Y-104687030D01*
X124110315Y-104687030D02*
X124157934Y-104591792D01*
X124157934Y-104591792D02*
X124253172Y-104544173D01*
X124253172Y-104544173D02*
X124348410Y-104544173D01*
X124348410Y-104544173D02*
X124443648Y-105020363D01*
X124110315Y-104210839D02*
X124776982Y-103972744D01*
X124776982Y-103972744D02*
X124110315Y-103734649D01*
X124729363Y-102972744D02*
X124776982Y-103067982D01*
X124776982Y-103067982D02*
X124776982Y-103258458D01*
X124776982Y-103258458D02*
X124729363Y-103353696D01*
X124729363Y-103353696D02*
X124634124Y-103401315D01*
X124634124Y-103401315D02*
X124253172Y-103401315D01*
X124253172Y-103401315D02*
X124157934Y-103353696D01*
X124157934Y-103353696D02*
X124110315Y-103258458D01*
X124110315Y-103258458D02*
X124110315Y-103067982D01*
X124110315Y-103067982D02*
X124157934Y-102972744D01*
X124157934Y-102972744D02*
X124253172Y-102925125D01*
X124253172Y-102925125D02*
X124348410Y-102925125D01*
X124348410Y-102925125D02*
X124443648Y-103401315D01*
X124776982Y-102496553D02*
X124110315Y-102496553D01*
X124300791Y-102496553D02*
X124205553Y-102448934D01*
X124205553Y-102448934D02*
X124157934Y-102401315D01*
X124157934Y-102401315D02*
X124110315Y-102306077D01*
X124110315Y-102306077D02*
X124110315Y-102210839D01*
X162954819Y-105228094D02*
X161954819Y-105228094D01*
X161954819Y-105228094D02*
X161954819Y-104989999D01*
X161954819Y-104989999D02*
X162002438Y-104847142D01*
X162002438Y-104847142D02*
X162097676Y-104751904D01*
X162097676Y-104751904D02*
X162192914Y-104704285D01*
X162192914Y-104704285D02*
X162383390Y-104656666D01*
X162383390Y-104656666D02*
X162526247Y-104656666D01*
X162526247Y-104656666D02*
X162716723Y-104704285D01*
X162716723Y-104704285D02*
X162811961Y-104751904D01*
X162811961Y-104751904D02*
X162907200Y-104847142D01*
X162907200Y-104847142D02*
X162954819Y-104989999D01*
X162954819Y-104989999D02*
X162954819Y-105228094D01*
X162954819Y-103704285D02*
X162954819Y-104275713D01*
X162954819Y-103989999D02*
X161954819Y-103989999D01*
X161954819Y-103989999D02*
X162097676Y-104085237D01*
X162097676Y-104085237D02*
X162192914Y-104180475D01*
X162192914Y-104180475D02*
X162240533Y-104275713D01*
X162954819Y-102251904D02*
X161954819Y-102251904D01*
X162954819Y-101680476D02*
X162383390Y-102109047D01*
X161954819Y-101680476D02*
X162526247Y-102251904D01*
X138664819Y-111881904D02*
X139474342Y-111881904D01*
X139474342Y-111881904D02*
X139569580Y-111834285D01*
X139569580Y-111834285D02*
X139617200Y-111786666D01*
X139617200Y-111786666D02*
X139664819Y-111691428D01*
X139664819Y-111691428D02*
X139664819Y-111500952D01*
X139664819Y-111500952D02*
X139617200Y-111405714D01*
X139617200Y-111405714D02*
X139569580Y-111358095D01*
X139569580Y-111358095D02*
X139474342Y-111310476D01*
X139474342Y-111310476D02*
X138664819Y-111310476D01*
X139664819Y-110310476D02*
X139664819Y-110881904D01*
X139664819Y-110596190D02*
X138664819Y-110596190D01*
X138664819Y-110596190D02*
X138807676Y-110691428D01*
X138807676Y-110691428D02*
X138902914Y-110786666D01*
X138902914Y-110786666D02*
X138950533Y-110881904D01*
X201454819Y-92586666D02*
X200978628Y-92919999D01*
X201454819Y-93158094D02*
X200454819Y-93158094D01*
X200454819Y-93158094D02*
X200454819Y-92777142D01*
X200454819Y-92777142D02*
X200502438Y-92681904D01*
X200502438Y-92681904D02*
X200550057Y-92634285D01*
X200550057Y-92634285D02*
X200645295Y-92586666D01*
X200645295Y-92586666D02*
X200788152Y-92586666D01*
X200788152Y-92586666D02*
X200883390Y-92634285D01*
X200883390Y-92634285D02*
X200931009Y-92681904D01*
X200931009Y-92681904D02*
X200978628Y-92777142D01*
X200978628Y-92777142D02*
X200978628Y-93158094D01*
X200788152Y-91729523D02*
X201454819Y-91729523D01*
X200407200Y-91967618D02*
X201121485Y-92205713D01*
X201121485Y-92205713D02*
X201121485Y-91586666D01*
X174207142Y-112434819D02*
X173873809Y-111958628D01*
X173635714Y-112434819D02*
X173635714Y-111434819D01*
X173635714Y-111434819D02*
X174016666Y-111434819D01*
X174016666Y-111434819D02*
X174111904Y-111482438D01*
X174111904Y-111482438D02*
X174159523Y-111530057D01*
X174159523Y-111530057D02*
X174207142Y-111625295D01*
X174207142Y-111625295D02*
X174207142Y-111768152D01*
X174207142Y-111768152D02*
X174159523Y-111863390D01*
X174159523Y-111863390D02*
X174111904Y-111911009D01*
X174111904Y-111911009D02*
X174016666Y-111958628D01*
X174016666Y-111958628D02*
X173635714Y-111958628D01*
X175159523Y-112434819D02*
X174588095Y-112434819D01*
X174873809Y-112434819D02*
X174873809Y-111434819D01*
X174873809Y-111434819D02*
X174778571Y-111577676D01*
X174778571Y-111577676D02*
X174683333Y-111672914D01*
X174683333Y-111672914D02*
X174588095Y-111720533D01*
X175540476Y-111530057D02*
X175588095Y-111482438D01*
X175588095Y-111482438D02*
X175683333Y-111434819D01*
X175683333Y-111434819D02*
X175921428Y-111434819D01*
X175921428Y-111434819D02*
X176016666Y-111482438D01*
X176016666Y-111482438D02*
X176064285Y-111530057D01*
X176064285Y-111530057D02*
X176111904Y-111625295D01*
X176111904Y-111625295D02*
X176111904Y-111720533D01*
X176111904Y-111720533D02*
X176064285Y-111863390D01*
X176064285Y-111863390D02*
X175492857Y-112434819D01*
X175492857Y-112434819D02*
X176111904Y-112434819D01*
X174207142Y-115784819D02*
X173873809Y-115308628D01*
X173635714Y-115784819D02*
X173635714Y-114784819D01*
X173635714Y-114784819D02*
X174016666Y-114784819D01*
X174016666Y-114784819D02*
X174111904Y-114832438D01*
X174111904Y-114832438D02*
X174159523Y-114880057D01*
X174159523Y-114880057D02*
X174207142Y-114975295D01*
X174207142Y-114975295D02*
X174207142Y-115118152D01*
X174207142Y-115118152D02*
X174159523Y-115213390D01*
X174159523Y-115213390D02*
X174111904Y-115261009D01*
X174111904Y-115261009D02*
X174016666Y-115308628D01*
X174016666Y-115308628D02*
X173635714Y-115308628D01*
X175159523Y-115784819D02*
X174588095Y-115784819D01*
X174873809Y-115784819D02*
X174873809Y-114784819D01*
X174873809Y-114784819D02*
X174778571Y-114927676D01*
X174778571Y-114927676D02*
X174683333Y-115022914D01*
X174683333Y-115022914D02*
X174588095Y-115070533D01*
X176111904Y-115784819D02*
X175540476Y-115784819D01*
X175826190Y-115784819D02*
X175826190Y-114784819D01*
X175826190Y-114784819D02*
X175730952Y-114927676D01*
X175730952Y-114927676D02*
X175635714Y-115022914D01*
X175635714Y-115022914D02*
X175540476Y-115070533D01*
X148909580Y-107166666D02*
X148957200Y-107214285D01*
X148957200Y-107214285D02*
X149004819Y-107357142D01*
X149004819Y-107357142D02*
X149004819Y-107452380D01*
X149004819Y-107452380D02*
X148957200Y-107595237D01*
X148957200Y-107595237D02*
X148861961Y-107690475D01*
X148861961Y-107690475D02*
X148766723Y-107738094D01*
X148766723Y-107738094D02*
X148576247Y-107785713D01*
X148576247Y-107785713D02*
X148433390Y-107785713D01*
X148433390Y-107785713D02*
X148242914Y-107738094D01*
X148242914Y-107738094D02*
X148147676Y-107690475D01*
X148147676Y-107690475D02*
X148052438Y-107595237D01*
X148052438Y-107595237D02*
X148004819Y-107452380D01*
X148004819Y-107452380D02*
X148004819Y-107357142D01*
X148004819Y-107357142D02*
X148052438Y-107214285D01*
X148052438Y-107214285D02*
X148100057Y-107166666D01*
X148004819Y-106833332D02*
X148004819Y-106166666D01*
X148004819Y-106166666D02*
X149004819Y-106595237D01*
X170983333Y-100059580D02*
X170935714Y-100107200D01*
X170935714Y-100107200D02*
X170792857Y-100154819D01*
X170792857Y-100154819D02*
X170697619Y-100154819D01*
X170697619Y-100154819D02*
X170554762Y-100107200D01*
X170554762Y-100107200D02*
X170459524Y-100011961D01*
X170459524Y-100011961D02*
X170411905Y-99916723D01*
X170411905Y-99916723D02*
X170364286Y-99726247D01*
X170364286Y-99726247D02*
X170364286Y-99583390D01*
X170364286Y-99583390D02*
X170411905Y-99392914D01*
X170411905Y-99392914D02*
X170459524Y-99297676D01*
X170459524Y-99297676D02*
X170554762Y-99202438D01*
X170554762Y-99202438D02*
X170697619Y-99154819D01*
X170697619Y-99154819D02*
X170792857Y-99154819D01*
X170792857Y-99154819D02*
X170935714Y-99202438D01*
X170935714Y-99202438D02*
X170983333Y-99250057D01*
X171554762Y-99583390D02*
X171459524Y-99535771D01*
X171459524Y-99535771D02*
X171411905Y-99488152D01*
X171411905Y-99488152D02*
X171364286Y-99392914D01*
X171364286Y-99392914D02*
X171364286Y-99345295D01*
X171364286Y-99345295D02*
X171411905Y-99250057D01*
X171411905Y-99250057D02*
X171459524Y-99202438D01*
X171459524Y-99202438D02*
X171554762Y-99154819D01*
X171554762Y-99154819D02*
X171745238Y-99154819D01*
X171745238Y-99154819D02*
X171840476Y-99202438D01*
X171840476Y-99202438D02*
X171888095Y-99250057D01*
X171888095Y-99250057D02*
X171935714Y-99345295D01*
X171935714Y-99345295D02*
X171935714Y-99392914D01*
X171935714Y-99392914D02*
X171888095Y-99488152D01*
X171888095Y-99488152D02*
X171840476Y-99535771D01*
X171840476Y-99535771D02*
X171745238Y-99583390D01*
X171745238Y-99583390D02*
X171554762Y-99583390D01*
X171554762Y-99583390D02*
X171459524Y-99631009D01*
X171459524Y-99631009D02*
X171411905Y-99678628D01*
X171411905Y-99678628D02*
X171364286Y-99773866D01*
X171364286Y-99773866D02*
X171364286Y-99964342D01*
X171364286Y-99964342D02*
X171411905Y-100059580D01*
X171411905Y-100059580D02*
X171459524Y-100107200D01*
X171459524Y-100107200D02*
X171554762Y-100154819D01*
X171554762Y-100154819D02*
X171745238Y-100154819D01*
X171745238Y-100154819D02*
X171840476Y-100107200D01*
X171840476Y-100107200D02*
X171888095Y-100059580D01*
X171888095Y-100059580D02*
X171935714Y-99964342D01*
X171935714Y-99964342D02*
X171935714Y-99773866D01*
X171935714Y-99773866D02*
X171888095Y-99678628D01*
X171888095Y-99678628D02*
X171840476Y-99631009D01*
X171840476Y-99631009D02*
X171745238Y-99583390D01*
X150503333Y-84304819D02*
X150170000Y-83828628D01*
X149931905Y-84304819D02*
X149931905Y-83304819D01*
X149931905Y-83304819D02*
X150312857Y-83304819D01*
X150312857Y-83304819D02*
X150408095Y-83352438D01*
X150408095Y-83352438D02*
X150455714Y-83400057D01*
X150455714Y-83400057D02*
X150503333Y-83495295D01*
X150503333Y-83495295D02*
X150503333Y-83638152D01*
X150503333Y-83638152D02*
X150455714Y-83733390D01*
X150455714Y-83733390D02*
X150408095Y-83781009D01*
X150408095Y-83781009D02*
X150312857Y-83828628D01*
X150312857Y-83828628D02*
X149931905Y-83828628D01*
X150979524Y-84304819D02*
X151170000Y-84304819D01*
X151170000Y-84304819D02*
X151265238Y-84257200D01*
X151265238Y-84257200D02*
X151312857Y-84209580D01*
X151312857Y-84209580D02*
X151408095Y-84066723D01*
X151408095Y-84066723D02*
X151455714Y-83876247D01*
X151455714Y-83876247D02*
X151455714Y-83495295D01*
X151455714Y-83495295D02*
X151408095Y-83400057D01*
X151408095Y-83400057D02*
X151360476Y-83352438D01*
X151360476Y-83352438D02*
X151265238Y-83304819D01*
X151265238Y-83304819D02*
X151074762Y-83304819D01*
X151074762Y-83304819D02*
X150979524Y-83352438D01*
X150979524Y-83352438D02*
X150931905Y-83400057D01*
X150931905Y-83400057D02*
X150884286Y-83495295D01*
X150884286Y-83495295D02*
X150884286Y-83733390D01*
X150884286Y-83733390D02*
X150931905Y-83828628D01*
X150931905Y-83828628D02*
X150979524Y-83876247D01*
X150979524Y-83876247D02*
X151074762Y-83923866D01*
X151074762Y-83923866D02*
X151265238Y-83923866D01*
X151265238Y-83923866D02*
X151360476Y-83876247D01*
X151360476Y-83876247D02*
X151408095Y-83828628D01*
X151408095Y-83828628D02*
X151455714Y-83733390D01*
%TO.C,J1*%
D10*
X158390000Y-113200000D02*
X153390000Y-113200000D01*
X153390000Y-117200000D01*
X158390000Y-117200000D01*
X158390000Y-113200000D01*
X161390000Y-117200000D02*
X161390000Y-113200000D01*
X159390000Y-113200000D02*
X161390000Y-113200000D01*
D12*
%TO.C,R5*%
X191680000Y-103350000D02*
X192450000Y-103350000D01*
X192450000Y-101980000D02*
X192450000Y-104720000D01*
X192450000Y-104720000D02*
X198990000Y-104720000D01*
X198990000Y-101980000D02*
X192450000Y-101980000D01*
X198990000Y-104720000D02*
X198990000Y-101980000D01*
X199760000Y-103350000D02*
X198990000Y-103350000D01*
%TO.C,C11*%
X145280000Y-98130000D02*
X145280000Y-102970000D01*
X147520000Y-98130000D02*
X145280000Y-98130000D01*
X147520000Y-98130000D02*
X147520000Y-102970000D01*
X147520000Y-102970000D02*
X145280000Y-102970000D01*
%TO.C,C9*%
X193530000Y-93980000D02*
X193530000Y-98820000D01*
X195770000Y-93980000D02*
X193530000Y-93980000D01*
X195770000Y-93980000D02*
X195770000Y-98820000D01*
X195770000Y-98820000D02*
X193530000Y-98820000D01*
%TO.C,C3*%
X193530000Y-88330000D02*
X195770000Y-88330000D01*
X193530000Y-93170000D02*
X193530000Y-88330000D01*
X193530000Y-93170000D02*
X195770000Y-93170000D01*
X195770000Y-93170000D02*
X195770000Y-88330000D01*
%TO.C,C2*%
X186880000Y-87120000D02*
X186880000Y-84880000D01*
X191720000Y-84880000D02*
X186880000Y-84880000D01*
X191720000Y-87120000D02*
X186880000Y-87120000D01*
X191720000Y-87120000D02*
X191720000Y-84880000D01*
%TO.C,R13*%
X178730000Y-108580000D02*
X179500000Y-108580000D01*
X179500000Y-107210000D02*
X179500000Y-109950000D01*
X179500000Y-109950000D02*
X186040000Y-109950000D01*
X186040000Y-107210000D02*
X179500000Y-107210000D01*
X186040000Y-109950000D02*
X186040000Y-107210000D01*
X186810000Y-108580000D02*
X186040000Y-108580000D01*
%TO.C,R1*%
X128430000Y-85910000D02*
X128430000Y-92450000D01*
X128430000Y-92450000D02*
X131170000Y-92450000D01*
X129800000Y-85140000D02*
X129800000Y-85910000D01*
X129800000Y-93220000D02*
X129800000Y-92450000D01*
X131170000Y-85910000D02*
X128430000Y-85910000D01*
X131170000Y-92450000D02*
X131170000Y-85910000D01*
%TO.C,R2*%
X150180000Y-95700000D02*
X150180000Y-102240000D01*
X150180000Y-102240000D02*
X152920000Y-102240000D01*
X151550000Y-94930000D02*
X151550000Y-95700000D01*
X151550000Y-103010000D02*
X151550000Y-102240000D01*
X152920000Y-95700000D02*
X150180000Y-95700000D01*
X152920000Y-102240000D02*
X152920000Y-95700000D01*
%TO.C,D2*%
X163480000Y-100670000D02*
X163810000Y-100670000D01*
X163480000Y-105090000D02*
X166420000Y-105090000D01*
X163480000Y-105210000D02*
X166420000Y-105210000D01*
X163480000Y-105330000D02*
X166420000Y-105330000D01*
X163480000Y-106110000D02*
X163480000Y-100670000D01*
X163810000Y-106110000D02*
X163480000Y-106110000D01*
X166090000Y-106110000D02*
X166420000Y-106110000D01*
X166420000Y-100670000D02*
X166090000Y-100670000D01*
X166420000Y-106110000D02*
X166420000Y-100670000D01*
%TO.C,C10*%
X125430000Y-87430000D02*
X127670000Y-87430000D01*
X125430000Y-92270000D02*
X125430000Y-87430000D01*
X125430000Y-92270000D02*
X127670000Y-92270000D01*
X127670000Y-92270000D02*
X127670000Y-87430000D01*
%TO.C,J7*%
X168645000Y-91905000D02*
X168645000Y-90575000D01*
X169975000Y-91905000D02*
X168645000Y-91905000D01*
X171245000Y-89245000D02*
X173845000Y-89245000D01*
X171245000Y-91905000D02*
X171245000Y-89245000D01*
X171245000Y-91905000D02*
X173845000Y-91905000D01*
X173845000Y-91905000D02*
X173845000Y-89245000D01*
%TO.C,R3*%
X138730000Y-86030000D02*
X138730000Y-92570000D01*
X138730000Y-92570000D02*
X141470000Y-92570000D01*
X140100000Y-85260000D02*
X140100000Y-86030000D01*
X140100000Y-93340000D02*
X140100000Y-92570000D01*
X141470000Y-86030000D02*
X138730000Y-86030000D01*
X141470000Y-92570000D02*
X141470000Y-86030000D01*
%TO.C,R14*%
X178760000Y-105250000D02*
X179530000Y-105250000D01*
X179530000Y-103880000D02*
X179530000Y-106620000D01*
X179530000Y-106620000D02*
X186070000Y-106620000D01*
X186070000Y-103880000D02*
X179530000Y-103880000D01*
X186070000Y-106620000D02*
X186070000Y-103880000D01*
X186840000Y-105250000D02*
X186070000Y-105250000D01*
%TO.C,C4*%
X178480000Y-88680000D02*
X180720000Y-88680000D01*
X178480000Y-93520000D02*
X178480000Y-88680000D01*
X178480000Y-93520000D02*
X180720000Y-93520000D01*
X180720000Y-93520000D02*
X180720000Y-88680000D01*
%TO.C,J11*%
X168620000Y-97630000D02*
X168620000Y-96300000D01*
X169950000Y-97630000D02*
X168620000Y-97630000D01*
X171220000Y-94970000D02*
X173820000Y-94970000D01*
X171220000Y-97630000D02*
X171220000Y-94970000D01*
X171220000Y-97630000D02*
X173820000Y-97630000D01*
X173820000Y-97630000D02*
X173820000Y-94970000D01*
%TO.C,C6*%
X130305000Y-97130000D02*
X132545000Y-97130000D01*
X130305000Y-101970000D02*
X130305000Y-97130000D01*
X130305000Y-101970000D02*
X132545000Y-101970000D01*
X132545000Y-101970000D02*
X132545000Y-97130000D01*
%TO.C,C5*%
X132430000Y-83080000D02*
X132430000Y-85320000D01*
X132430000Y-83080000D02*
X137270000Y-83080000D01*
X132430000Y-85320000D02*
X137270000Y-85320000D01*
X137270000Y-83080000D02*
X137270000Y-85320000D01*
%TO.C,J4*%
X154170000Y-103280000D02*
X154170000Y-100680000D01*
X156830000Y-100680000D02*
X154170000Y-100680000D01*
X156830000Y-103280000D02*
X154170000Y-103280000D01*
X156830000Y-103280000D02*
X156830000Y-100680000D01*
X156830000Y-104550000D02*
X156830000Y-105880000D01*
X156830000Y-105880000D02*
X155500000Y-105880000D01*
%TO.C,C1*%
X178480000Y-94030000D02*
X180720000Y-94030000D01*
X178480000Y-98870000D02*
X178480000Y-94030000D01*
X178480000Y-98870000D02*
X180720000Y-98870000D01*
X180720000Y-98870000D02*
X180720000Y-94030000D01*
%TO.C,R8*%
X146640000Y-90800000D02*
X147410000Y-90800000D01*
X147410000Y-89430000D02*
X147410000Y-92170000D01*
X147410000Y-92170000D02*
X153950000Y-92170000D01*
X153950000Y-89430000D02*
X147410000Y-89430000D01*
X153950000Y-92170000D02*
X153950000Y-89430000D01*
X154720000Y-90800000D02*
X153950000Y-90800000D01*
D10*
%TO.C,MK1*%
X111860712Y-90520483D02*
G75*
G02*
X111907163Y-106500000I3546451J-7979517D01*
G01*
D12*
%TO.C,LM567CN1*%
X181500000Y-91645000D02*
X181500000Y-98115000D01*
X181500000Y-98115000D02*
X191780000Y-98115000D01*
X191780000Y-91645000D02*
X181500000Y-91645000D01*
X191780000Y-93880000D02*
X191780000Y-91645000D01*
X191780000Y-98115000D02*
X191780000Y-95880000D01*
X191780000Y-95880000D02*
G75*
G02*
X191780000Y-93880000I0J1000000D01*
G01*
%TO.C,D1*%
X158530000Y-100580000D02*
X158530000Y-106020000D01*
X158530000Y-106020000D02*
X158860000Y-106020000D01*
X158860000Y-100580000D02*
X158530000Y-100580000D01*
X161140000Y-100580000D02*
X161470000Y-100580000D01*
X161470000Y-100580000D02*
X161470000Y-106020000D01*
X161470000Y-101360000D02*
X158530000Y-101360000D01*
X161470000Y-101480000D02*
X158530000Y-101480000D01*
X161470000Y-101600000D02*
X158530000Y-101600000D01*
X161470000Y-106020000D02*
X161140000Y-106020000D01*
%TO.C,U1*%
X133760000Y-99965000D02*
X133760000Y-106435000D01*
X133760000Y-106435000D02*
X144040000Y-106435000D01*
X144040000Y-99965000D02*
X133760000Y-99965000D01*
X144040000Y-102200000D02*
X144040000Y-99965000D01*
X144040000Y-106435000D02*
X144040000Y-104200000D01*
X144040000Y-104200000D02*
G75*
G02*
X144040000Y-102200000I0J1000000D01*
G01*
%TO.C,R4*%
X197130000Y-89150000D02*
X197130000Y-95690000D01*
X197130000Y-95690000D02*
X199870000Y-95690000D01*
X198500000Y-88380000D02*
X198500000Y-89150000D01*
X198500000Y-96460000D02*
X198500000Y-95690000D01*
X199870000Y-89150000D02*
X197130000Y-89150000D01*
X199870000Y-95690000D02*
X199870000Y-89150000D01*
%TO.C,R12*%
X178730000Y-111980000D02*
X179500000Y-111980000D01*
X179500000Y-110610000D02*
X179500000Y-113350000D01*
X179500000Y-113350000D02*
X186040000Y-113350000D01*
X186040000Y-110610000D02*
X179500000Y-110610000D01*
X186040000Y-113350000D02*
X186040000Y-110610000D01*
X186810000Y-111980000D02*
X186040000Y-111980000D01*
%TO.C,R11*%
X178730000Y-115330000D02*
X179500000Y-115330000D01*
X179500000Y-113960000D02*
X179500000Y-116700000D01*
X179500000Y-116700000D02*
X186040000Y-116700000D01*
X186040000Y-113960000D02*
X179500000Y-113960000D01*
X186040000Y-116700000D02*
X186040000Y-113960000D01*
X186810000Y-115330000D02*
X186040000Y-115330000D01*
%TO.C,C7*%
X145180000Y-104580000D02*
X145180000Y-109420000D01*
X147420000Y-104580000D02*
X145180000Y-104580000D01*
X147420000Y-104580000D02*
X147420000Y-109420000D01*
X147420000Y-109420000D02*
X145180000Y-109420000D01*
%TO.C,C8*%
X168345225Y-101975000D02*
X168845225Y-101975000D01*
X168595225Y-101725000D02*
X168595225Y-102225000D01*
X173711000Y-102932000D02*
X173711000Y-103968000D01*
X173751000Y-103166000D02*
X173751000Y-103734000D01*
X173770000Y-103450000D02*
G75*
G02*
X168530000Y-103450000I-2620000J0D01*
G01*
X168530000Y-103450000D02*
G75*
G02*
X173770000Y-103450000I2620000J0D01*
G01*
%TO.C,R9*%
X146630000Y-86350000D02*
X147400000Y-86350000D01*
X147400000Y-84980000D02*
X147400000Y-87720000D01*
X147400000Y-87720000D02*
X153940000Y-87720000D01*
X153940000Y-84980000D02*
X147400000Y-84980000D01*
X153940000Y-87720000D02*
X153940000Y-84980000D01*
X154710000Y-86350000D02*
X153940000Y-86350000D01*
%TD*%
%LPC*%
D13*
%TO.C,J1*%
X154810000Y-115200000D03*
X157350000Y-115200000D03*
D14*
X159890000Y-115200000D03*
%TD*%
D15*
%TO.C,R5*%
X200800000Y-103350000D03*
X190640000Y-103350000D03*
%TD*%
D16*
%TO.C,C11*%
X146400000Y-99300000D03*
X146400000Y-101800000D03*
%TD*%
%TO.C,C9*%
X194650000Y-95150000D03*
X194650000Y-97650000D03*
%TD*%
%TO.C,C3*%
X194650000Y-92000000D03*
X194650000Y-89500000D03*
%TD*%
%TO.C,C2*%
X190550000Y-86000000D03*
X188050000Y-86000000D03*
%TD*%
D15*
%TO.C,R13*%
X187850000Y-108580000D03*
X177690000Y-108580000D03*
%TD*%
%TO.C,R1*%
X129800000Y-84100000D03*
X129800000Y-94260000D03*
%TD*%
%TO.C,R2*%
X151550000Y-104050000D03*
X151550000Y-93890000D03*
%TD*%
D17*
%TO.C,D2*%
X164950000Y-107200000D03*
D18*
X164950000Y-99580000D03*
%TD*%
D16*
%TO.C,C10*%
X126550000Y-91100000D03*
X126550000Y-88600000D03*
%TD*%
D19*
%TO.C,J7*%
X169975000Y-90575000D03*
D20*
X172515000Y-90575000D03*
%TD*%
D15*
%TO.C,R3*%
X140100000Y-84220000D03*
X140100000Y-94380000D03*
%TD*%
%TO.C,R14*%
X187880000Y-105250000D03*
X177720000Y-105250000D03*
%TD*%
D16*
%TO.C,C4*%
X179600000Y-92350000D03*
X179600000Y-89850000D03*
%TD*%
D19*
%TO.C,J11*%
X169950000Y-96300000D03*
D20*
X172490000Y-96300000D03*
%TD*%
D16*
%TO.C,C6*%
X131425000Y-100800000D03*
X131425000Y-98300000D03*
%TD*%
%TO.C,C5*%
X133600000Y-84200000D03*
X136100000Y-84200000D03*
%TD*%
D21*
%TO.C,J4*%
X155500000Y-104550000D03*
D22*
X155500000Y-102010000D03*
%TD*%
D16*
%TO.C,C1*%
X179600000Y-97700000D03*
X179600000Y-95200000D03*
%TD*%
D15*
%TO.C,R8*%
X145600000Y-90800000D03*
X155760000Y-90800000D03*
%TD*%
D23*
%TO.C,MK1*%
X115407163Y-103500000D03*
X115407163Y-93500000D03*
%TD*%
D24*
%TO.C,LM567CN1*%
X190450000Y-89800000D03*
D25*
X187910000Y-89800000D03*
X185370000Y-89800000D03*
X182830000Y-89800000D03*
X182830000Y-99960000D03*
X185370000Y-99960000D03*
X187910000Y-99960000D03*
X190450000Y-99960000D03*
%TD*%
D17*
%TO.C,D1*%
X160000000Y-99490000D03*
D18*
X160000000Y-107110000D03*
%TD*%
D24*
%TO.C,U1*%
X142710000Y-98120000D03*
D25*
X140170000Y-98120000D03*
X137630000Y-98120000D03*
X135090000Y-98120000D03*
X135090000Y-108280000D03*
X137630000Y-108280000D03*
X140170000Y-108280000D03*
X142710000Y-108280000D03*
%TD*%
D15*
%TO.C,R4*%
X198500000Y-97500000D03*
X198500000Y-87340000D03*
%TD*%
%TO.C,R12*%
X187850000Y-111980000D03*
X177690000Y-111980000D03*
%TD*%
%TO.C,R11*%
X187850000Y-115330000D03*
X177690000Y-115330000D03*
%TD*%
D16*
%TO.C,C7*%
X146300000Y-105750000D03*
X146300000Y-108250000D03*
%TD*%
D26*
%TO.C,C8*%
X169900000Y-103450000D03*
D27*
X172400000Y-103450000D03*
%TD*%
D15*
%TO.C,R9*%
X155750000Y-86350000D03*
X145590000Y-86350000D03*
%TD*%
%LPD*%
M02*
