%TF.GenerationSoftware,KiCad,Pcbnew,9.0.0*%
%TF.CreationDate,2025-03-10T10:12:29+01:00*%
%TF.ProjectId,project git rev,70726f6a-6563-4742-9067-697420726576,rev?*%
%TF.SameCoordinates,Original*%
%TF.FileFunction,Copper,L1,Top*%
%TF.FilePolarity,Positive*%
%FSLAX46Y46*%
G04 Gerber Fmt 4.6, Leading zero omitted, Abs format (unit mm)*
G04 Created by KiCad (PCBNEW 9.0.0) date 2025-03-10 10:12:29*
%MOMM*%
%LPD*%
G01*
G04 APERTURE LIST*
%TA.AperFunction,ComponentPad*%
%ADD10O,1.700000X3.000000*%
%TD*%
%TA.AperFunction,ComponentPad*%
%ADD11R,1.700000X3.000000*%
%TD*%
%TA.AperFunction,ComponentPad*%
%ADD12C,2.000000*%
%TD*%
%TA.AperFunction,ComponentPad*%
%ADD13C,1.750000*%
%TD*%
%TA.AperFunction,ComponentPad*%
%ADD14R,2.500000X1.750000*%
%TD*%
%TA.AperFunction,ComponentPad*%
%ADD15O,2.500000X1.750000*%
%TD*%
%TA.AperFunction,ComponentPad*%
%ADD16R,1.700000X2.500000*%
%TD*%
%TA.AperFunction,ComponentPad*%
%ADD17O,1.700000X2.500000*%
%TD*%
%TA.AperFunction,ComponentPad*%
%ADD18R,2.500000X1.700000*%
%TD*%
%TA.AperFunction,ComponentPad*%
%ADD19O,2.500000X1.700000*%
%TD*%
%TA.AperFunction,ComponentPad*%
%ADD20C,3.000000*%
%TD*%
%TA.AperFunction,ComponentPad*%
%ADD21R,1.500000X2.500000*%
%TD*%
%TA.AperFunction,ComponentPad*%
%ADD22O,1.500000X2.500000*%
%TD*%
%TA.AperFunction,ComponentPad*%
%ADD23R,1.600000X2.500000*%
%TD*%
%TA.AperFunction,ComponentPad*%
%ADD24O,1.600000X2.500000*%
%TD*%
%TA.AperFunction,Conductor*%
%ADD25C,0.300000*%
%TD*%
%TA.AperFunction,Conductor*%
%ADD26C,0.500000*%
%TD*%
G04 APERTURE END LIST*
D10*
%TO.P,J1,3,Pin_3*%
%TO.N,State*%
X154810000Y-115200000D03*
%TO.P,J1,2,Pin_2*%
%TO.N,+5V*%
X157350000Y-115200000D03*
D11*
%TO.P,J1,1,Pin_1*%
%TO.N,GND*%
X159890000Y-115200000D03*
%TD*%
D12*
%TO.P,R5,1*%
%TO.N,Net-(LM567CN1-Output)*%
X200800000Y-103350000D03*
%TO.P,R5,2*%
%TO.N,GND*%
X190640000Y-103350000D03*
%TD*%
D13*
%TO.P,C11,1*%
%TO.N,Net-(U1A--)*%
X146400000Y-99300000D03*
%TO.P,C11,2*%
%TO.N,Net-(D1-A)*%
X146400000Y-101800000D03*
%TD*%
%TO.P,C9,1*%
%TO.N,+5V*%
X194650000Y-95150000D03*
%TO.P,C9,2*%
%TO.N,GND*%
X194650000Y-97650000D03*
%TD*%
%TO.P,C3,1*%
%TO.N,GND*%
X194650000Y-92000000D03*
%TO.P,C3,2*%
%TO.N,Net-(LM567CN1-Output_Filter)*%
X194650000Y-89500000D03*
%TD*%
%TO.P,C2,1*%
%TO.N,GND*%
X190550000Y-86000000D03*
%TO.P,C2,2*%
%TO.N,Net-(LM567CN1-Loop_Filter)*%
X188050000Y-86000000D03*
%TD*%
D12*
%TO.P,R13,1*%
%TO.N,Net-(LM567CN1-Timing_Capacitor)*%
X187850000Y-108580000D03*
%TO.P,R13,2*%
%TO.N,Net-(LM567CN1-Timing_Resistor)*%
X177690000Y-108580000D03*
%TD*%
%TO.P,R1,1*%
%TO.N,Net-(MK1-+)*%
X129800000Y-84100000D03*
%TO.P,R1,2*%
%TO.N,GND*%
X129800000Y-94260000D03*
%TD*%
%TO.P,R2,1*%
%TO.N,Net-(D1-A)*%
X151550000Y-104050000D03*
%TO.P,R2,2*%
%TO.N,Net-(U1A--)*%
X151550000Y-93890000D03*
%TD*%
D14*
%TO.P,D2,1,K*%
%TO.N,Net-(D1-A)*%
X164950000Y-107200000D03*
D15*
%TO.P,D2,2,A*%
%TO.N,Signal*%
X164950000Y-99580000D03*
%TD*%
D13*
%TO.P,C10,1*%
%TO.N,GND*%
X126550000Y-91100000D03*
%TO.P,C10,2*%
%TO.N,Net-(MK1-+)*%
X126550000Y-88600000D03*
%TD*%
D16*
%TO.P,J7,1,Pin_1*%
%TO.N,+5V*%
X169975000Y-90575000D03*
D17*
%TO.P,J7,2,Pin_2*%
%TO.N,GND*%
X172515000Y-90575000D03*
%TD*%
D12*
%TO.P,R3,1*%
%TO.N,Net-(C5-Pad2)*%
X140100000Y-84220000D03*
%TO.P,R3,2*%
%TO.N,Net-(U1A--)*%
X140100000Y-94380000D03*
%TD*%
%TO.P,R14,1*%
%TO.N,Net-(LM567CN1-Timing_Capacitor)*%
X187880000Y-105250000D03*
%TO.P,R14,2*%
%TO.N,Net-(LM567CN1-Timing_Resistor)*%
X177720000Y-105250000D03*
%TD*%
D13*
%TO.P,C4,1*%
%TO.N,GND*%
X179600000Y-92350000D03*
%TO.P,C4,2*%
%TO.N,+5V*%
X179600000Y-89850000D03*
%TD*%
D16*
%TO.P,J11,1,Pin_1*%
%TO.N,+5V*%
X169950000Y-96300000D03*
D17*
%TO.P,J11,2,Pin_2*%
%TO.N,GND*%
X172490000Y-96300000D03*
%TD*%
D13*
%TO.P,C6,1*%
%TO.N,+5V*%
X131425000Y-100800000D03*
%TO.P,C6,2*%
%TO.N,GND*%
X131425000Y-98300000D03*
%TD*%
%TO.P,C5,1*%
%TO.N,Net-(MK1-+)*%
X133600000Y-84200000D03*
%TO.P,C5,2*%
%TO.N,Net-(C5-Pad2)*%
X136100000Y-84200000D03*
%TD*%
D18*
%TO.P,J4,1,Pin_1*%
%TO.N,Net-(D1-A)*%
X155500000Y-104550000D03*
D19*
%TO.P,J4,2,Pin_2*%
%TO.N,Signal*%
X155500000Y-102010000D03*
%TD*%
D13*
%TO.P,C1,1*%
%TO.N,Net-(LM567CN1-Timing_Capacitor)*%
X179600000Y-97700000D03*
%TO.P,C1,2*%
%TO.N,GND*%
X179600000Y-95200000D03*
%TD*%
D12*
%TO.P,R8,1*%
%TO.N,Net-(U1A-+)*%
X145600000Y-90800000D03*
%TO.P,R8,2*%
%TO.N,GND*%
X155760000Y-90800000D03*
%TD*%
D20*
%TO.P,MK1,1,-*%
%TO.N,GND*%
X115407163Y-103500000D03*
%TO.P,MK1,2,+*%
%TO.N,Net-(MK1-+)*%
X115407163Y-93500000D03*
%TD*%
D21*
%TO.P,LM567CN1,1,Output_Filter*%
%TO.N,Net-(LM567CN1-Output_Filter)*%
X190450000Y-89800000D03*
D22*
%TO.P,LM567CN1,2,Loop_Filter*%
%TO.N,Net-(LM567CN1-Loop_Filter)*%
X187910000Y-89800000D03*
%TO.P,LM567CN1,3,Signal*%
%TO.N,Signal*%
X185370000Y-89800000D03*
%TO.P,LM567CN1,4,V+*%
%TO.N,+5V*%
X182830000Y-89800000D03*
%TO.P,LM567CN1,5,Timing_Resistor*%
%TO.N,Net-(LM567CN1-Timing_Resistor)*%
X182830000Y-99960000D03*
%TO.P,LM567CN1,6,Timing_Capacitor*%
%TO.N,Net-(LM567CN1-Timing_Capacitor)*%
X185370000Y-99960000D03*
%TO.P,LM567CN1,7,GND*%
%TO.N,GND*%
X187910000Y-99960000D03*
%TO.P,LM567CN1,8,Output*%
%TO.N,Net-(LM567CN1-Output)*%
X190450000Y-99960000D03*
%TD*%
D14*
%TO.P,D1,1,K*%
%TO.N,Signal*%
X160000000Y-99490000D03*
D15*
%TO.P,D1,2,A*%
%TO.N,Net-(D1-A)*%
X160000000Y-107110000D03*
%TD*%
D21*
%TO.P,U1,1*%
%TO.N,Net-(D1-A)*%
X142710000Y-98120000D03*
D22*
%TO.P,U1,2,-*%
%TO.N,Net-(U1A--)*%
X140170000Y-98120000D03*
%TO.P,U1,3,+*%
%TO.N,Net-(U1A-+)*%
X137630000Y-98120000D03*
%TO.P,U1,4,V-*%
%TO.N,GND*%
X135090000Y-98120000D03*
%TO.P,U1,5,+*%
%TO.N,Net-(LM567CN1-Output)*%
X135090000Y-108280000D03*
%TO.P,U1,6,-*%
%TO.N,State*%
X137630000Y-108280000D03*
%TO.P,U1,7*%
X140170000Y-108280000D03*
%TO.P,U1,8,V+*%
%TO.N,+5V*%
X142710000Y-108280000D03*
%TD*%
D12*
%TO.P,R4,1*%
%TO.N,Net-(LM567CN1-Output)*%
X198500000Y-97500000D03*
%TO.P,R4,2*%
%TO.N,+5V*%
X198500000Y-87340000D03*
%TD*%
%TO.P,R12,1*%
%TO.N,Net-(LM567CN1-Timing_Capacitor)*%
X187850000Y-111980000D03*
%TO.P,R12,2*%
%TO.N,Net-(LM567CN1-Timing_Resistor)*%
X177690000Y-111980000D03*
%TD*%
%TO.P,R11,1*%
%TO.N,Net-(LM567CN1-Timing_Capacitor)*%
X187850000Y-115330000D03*
%TO.P,R11,2*%
%TO.N,Net-(LM567CN1-Timing_Resistor)*%
X177690000Y-115330000D03*
%TD*%
D13*
%TO.P,C7,1*%
%TO.N,GND*%
X146300000Y-105750000D03*
%TO.P,C7,2*%
%TO.N,+5V*%
X146300000Y-108250000D03*
%TD*%
D23*
%TO.P,C8,1*%
%TO.N,+5V*%
X169900000Y-103450000D03*
D24*
%TO.P,C8,2*%
%TO.N,GND*%
X172400000Y-103450000D03*
%TD*%
D12*
%TO.P,R9,1*%
%TO.N,+5V*%
X155750000Y-86350000D03*
%TO.P,R9,2*%
%TO.N,Net-(U1A-+)*%
X145590000Y-86350000D03*
%TD*%
D25*
%TO.N,GND*%
X194650000Y-92000000D02*
X192450000Y-89800000D01*
X155760000Y-90800000D02*
X155760000Y-96290000D01*
X194650000Y-91337436D02*
X194650000Y-92000000D01*
D26*
X146300000Y-105750000D02*
X150900000Y-110350000D01*
X172400000Y-106850000D02*
X172400000Y-103450000D01*
D25*
X155760000Y-96290000D02*
X146300000Y-105750000D01*
D26*
X150900000Y-110350000D02*
X168900000Y-110350000D01*
D25*
X192450000Y-89800000D02*
X192450000Y-87900000D01*
D26*
X168900000Y-110350000D02*
X172400000Y-106850000D01*
D25*
X192450000Y-87900000D02*
X190550000Y-86000000D01*
%TO.N,Net-(LM567CN1-Loop_Filter)*%
X187910000Y-86140000D02*
X188050000Y-86000000D01*
D26*
X187910000Y-86640000D02*
X188050000Y-86500000D01*
D25*
X187910000Y-89800000D02*
X187910000Y-86140000D01*
%TO.N,Net-(LM567CN1-Output_Filter)*%
X190450000Y-89800000D02*
X190450000Y-89200000D01*
%TO.N,+5V*%
X150990397Y-92539000D02*
X151111000Y-92539000D01*
X142710000Y-100819397D02*
X150990397Y-92539000D01*
X151111000Y-92539000D02*
X155750000Y-87900000D01*
X155750000Y-87900000D02*
X155750000Y-86350000D01*
X142710000Y-108280000D02*
X142710000Y-100819397D01*
%TO.N,Net-(MK1-+)*%
X126550000Y-88600000D02*
X126550000Y-87350000D01*
X129800000Y-84100000D02*
X133500000Y-84100000D01*
X126550000Y-87350000D02*
X129800000Y-84100000D01*
X121650000Y-93500000D02*
X126550000Y-88600000D01*
X115407163Y-93500000D02*
X121650000Y-93500000D01*
D26*
X133500000Y-84100000D02*
X133600000Y-84200000D01*
D25*
%TO.N,Net-(C5-Pad2)*%
X136100000Y-84200000D02*
X140080000Y-84200000D01*
D26*
X140080000Y-84200000D02*
X140100000Y-84220000D01*
D25*
%TO.N,Signal*%
X162400000Y-99490000D02*
X180510000Y-99490000D01*
X180510000Y-99490000D02*
X185370000Y-94630000D01*
X164860000Y-99490000D02*
X164950000Y-99580000D01*
X160000000Y-99490000D02*
X162400000Y-99490000D01*
X162400000Y-99490000D02*
X164860000Y-99490000D01*
X185370000Y-94630000D02*
X185370000Y-89800000D01*
%TO.N,Net-(LM567CN1-Output)*%
X139310000Y-112500000D02*
X171500000Y-112500000D01*
X190450000Y-100350000D02*
X190450000Y-99960000D01*
X183900000Y-106900000D02*
X190450000Y-100350000D01*
X177100000Y-106900000D02*
X183900000Y-106900000D01*
X135090000Y-108280000D02*
X139310000Y-112500000D01*
X171500000Y-112500000D02*
X177100000Y-106900000D01*
%TD*%
M02*
